<?xml version="1.0" encoding="UTF-8"?>
<svg version="1.1" xmlns="http://www.w3.org/2000/svg" width="87.563" height="149.18" viewBox="0 0 87.563 149.18">
	<g transform="translate(-88.833 -59.818)" fill="#d54">
		<path d="m89.502 142.33 18.89-38.451c0.806-1.642 2.477-2.681 4.306-2.679l39.981 0.038c1.803 2e-3 3.452 1.015 4.268 2.622l18.735 36.888c1.474 2.902 0.605 6.445-2.045 8.335-3.262 2.328-7.829 1.224-9.668-2.337l-12.655-24.503-2.619 24.969 6.144 52.323c0.589 5.018-3.333 9.426-8.386 9.423h-0.019c-4.26-2e-3 -7.851-3.179-8.372-7.407l-5.158-41.87-4.996 41.88c-0.506 4.244-4.106 7.439-8.38 7.439-5.036 0-8.95-4.382-8.386-9.385l5.898-52.267-2.795-24.934-13.095 25.738c-1.593 3.13-5.381 4.434-8.563 2.946-3.301-1.542-4.693-5.496-3.085-8.768z"/>
		<circle cx="132.56" cy="77.391" r="17.573"/>
	</g>
</svg>
