<?xml version="1.0" encoding="UTF-8" standalone="no"?>
<!-- Created with Inkscape (http://www.inkscape.org/) -->

<svg
   version="1.1"
   id="svg1"
   width="144.32146"
   height="108.94407"
   viewBox="0 0 144.32146 108.94407"
   xmlns="http://www.w3.org/2000/svg"
   xmlns:svg="http://www.w3.org/2000/svg">
  <defs
     id="defs1" />
  <g
     id="g1"
     transform="translate(-1.2200743e-4,-5.2582878)">
    <g
       id="g100">
      <path
         id="path7"
         d="m 133.92,71.305343 c -1.99454,-2.230667 -6.632,-4.945333 -10.7164,-6.345333 -0.3036,-0.112 -0.60934,-0.217334 -0.9208,-0.310667 l -21.28174,-6.350666 c -3.989062,-1.190667 -10.669329,-2.032 -15.502662,-1.996 -0.3572,-0.004 -0.712933,-0.0027 -1.062,0.01067 L 49.544799,57.61601 c -4.866667,0.181333 -12.3464,1.298667 -16.7084,2.493333 l -16.230666,4.444 c -4.361987,1.193333 -8.8786532,4.256 -10.0869865,6.844 L 0.62083332,84.018676 c -0.58541665,1.250667 -0.74010412,1.917333 -0.52604159,2.002667 -0.18281253,1.658666 0.14895893,3.521333 0.91562557,5.129333 -0.19687599,0.08667 0.1937493,0.728 1.2270893,1.912 l 6.0260399,6.908 c 2.1015595,2.410664 7.0911195,5.565334 11.1443195,7.052004 l 7.923333,2.90266 c 4.0532,1.48667 11.284933,2.82534 16.1532,2.99067 l 37.087466,1.26533 c 4.868266,0.16534 12.353599,-0.66266 16.718266,-1.852 l 25.291599,-6.892 c 3.95053,-1.076 8.6412,-3.55333 11.10627,-5.789331 0.26666,-0.233333 0.51466,-0.466667 0.72266,-0.697333 l 8.272,-9.121334 c 0.88,-0.972 1.24267,-1.6 1.15067,-1.88 0.89733,-2.243999 0.53867,-4.953333 -1.108,-6.793333 L 133.92,71.305343"
         style="fill:#303133;fill-opacity:1;fill-rule:nonzero;stroke:none;stroke-width:0.133333" />
      <path
         id="path63"
         d="M 8.2635465,85.045343 2.2375066,72.42801 c -2.10156927,-4.4 -2.82604792,-11.796 -1.61667328,-16.52 L 6.5187465,32.856011 c 1.2083333,-4.728 5.7249995,-10.322667 10.0869865,-12.505333 l 16.230666,-8.114667 c 4.362,-2.181333 11.841733,-4.2226665 16.7084,-4.5546665 l 34.891599,-2.38 c 4.866666,-0.3319999 12.281333,1.292 16.564662,3.628 L 122.2828,20.529344 c 4.2828,2.333333 9.49226,7.773333 11.6372,12.157333 l 8.80533,17.992 c 2.14533,4.38 2.12533,11.471999 -0.0427,15.841333 l -8.272,16.663999 c -2.16693,4.372 -7.6576,9.217333 -12.26066,10.826667 l -21.87867,7.653334 c -4.603599,1.61067 -12.286932,3.05867 -17.160932,3.236 l -33.079733,1.21333 c -4.873333,0.18 -12.415066,-1.332 -16.844666,-3.372 l -13.0964,-6.031998 c -4.429733,-2.044 -9.724493,-7.261333 -11.8260525,-11.663999"
         style="fill:#626567;fill-opacity:1;fill-rule:nonzero;stroke:none;stroke-width:0.133333" />
      <path
         id="path64"
         d="m 121.73026,21.761344 -21.28186,-7.668 c -4.588536,-1.657333 -12.261469,-2.996 -17.138002,-2.996 H 71.133332 c -4.876534,0 -12.708267,0.769334 -17.4916,1.722667 l -12.7944,2.538667 c -4.783733,0.953333 -12.124933,3.628 -16.398399,5.978666 l -4.428667,2.436 c -4.2724,2.350667 -9.142146,7.954667 -10.8759996,12.509333 L 4.8109332,47.681343 c -1.7338533,4.556 -0.28072,10.985334 3.2453199,14.353333 l 3.6999999,3.534667 c 3.524413,3.369333 8.04068,2.509333 10.08388,-1.916 l 0.359333,-0.781333 c 2.043733,-4.428 4.513067,-4.149333 5.517733,0.624 l 3.2292,15.350666 c 1.004667,4.769333 4.4224,6.102667 7.635867,2.970667 3.2136,-3.132 9.375066,-7.393334 13.762533,-9.524 l 5.5416,-2.690667 c 4.388666,-2.130666 10.931333,-1.526666 14.612533,1.345334 3.679733,2.872 9.994266,3.066666 14.101066,0.437333 l 7.953066,-5.096 c 4.1068,-2.630667 7.835996,-6.833333 8.330796,-9.389333 0.4932,-2.554667 4.8276,-5.026667 9.67974,-5.525333 l 5.7036,-0.584 c 4.85253,-0.496 11.05573,-0.898667 13.8568,-0.898667 2.804,0 3.99066,-3.802666 2.656,-8.490666 l -2.3232,-8.157333 c -1.336,-4.688 -6.13907,-9.829334 -10.72654,-11.482667"
         style="fill:#7f8283;fill-opacity:1;fill-rule:nonzero;stroke:none;stroke-width:0.133333" />
      <path
         id="path65"
         d="m 30.263066,42.746677 2.654667,31.551999 c 0.4088,4.86 2.396266,5.210667 4.437999,0.781333 l 6.4792,-14.050666 c 2.041067,-4.432 6.401467,-6.246666 9.739067,-4.06 3.338533,2.188 8.896799,1.224 12.415599,-2.153333 L 80.698931,40.697344 C 84.216665,37.32001 90.941198,35.38401 95.715598,36.37601 l 26.270802,5.454667 c 4.77666,0.989333 8.52293,-2.16 8.36933,-7.033333 l -0.0396,-1.217333 C 130.16253,28.706677 126.5656,22.862677 122.2828,20.529344 L 101.00106,8.9293445 c -4.283329,-2.336 -11.697996,-3.9599999 -16.564662,-3.628 l -34.891599,2.38 c -4.866667,0.332 -12.3464,2.3733335 -16.7084,4.5546665 l -16.230666,8.114667 c -4.361987,2.182666 -6.9156266,7.777333 -5.702093,12.502666 l 0.876573,3.410666 c 1.213533,4.722667 5.435387,6.288 9.433386,3.492 l 1.071867,-0.750666 c 3.997333,-2.792 7.568133,-1.118667 7.9776,3.741333"
         style="fill:#9fa2a1;fill-opacity:1;fill-rule:nonzero;stroke:none;stroke-width:0.133333" />
      <path
         id="path66"
         d="m 134.41066,83.184009 8.272,-16.663999 c 2.168,-4.369334 1.24667,-5.006667 -2.06,-1.417334 l -5.828,6.321334 c -3.3072,3.589333 -7.9624,3.913333 -10.40253,0.728 -2.438,-3.185334 -2.5968,-6.46 -0.35467,-7.317334 2.2412,-0.854666 2.14227,-3.484 -0.21973,-5.869333 -2.36467,-2.385333 -3.12653,-2.410666 -1.70267,-0.06 1.42507,2.354667 0.588,4.638667 -1.8692,5.097333 -2.45626,0.46 -3.6432,4.708 -2.64893,9.482667 l 0.2,0.961333 c 0.99213,4.774667 -1.4448,10.908 -5.4448,13.701333 l -8.49173,5.92 c -3.999469,2.793333 -11.194802,5.2 -16.068269,5.378667 l -14.875466,0.545333 c -4.874,0.178671 -9.980267,-3.456 -11.4052,-8.12 l -1.1312,-3.706667 c -1.4256,-4.665333 -3.5876,-4.622666 -4.8292,0.09333 l -0.848,3.221333 c -1.2432,4.716 -5.892666,7.005333 -10.389066,5.113333 l -5.937467,-2.5 c -4.495866,-1.894666 -7.106266,-0.933333 -5.833333,2.142667 1.2756,3.077333 -1.116666,3.598667 -5.342666,1.164 l -2.3032,-1.325333 c -4.227067,-2.436 -9.900933,-7.661334 -12.675973,-11.672 l -8.7666668,-12.68 C 0.68020798,67.71201 0.13593733,68.02801 2.2375066,72.42801 l 6.0260399,12.617333 c 2.1015595,4.402666 7.0911195,10.166666 11.1443195,12.881333 l 7.923333,5.301334 c 4.0532,2.71467 11.284933,5.16133 16.1532,5.464 l 37.087466,2.31067 c 4.868266,0.30133 12.353599,-1.212 16.718266,-3.38534 L 122.58173,95.032009 c 4.36467,-2.173333 9.662,-7.476 11.82893,-11.848"
         style="fill:#4c4e51;fill-opacity:1;fill-rule:nonzero;stroke:none;stroke-width:0.133333" />
      <path
         id="path67"
         d="M 1.9859333,56.378677 9.4505198,39.41201 C 11.414066,34.946677 13.956266,33.077344 15.126,35.237344 c 1.171333,2.158666 4.528133,2.108 7.497999,-0.116 2.9692,-2.221333 2.997334,-3.424 0.06613,-2.689333 -2.9344,0.736 -5.274,-0.132 -5.2276,-1.945334 0.04533,-1.805333 3.7192,-4.824 8.2036,-6.738666 l 10.316133,-4.405333 c 4.4828,-1.914667 12.041733,-3.981334 16.875599,-4.612 l 21.278533,-2.784 c 4.836,-0.634667 8.11,0.942666 7.312533,3.52 -0.799466,2.578666 -3.120266,7.901333 -5.188,11.891999 -2.066666,3.989334 -0.7656,4.62 2.9016,1.406667 l 1.264,-1.105333 c 3.667734,-3.213334 7.4448,-8.486667 8.433867,-11.785333 0.9896,-3.297334 4.330266,-4.053334 7.4604,-1.690667 3.130266,2.362667 3.712006,1.197333 1.297466,-2.602667 -2.4152,-3.7986662 -8.3152,-6.6119994 -13.181866,-6.2799995 l -34.891599,2.38 c -4.866667,0.332 -12.3464,2.3733335 -16.7084,4.5546665 L 16.605733,20.350678 C 12.243746,22.533344 7.7270798,28.128011 6.5187465,32.856011 L 0.62083332,55.90801 c -1.20937464,4.724 -0.59739585,4.934666 1.36509998,0.470667"
         style="fill:#e9e9e7;fill-opacity:1;fill-rule:nonzero;stroke:none;stroke-width:0.133333" />
      <path
         id="path68"
         d="m 73.105198,68.582676 c 4.0172,1.568 10.795867,1.041334 15.140666,-1.174666 l 4.841067,-2.466667 c 4.345867,-2.218667 8.566129,-6.616 9.429199,-9.828 0.86413,-3.217333 5.51453,-5.752 10.3912,-5.661333 l 15.46093,0.278667 c 4.87654,0.09067 4.8932,0.528 0.0364,0.976 l -11.93173,1.098666 c -4.8552,0.449334 -9.46507,3.464 -10.29427,6.734667 -0.83133,3.269333 -5.09893,7.568 -9.532262,9.6 l -9.4532,4.330666 c -4.433867,2.032 -11.014533,1.349334 -14.694266,-1.522666 -3.6812,-2.872 -3.410934,-3.932 0.606266,-2.365334"
         style="fill:#e9e9e7;fill-opacity:1;fill-rule:nonzero;stroke:none;stroke-width:0.133333" />
      <path
         id="path69"
         d="m 60.331732,89.269342 0.916133,2.689334 c 1.5704,4.617333 6.7948,8.212004 11.6688,8.033333 l 14.875466,-0.545333 c 4.873467,-0.178667 4.8792,-0.553334 0.0084,-0.836 L 74.647865,97.845342 c -4.868667,-0.282666 -10.606133,-4.034666 -12.815067,-8.384 l -0.345333,-0.676 c -2.208266,-4.349333 -2.7276,-4.129333 -1.155733,0.484"
         style="fill:#7f8283;fill-opacity:1;fill-rule:nonzero;stroke:none;stroke-width:0.133333" />
      <path
         id="path70"
         d="m 33.505732,37.813344 c 0.383334,3.362666 4.213067,7.889333 8.552134,10.117333 l 9.252533,4.734666 c 4.3412,2.226667 9.825066,1.553334 12.253199,-1.5 2.426,-3.052 2.049467,-4.035999 -0.8428,-2.194666 -2.890133,1.837333 -8.693199,1.417333 -12.960933,-0.945334 L 45.162532,45.48001 c -4.267733,-2.361333 -8.761466,-6.394666 -10.039066,-9.014666 -1.278134,-2.617333 -2.002667,-2.014667 -1.617734,1.348"
         style="fill:#e9e9e7;fill-opacity:1;fill-rule:nonzero;stroke:none;stroke-width:0.133333" />
    </g>
  </g>
</svg>
