<?xml version="1.0" encoding="UTF-8" standalone="no"?>
<!-- Created with Inkscape (http://www.inkscape.org/) -->

<svg
   version="1.1"
   id="svg1"
   width="144.3231"
   height="113.1619"
   viewBox="0 0 144.32311 113.16189"
   xmlns="http://www.w3.org/2000/svg"
   xmlns:svg="http://www.w3.org/2000/svg">
  <defs
     id="defs1" />
  <g
     id="layer2"
     transform="translate(-374.34422,-2.5330842)">
    <g
       id="g102">
      <path
         id="path8"
         d="m 377.73466,106.18001 c 2.024,2.43067 7.85866,4.73333 13.03466,5.14667 0,0 20.492,4.82933 53.87734,4.29333 5.25333,-0.0867 13.564,0.32667 18.73333,-0.19067 l 40.928,-4.09333 c 5.17066,-0.516 10.16533,-3.05067 11.16266,-5.65733 l 2.73467,-7.160004 c 0.99733,-2.610667 0.32667,-6.728 -1.5,-9.198667 l -5.60267,-7.606666 c -0.0507,-0.068 -0.0973,-0.126667 -0.14666,-0.190667 l -1.51867,-2.06 c -0.1,-0.197333 -0.21467,-0.393333 -0.35333,-0.581333 l -2.724,-3.648 c -1.64134,-2.197333 -3.856,-4.329333 -5.27067,-5.12 -0.80133,-0.836 -2.20933,-1.928 -4.01467,-3.050667 l -7.00133,-4.356 c -3.28667,-2.046666 -10.06933,-4.217333 -15.15333,-4.851999 l -20.984,-2.621334 c -5.084,-0.633333 -13.32133,-0.569333 -18.4,0.142667 l -11.36,1.597333 c -5.084,0.710667 -12.668,2.565334 -16.93467,4.137333 l -8.95866,3.297334 c -2.476,0.909333 -3.27067,1.56 -2.508,1.833333 -2.73734,1.072 -5.34667,2.557333 -7.076,4.036 -0.73734,0.349333 -1.38267,0.821333 -1.88134,1.414667 l -6.12266,7.294666 c -2.064,2.452 -4.14534,6.581333 -4.65734,9.22 l -1.57866,8.142666 c -0.50667,2.641334 0.716,6.753338 2.74,9.182668 l 0.536,0.648"
         style="fill:#303133;fill-opacity:1;fill-rule:nonzero;stroke:none;stroke-width:0.133333" />
      <path
         id="path71"
         d="m 516.70532,65.59201 -10.38,-25.717333 c -1.82,-4.516 -6.72,-10.469333 -10.94133,-13.297333 l -5.54267,-3.714667 c -4.22133,-2.826666 -11.46,-6.806666 -16.18,-8.881333 L 453.26666,4.9920112 c -4.71467,-2.0746666 -12.392,-2.0493333 -17.15067,0.061333 L 399.16266,21.456011 c -4.75867,2.112 -10.08534,7.525333 -11.9,12.090666 l -5.616,14.141333 c -1.80934,4.558667 -3.884,12.148 -4.62267,16.949333 l -2.14267,13.84 c -0.744,4.8 1.968,11.114666 6.05067,14.103999 l 5.084,3.721334 c 4.08667,2.990666 11.57467,6.142664 16.72133,7.036004 l 44.05067,7.66133 c 5.152,0.89333 12.90533,-0.56133 17.31867,-3.24 l 47.91333,-29.136001 c 4.41466,-2.677333 6.512,-8.518666 4.68533,-13.031999"
         style="fill:#626567;fill-opacity:1;fill-rule:nonzero;stroke:none;stroke-width:0.133333" />
      <path
         id="path72"
         d="m 516.70532,65.59201 -10.38,-25.717333 c -1.82,-4.516 -7.49733,-8.778666 -12.67733,-9.525333 l -38.17733,-5.485333 c -5.18134,-0.744 -13.22,0.397333 -17.96134,2.549333 l -12.336,5.6 c -4.74,2.150666 -10.47333,7.433333 -12.81333,11.796 l -3.924,7.322666 c -2.33867,4.364 -2.37333,9.874666 -0.084,12.306666 2.28933,2.442667 7.02533,1.512 10.57067,-2.069333 3.552,-3.576 4.38,-3.014666 1.85333,1.264 l -2.632,4.448 c -2.52533,4.278667 -4.27867,11.233333 -3.91867,15.532 0.356,4.301333 2.132,5.865333 3.95867,3.497333 1.82667,-2.366667 5.716,-2.164 8.676,0.454666 l 5.372,4.74 16.43333,12.569338 c 4.01467,3.07466 11.46134,4.82 16.63734,3.904 l 36.02799,-6.39067 c 5.17067,-0.916 10.66134,-5.412001 12.26267,-10.042668 l 3.51733,-10.198666 c 1.60134,-4.628 1.42134,-12.041333 -0.40533,-16.554666"
         style="fill:#7f8283;fill-opacity:1;fill-rule:nonzero;stroke:none;stroke-width:0.133333" />
      <path
         id="path73"
         d="m 436.40399,38.293344 -5.74533,2.505333 c -4.77467,2.074667 -5.82934,5.497333 -2.34934,7.638666 3.472,2.137334 4.30667,7.368 1.85334,11.681334 l -1.532,2.699999 c -2.45334,4.310667 -1.60667,9.652 1.876,11.932 3.48933,2.277333 10.23866,3.797333 15.076,3.390667 4.83066,-0.405334 11.33066,-3.648 14.516,-7.241333 3.18533,-3.598667 8.01599,-5.118667 10.80133,-3.401334 2.78,1.716 4.29066,0.58 3.37066,-2.54 -0.924,-3.117333 -3.39866,-7.151999 -5.52933,-9.006666 -2.13733,-1.86 -2.7,-7.158667 -1.25733,-11.833333 l 0.108,-0.337333 c 1.43733,-4.672 -1.648,-8.589334 -6.896,-8.756 l -6.14,-0.196 c -5.24667,-0.166667 -13.37067,1.388 -18.152,3.464"
         style="fill:#9fa2a1;fill-opacity:1;fill-rule:nonzero;stroke:none;stroke-width:0.133333" />
      <path
         id="path74"
         d="m 402.04399,68.14801 0.42267,0.669333 c 2.616,4.166667 5.06266,11.446666 5.46933,16.266666 l 0.17867,2.198667 c 0.40666,4.82 -0.868,5.110666 -2.84534,0.652 l -3.41733,-7.714667 c -1.97867,-4.457333 -4.35333,-4.421333 -5.3,0.084 -0.94667,4.504 -1.972,5.08 -2.29333,1.278667 -0.31734,-3.793333 -1.692,-10.116 -3.068,-14.113333 -1.38,-3.993333 -0.608,-10.778666 1.72,-15.144 l 1.66266,-3.121333 c 2.328,-4.362666 3.91867,-3.990666 3.54667,0.84 l -0.14133,1.814667 c -0.372,4.834666 1.444,12.126666 4.06533,16.289333"
         style="fill:#7f8283;fill-opacity:1;fill-rule:nonzero;stroke:none;stroke-width:0.133333" />
      <path
         id="path75"
         d="m 479.28265,83.052009 3.62,4.961333 c 2.90267,3.996 2.15334,4.590667 -1.68666,1.333334 l -10.4,-8.837333 c -3.83867,-3.258667 -4.67333,-5.629334 -1.872,-5.290667 2.80133,0.337333 7.43066,3.841333 10.33866,7.833333"
         style="fill:#4c4e51;fill-opacity:1;fill-rule:nonzero;stroke:none;stroke-width:0.133333" />
      <path
         id="path76"
         d="m 487.66532,18.485344 8.45733,7.269333 c 3.812,3.284 7.972,9.726667 9.28534,14.398667 l 1.752,6.238666 c 1.32,4.669333 -0.34267,11.5 -3.70934,15.254666 l -0.348,0.394667 c -3.36666,3.754667 -7.792,7.844 -9.888,9.134667 -2.09866,1.289333 -4.72,-1.482667 -5.85866,-6.192 l -5.648,-23.348 c -1.14534,-4.708 -5.84667,-10.297333 -10.50267,-12.475999 l -19.25333,-9.012 c -4.656,-2.181333 -12.12667,-1.950667 -16.68133,0.52 l -12.82,6.933333 c -4.55467,2.468 -12.3,3.306667 -17.29467,1.874667 l -5.564,-1.601334 c -4.99467,-1.428 -5.328,-4.552 -0.74,-6.968 l 7.132,-3.751999 c 4.58933,-2.418667 12.41333,-5.473334 17.48267,-6.826667 l 12.16533,-3.2586665 c 5.06267,-1.3493333 13.29867,-1.5386666 18.39467,-0.4173333 l 17.51733,3.8653328 c 5.08933,1.121334 12.31066,4.689334 16.12133,7.968"
         style="fill:#9fa2a1;fill-opacity:1;fill-rule:nonzero;stroke:none;stroke-width:0.133333" />
      <path
         id="path77"
         d="m 396.90799,31.717344 4.216,4.258666 c 3.51867,3.550667 3.924,5.205334 0.91467,3.704 -3.01067,-1.505333 -5.75734,-1.886666 -6.12934,-0.842666 -0.37066,1.034666 -3.22933,5.054666 -6.38133,8.959999 l -2.84133,3.521334 c -3.15067,3.912 -4.59467,10.851999 -3.21334,15.505333 l 4.256,14.387999 c 1.38134,4.653334 0.67734,4.904 -1.568,0.554667 l -1.68933,-3.286667 c -2.24533,-4.341333 -4.48133,-4.386666 -5.00667,-0.09067 -0.51866,4.293333 2.25467,10.330666 6.19067,13.479999 l 2.836,2.272 c 3.94,3.150667 7.564,5.769334 8.09467,5.854667 0.52933,0.07601 0.82266,-3.781333 0.648,-8.609333 l -0.0173,-0.42 c -0.17333,-4.834667 1.612,-5.273333 3.98134,-0.989334 l 1.736,3.129334 c 2.368,4.281333 6.65733,8.064008 9.572,8.448008 2.91466,0.36933 6.50533,-1.464 8.01733,-4.101342 1.50533,-2.641333 4.73467,-2.084 7.20933,1.248 2.48134,3.332002 8.68267,6.661342 13.85734,7.441342 l 7.63866,1.14533 c 5.16934,0.784 11.372,-2.072 13.852,-6.37333 l 1.22934,-2.134675 c 2.47333,-4.301333 5.75466,-4.52 7.32799,-0.493333 1.57334,4.033338 7.01334,6.452008 12.16,5.398668 l 14.696,-3.00133 c 5.14267,-1.054672 9.93467,-5.796005 10.696,-10.593338 l 1.556,-9.794667 c 0.76667,-4.794666 0.784,-12.561333 0.044,-17.345333 l -1.65733,-10.771999 c -0.73867,-4.784 0.14133,-4.998667 1.96933,-0.482667 l 5.60267,13.896 c 1.82667,4.513333 2.49733,12.033333 1.5,16.799999 l -2.73467,13.078667 c -0.99733,4.761338 -5.992,9.389338 -11.16266,10.334668 l -40.928,7.47467 c -5.16933,0.94667 -13.48,0.192 -18.73333,0.34933 -33.38534,0.97867 -53.87734,-7.84133 -53.87734,-7.84133 -5.176,-0.756 -11.01066,-4.96133 -13.03466,-9.401338 l -0.536,-1.184 c -2.024,-4.436 -3.24667,-11.948 -2.74,-16.770667 l 1.57866,-14.874666 c 0.512,-4.82 2.59334,-12.36 4.65734,-16.842666 l 6.12266,-13.322666 c 2.06267,-4.477334 6.57734,-5.229334 10.09067,-1.674667"
         style="fill:#4c4e51;fill-opacity:1;fill-rule:nonzero;stroke:none;stroke-width:0.133333" />
      <path
         id="path78"
         d="m 509.08399,46.526677 -2.724,-6.666667 c -1.64134,-4.013333 -3.856,-7.906666 -5.27067,-9.353333 -0.80133,-1.525333 -2.20933,-3.52 -4.01467,-5.569333 l -7.00133,-7.957333 C 486.78665,13.242678 480.00399,9.2773444 474.91999,8.1173445 l -20.984,-4.7879999 c -5.084,-1.156 -13.32133,-1.04 -18.4,0.2613333 l -11.36,2.9173333 c -5.084,1.3 -12.668,4.6853328 -16.93467,7.5573328 l -8.95866,6.021334 c -4.27334,2.869333 -3.568,4.334666 1.57333,3.274666 l 19.224,-3.968 c 5.14133,-1.066666 5.91867,-1.646666 1.74267,-1.302666 -4.184,0.344 -6.93467,-0.749334 -6.152,-2.449334 0.77866,-1.692 5.57066,-3.994666 10.68933,-5.141333 l 11.1,-2.4746665 c 5.12,-1.1506667 13.36667,-1.0373333 18.41333,0.2426666 l 16.09467,4.0693329 c 5.04533,1.277334 12.04133,5.149334 15.62133,8.645333 l 7.244,7.076 c 2.34533,2.288 1.86667,15.617333 3.39333,16.345333 0.232,1.082667 3.38267,-9.201333 3.93467,-7.676 l 3.56933,9.905334 c 1.64667,4.569333 0.58667,11.393333 -2.36666,15.241332 -2.96,3.850667 -2.31734,4.177334 1.42533,0.736 l 1.844,-1.689333 c 3.748,-3.441333 5.29333,-9.882666 3.45067,-14.394666"
         style="fill:#e9e9e7;fill-opacity:1;fill-rule:nonzero;stroke:none;stroke-width:0.133333" />
      <path
         id="path79"
         d="m 485.02799,65.793343 -3.00534,-5.28 c -2.42933,-4.265333 -3.996,-11.626666 -3.5,-16.453333 l 0.22534,-2.218666 c 0.48933,-4.825334 1.81466,-4.913334 2.96,-0.205334 l 5.648,23.348 c 1.13866,4.709333 0.096,5.073333 -2.328,0.809333"
         style="fill:#4c4e51;fill-opacity:1;fill-rule:nonzero;stroke:none;stroke-width:0.133333" />
      <path
         id="path80"
         d="m 424.53199,25.140011 10.64267,-5.832 c 4.544,-2.490667 11.94,-2.632 16.524,-0.321333 l 19.64666,9.935999 c 4.584,2.312 4.46533,2.52 -0.264,0.466667 l -18.60933,-8.088 c -4.73067,-2.054666 -12.25733,-1.728 -16.81733,0.734667 l -11.92934,6.428 c -4.56133,2.464 -12.28533,3.228 -17.25066,1.702666 l -6.94,-2.128 c -4.96667,-1.522666 -4.80934,-2.046666 0.344,-1.176 l 7.092,1.201334 c 5.15866,0.870666 13.01733,-0.437334 17.56133,-2.924"
         style="fill:#e9e9e7;fill-opacity:1;fill-rule:nonzero;stroke:none;stroke-width:0.133333" />
    </g>
  </g>
</svg>
