<?xml version="1.0" encoding="UTF-8" standalone="no"?>
<!-- Created with Inkscape (http://www.inkscape.org/) -->

<svg
   version="1.1"
   id="svg1"
   width="144.32156"
   height="86.200752"
   viewBox="0 0 144.32156 86.200752"
   xmlns="http://www.w3.org/2000/svg"
   xmlns:svg="http://www.w3.org/2000/svg">
  <defs
     id="defs1" />
  <g
     id="layer4"
     transform="translate(-184.72826,-195.06773)">
    <g
       id="g104">
      <path
         id="path5"
         d="m 256.02133,280.776 c 5.764,0.57867 15.132,0.65867 20.924,0.18 l 20.81733,-1.716 c 5.788,-0.47866 12.61067,-2.628 15.232,-4.80133 2.48533,-2.06 2.152,-2.86667 8.99733,-5.25867 1.34134,-0.36533 2.568,-0.712 3.592,-1.01466 0.35334,-0.108 0.672,-0.22667 0.972,-0.35467 3.37467,-1.42267 3.34934,-4.1 -0.27333,-6.27467 l -6.42667,-3.852 c -3.94666,-2.368 -9.748,-6.46399 -12.956,-9.14666 l -3.70933,-3.096 c -0.33867,-0.284 -0.73067,-0.57067 -1.152,-0.856 -0.005,-0.004 -0.0107,-0.008 -0.0173,-0.012 -0.14534,-0.0987 -0.29734,-0.19733 -0.452,-0.29733 -5.788,-3.844 -12.49467,-4.928 -12.49467,-4.928 0,0 0.007,0.005 0.008,0.005 -0.64667,-0.14133 -1.28533,-0.26533 -1.90267,-0.36133 l -18.47866,-2.88267 c -5.632,-0.87867 -14.884,-1.15067 -20.65734,-0.60933 l -17.9,1.68666 c -5.77333,0.54267 -14.16933,2.60267 -18.752,4.59867 l -6.01066,2.62133 c -4.584,1.996 -10.39067,5.95067 -12.96933,8.82934 l -6.60667,7.37733 c -0.16133,0.18 -0.30267,0.36133 -0.42533,0.544 -1.17067,1.728 -0.71067,3.59333 1.016,5.06133 -0.003,-0.001 -0.0187,-0.008 -0.0187,-0.008 0,0 0.804,1.684 3.75333,2.69467 l 12.76667,4.37333 c 4.968,1.70133 13.664,3.548 19.42666,4.12533 l 33.69734,3.372"
         style="fill:#303133;fill-opacity:1;fill-rule:nonzero;stroke:none;stroke-width:0.133333" />
      <path
         id="path47"
         d="m 185.80533,241.44667 6.60667,-13.47466 c 2.57866,-5.25867 8.38533,-12.48 12.96933,-16.128 l 6.01066,-4.78667 c 4.58267,-3.64667 12.97867,-7.408 18.752,-8.4 l 17.9,-3.08 c 5.77334,-0.99067 15.02534,-0.49333 20.65734,1.11333 l 18.47866,5.26267 c 5.63334,1.60667 12.804,6.88 16.01067,11.77867 l 3.77733,5.768 c 3.21334,4.89866 9.01467,12.37733 12.96667,16.704 l 6.336,6.93066 c 3.952,4.32934 3.648,9.748 -0.68667,12.104 -4.336,2.36 -12.252,6.04533 -17.68533,8.24 l -31.604,12.74133 c -5.43467,2.192 -14.33067,2.42534 -19.87333,0.52934 l -65.248,-22.34534 c -5.54533,-1.89466 -7.94533,-7.69999 -5.368,-12.95733"
         style="fill:#626567;fill-opacity:1;fill-rule:nonzero;stroke:none;stroke-width:0.133333" />
      <path
         id="path48"
         d="m 211.39199,207.05734 -6.01066,4.78667 c -4.584,3.648 -3.752,7.97466 1.856,9.66266 l 28.004,8.428 c 5.60933,1.692 14.852,2.33734 20.64133,1.44934 l 23.63867,-3.62534 c 5.79066,-0.888 10.98533,-5.98933 11.60266,-11.396 0.61734,-5.40133 -3.36266,-11.35466 -8.89066,-13.29066 l -15.04,-5.268 c -5.52934,-1.94 -14.696,-2.74 -20.48,-1.79334 l -16.556,2.72267 c -5.78134,0.948 -14.18267,4.67733 -18.76534,8.324"
         style="fill:#9fa2a1;fill-opacity:1;fill-rule:nonzero;stroke:none;stroke-width:0.133333" />
      <path
         id="path49"
         d="m 185.80533,241.44667 6.60667,-13.47466 c 2.57866,-5.25867 9.21733,-8.15334 14.82533,-6.46534 l 28.004,8.428 c 5.60933,1.692 11.30666,6.892 12.72133,11.62134 1.41733,4.72933 6.02933,5.31733 10.304,1.308 l 7.37333,-6.912 c 4.26934,-4.008 7.10267,-2.54667 6.32534,3.26 l -4.096,30.46133 c -0.78134,5.80666 -6.016,9.344 -11.69334,7.904 l -29.888,-7.59067 c -5.67866,-1.44267 -14.57733,-4.63467 -19.87866,-7.12533 l -15.676,-7.37734 c -5.29867,-2.49066 -7.50533,-8.77999 -4.928,-14.03733"
         style="fill:#7f8283;fill-opacity:1;fill-rule:nonzero;stroke:none;stroke-width:0.133333" />
      <path
         id="path50"
         d="m 298.92933,223.30001 c 2.11466,5.40533 5.672,10.908 7.94933,12.28133 2.272,1.36933 6.02533,5.288 8.37733,8.75067 2.356,3.46533 6.75867,11.84799 1.944,14.07733 -2.27066,1.05733 4.048,-0.81067 8.384,-3.17067 4.33467,-2.356 4.644,-7.78 0.69867,-12.10666 l -6.42667,-7.03467 c -3.94666,-4.328 -9.748,-11.808 -12.956,-16.708 l -3.70933,-5.65733 c -6.072,-8.77467 -14.116,-11.128 -14.116,-11.128 0,0 3.808,5.528 4.59733,7.436 l 1.42667,3.456 c 0,0 1.71333,4.39066 3.83067,9.804"
         style="fill:#4c4e51;fill-opacity:1;fill-rule:nonzero;stroke:none;stroke-width:0.133333" />
      <path
         id="path51"
         d="m 323.17066,256.35467 -25.32933,8.73333 c -5.64267,1.57734 -10.216,1.29867 -10.216,-0.63466 0,-1.928 -3.76,-0.59467 -8.4,2.98266 l -4.576,3.528 c -4.64134,3.572 -12.968,5.16134 -18.59734,3.54667 l -14.73066,-4.22533 c -5.62934,-1.61867 -7.35467,-5.096 -3.848,-7.76534 3.50133,-2.67333 1.73066,-3.716 -3.96267,-2.33733 l -4.608,1.12533 c -5.692,1.37734 -14.8,0.96134 -20.34,-0.93866 L 191.172,254.40667 c -2.256,-0.772 -4.79467,-2.73733 -4.79467,-2.73733 0,0 0.804,3.07866 3.75333,4.92533 l 12.76667,7.988 c 4.968,3.10667 13.664,6.47733 19.42666,7.53467 l 33.69734,6.15866 c 5.764,1.05734 15.132,1.20134 20.924,0.33067 l 20.81733,-3.13733 c 5.788,-0.87334 12.61067,-4.79867 15.232,-8.76934 2.62133,-3.972 2.092,-5.384 10.176,-10.34533"
         style="fill:#4c4e51;fill-opacity:1;fill-rule:nonzero;stroke:none;stroke-width:0.133333" />
      <path
         id="path52"
         d="m 206.97599,222.27067 25.14267,9.71867 c 5.46267,2.10933 11.79867,7.024 14.152,10.976 2.348,3.94933 4.256,4.06267 4.256,0.24933 0,-3.81733 4.508,-8.40933 10.06533,-10.25866 l 2.72,-0.904 c 5.55867,-1.852 10.38934,0.86533 10.79067,6.068 0.39867,5.204 1.22267,6.152 1.84133,2.11066 0.62134,-4.03866 3.88,-7.71066 7.28667,-8.196 3.40933,-0.488 7.44133,1.20934 9.01867,3.78934 1.576,2.57466 2.144,1.684 1.276,-1.99334 -0.87067,-3.676 -1.51067,-11.26666 -1.428,-16.95466 0.0813,-5.68534 -0.98267,-5.81867 -2.37734,-0.296 -1.39066,5.51866 -4.788,10.34666 -7.588,10.77333 -2.8,0.428 -5.06533,0.10133 -5.06533,-0.73067 0,-0.832 -4.612,-0.364 -10.29467,1.05067 l -11.08133,2.76 c -5.684,1.416 -14.84,1.19333 -20.44933,-0.49867 l -28.004,-8.428 c -5.608,-1.688 -5.72534,-1.34133 -0.26134,0.764"
         style="fill:#e9e9e7;fill-opacity:1;fill-rule:nonzero;stroke:none;stroke-width:0.133333" />
    </g>
  </g>
</svg>
