<?xml version="1.0" encoding="UTF-8" standalone="no"?>
<!-- Created with Inkscape (http://www.inkscape.org/) -->

<svg
   version="1.1"
   id="svg1"
   width="144.32109"
   height="117.09193"
   viewBox="0 0 144.32109 117.09193"
   xmlns="http://www.w3.org/2000/svg"
   xmlns:svg="http://www.w3.org/2000/svg">
  <defs
     id="defs1" />
  <g
     id="layer1"
     transform="translate(-184.72841,0.0066371)">
    <g
       id="g101">
      <path
         id="path9"
         d="m 189.48266,103.35334 12.08533,6.30267 c 3.82934,1.99733 11.19067,3.892 16.44267,4.23867 l 45.824,3 c 5.252,0.344 13.728,0.20933 18.932,-0.29867 l 17.45333,-1.70667 c 5.204,-0.508 12.188,-2.71733 15.59334,-4.932 l 8.508,-5.52666 c 3.404,-2.216 5.42266,-6.322671 4.508,-9.173338 l -2.82934,-8.797333 c -0.912,-2.852 -4.31733,-7.005333 -7.59866,-9.276 l -11.13334,-7.705333 c -1.34133,-0.929333 -2.884,-1.424 -4.392,-1.513333 -1.58666,-1.16 -3.58533,-2.293333 -5.67466,-3.216 -0.0987,-0.122667 -0.204,-0.242667 -0.31334,-0.361333 0.97867,-0.261334 0.10934,-1.216 -2.58666,-2.582667 l -4.88534,-2.473333 c -3.88133,-1.966667 -11.244,-3.984 -16.448,-4.509333 l -11.63066,-1.169334 c -5.204,-0.525333 -13.468,-0.182666 -18.468,0.761334 l -20.63067,3.905333 c -4.99733,0.945333 -11.46533,3.649333 -14.44533,6.041333 l -6.35467,5.098667 c -1.56133,1.254666 -2.53466,2.381333 -2.83733,3.172 -0.088,0.024 -0.188,0.03333 -0.26267,0.068 -0.508,0.241333 -0.63333,0.656 -0.45733,1.156 -2,1.646666 -3.67067,3.462666 -4.46,4.978666 L 185.172,94.696009 c -0.936,1.796 -0.336,3.969333 1.328,5.764001 0.48266,1.09067 1.48133,2.10933 2.98266,2.89333"
         style="fill:#303133;fill-opacity:1;fill-rule:nonzero;stroke:none;stroke-width:0.133333" />
      <path
         id="path81"
         d="m 185.172,75.410676 8.24933,-28.971999 c 1.44933,-5.088 5.86,-12.021333 9.852,-15.489333 l 5.24666,-4.557333 c 3.992,-3.464 10.91734,-8.461333 15.46934,-11.153333 l 19.692,-11.6506667 c 4.54933,-2.69466664 12.12,-3.0613333 16.912,-0.82 l 32.06133,15.0093327 c 4.792,2.241334 10.45067,7.961333 12.63867,12.772 l 21.22533,46.602665 c 2.19467,4.812 0.852,11.661333 -2.99333,15.292 l -4.78,4.516 c -3.84534,3.630671 -10.99867,8.002671 -15.988,9.761331 l -20.38534,7.18667 c -4.98666,1.76267 -13.06533,1.74267 -18.04666,-0.0387 l -72.76,-26.022664 c -4.98,-1.784 -7.84267,-7.350667 -6.39333,-12.436"
         style="fill:#626567;fill-opacity:1;fill-rule:nonzero;stroke:none;stroke-width:0.133333" />
      <path
         id="path82"
         d="m 254.91599,68.509343 -3.20666,5.734666 c -2.58267,4.616 -1.776,5.2 1.79466,1.298667 l 9.68934,-10.582666 c 3.57466,-3.897334 4.21333,-6.554667 1.43066,-5.932 -2.784,0.62 -7.132,4.864 -9.708,9.481333"
         style="fill:#4c4e51;fill-opacity:1;fill-rule:nonzero;stroke:none;stroke-width:0.133333" />
      <path
         id="path83"
         d="m 185.172,75.410676 8.24933,-28.971999 c 1.44933,-5.088 6.38133,-7.148 11.016,-4.605333 l 28.15466,15.449333 c 4.63334,2.542666 9.4,8.771999 10.644,13.913333 l 0.73734,3.038666 c 1.24666,5.138667 5.052,6.057333 8.508,2.054667 L 263.31999,63.71201 c 3.452,-4.005333 6.51867,-2.973334 6.84534,2.302666 l 0.26133,4.181334 c 0.32933,5.275999 4.712,8.974666 9.788,8.261333 5.07733,-0.716 9.192,2.528 9.192,7.246666 0,4.718667 -1.64533,6.588 -3.67467,4.174667 -2.02933,-2.413334 -5.91066,-1.837334 -8.66266,1.286666 -2.75067,3.122667 -4.71867,9.937338 -4.388,15.214668 l 0.0707,1.15867 c 0.32667,5.276 -3.64666,8.89333 -8.86933,8.06933 l -42.29867,-6.64 c -5.22533,-0.824 -12.85066,-4.10933 -17.03466,-7.34667 l -14.424,-11.145331 c -4.184,-3.234666 -6.40267,-9.98 -4.95333,-15.065333"
         style="fill:#7f8283;fill-opacity:1;fill-rule:nonzero;stroke:none;stroke-width:0.133333" />
      <path
         id="path84"
         d="m 210.32933,21.430677 -7.864,8.693334 c -3.54667,3.923999 -3.81467,8.534666 -0.6,10.297333 3.21733,1.764 5.50533,7.471999 5.112,12.746666 l -1.076,14.442666 c -0.392,5.273334 1.07866,10.533333 3.28533,11.745333 2.21067,1.212 5.79467,-1.698666 8.00533,-6.505333 l 4.82134,-10.474666 c 2.21066,-4.806667 7.35333,-6.858667 11.48533,-4.592 4.132,2.264 11.696,3.306666 16.89067,2.317333 l 26.76933,-5.078666 c 5.196,-0.989334 11.23067,-5.666667 13.484,-10.453333 l 6.612,-14.068 c 2.24933,-4.786667 0.63067,-11.221333 -3.61333,-14.374666 l -2.556,-1.9 C 286.83866,11.072011 279.19199,7.6946778 273.99999,6.6840112 l -12.46933,-2.44 c -5.188,-1.0106666 -13.46133,-0.4639999 -18.47067,1.2213333 l -17.23333,5.8039995 c -5.01333,1.688 -11.94933,6.237334 -15.49733,10.161333"
         style="fill:#9fa2a1;fill-opacity:1;fill-rule:nonzero;stroke:none;stroke-width:0.133333" />
      <path
         id="path85"
         d="m 242.09066,27.118677 -7.29467,4.826667 c -4.41066,2.917333 -3.90266,3.968 1.13334,2.353333 l 6.07733,-1.953333 c 5.03467,-1.618667 13.16,-1.508 18.14933,0.248 l 4.15334,1.457333 c 4.98933,1.756 5.45733,0.812 1.048,-2.105333 l -7.29467,-4.826667 c -4.412,-2.917333 -11.56267,-2.917333 -15.972,0"
         style="fill:#7f8283;fill-opacity:1;fill-rule:nonzero;stroke:none;stroke-width:0.133333" />
      <path
         id="path86"
         d="m 297.25466,30.501344 -0.48,1.014667 c -2.248,4.786666 -2.24267,12.543999 0.0173,17.323999 l 3.412,7.225333 c 2.25467,4.782667 4.172,4.374667 4.27867,-0.913333 l 0.16933,-8.352 c 0.10667,-5.288 1.58267,-5.522666 3.308,-0.521333 l 4.392,12.734666 c 1.72534,5.001333 2.824,13.330667 2.46934,18.606666 l -0.20267,2.906667 c -0.36133,5.278667 0.85733,8.030666 2.72267,6.146667 1.86133,-1.88 3.856,-1.986667 4.45866,-0.244 0.59734,1.741333 -1.92666,5.867999 -5.65333,9.213333 -3.72133,3.346666 -10.876,7.169334 -15.984,8.536004 l -7.93067,2.12533 c -5.108,1.36933 -8.992,-0.10133 -8.67333,-3.284 0.31867,-3.180001 -1.84133,-2.80533 -4.82,0.84 -2.98,3.644 -7.688,6.948 -10.51467,7.376 -2.82666,0.42933 -5.65733,-3.472 -6.32266,-8.72133 l -0.484,-3.816004 c -0.66267,-5.248 -2.50934,-5.417334 -4.124,-0.38 l -0.968,3.024004 c -1.61467,5.03466 -7.15334,8.43733 -12.37334,7.59866 l -16.69466,-2.67333 c -5.22134,-0.84133 -9.24134,-2.89867 -8.98134,-4.604 0.26267,-1.705334 2.53334,-3.554668 5.072,-4.129334 2.53867,-0.58 4.59867,-3.946667 4.59867,-7.52 0,-3.574667 -0.692,-4.513333 -1.54667,-2.094667 -0.852,2.416 -2.608,4.688 -3.92266,5.076 -1.30934,0.386667 -1.84934,-3.557333 -1.204,-8.805333 l 0.092,-0.776 c 0.64666,-5.246667 -0.644,-5.617333 -2.87734,-0.825333 l -4.52,9.687999 c -2.23466,4.794667 -7.09733,5.669334 -10.86133,1.950667 l -6.028,-5.953333 c -3.764,-3.714667 -5.132,-10.669333 -3.056,-15.533333 l 0.61467,-1.44 c 2.076,-4.865333 1.26,-5.322667 -1.81867,-1.021333 l -4.69466,6.554666 c -3.07734,4.3 -2.47067,10.744 1.35866,14.388 l 12.08533,11.513334 c 3.82934,3.64667 11.19067,7.11067 16.44267,7.74267 l 45.824,5.48 c 5.252,0.628 13.728,0.38266 18.932,-0.548 l 17.45333,-3.11467 c 5.204,-0.92933 12.188,-4.964 15.59334,-9.008 l 8.508,-10.096001 c 3.404,-4.045333 5.42266,-11.549333 4.508,-16.756 l -2.82934,-16.069332 c -0.912,-5.206667 -4.31733,-12.794667 -7.59866,-16.944 L 307.26799,29.348011 c -3.28133,-4.148 -7.764,-3.633334 -10.01333,1.153333"
         style="fill:#4c4e51;fill-opacity:1;fill-rule:nonzero;stroke:none;stroke-width:0.133333" />
      <path
         id="path87"
         d="m 296.70266,30.217344 -8.37733,15.173333 c -2.556,4.628 -6.94534,8.82 -9.804,9.366666 l -5.17867,0.984 -22.95333,4.36 c -5.19467,0.986667 -5.136,1.386667 0.13066,0.897333 l 6.93334,-0.649333 c 5.26533,-0.493333 6.73733,2.357333 3.28133,6.362667 l -8.25333,9.577333 c -3.456,4.002666 -3.23067,4.214666 0.50133,0.465333 l 10.232,-10.274666 c 3.732,-3.745334 10.19333,-7.186667 14.43333,-7.684 4.24134,-0.493333 9.12134,2.12 10.90134,5.841333 1.77866,3.721333 2.50133,2.965333 1.61066,-1.689333 -0.888,-4.650667 -0.048,-12.413333 1.87734,-17.34 l 5.804,-14.855999 c 1.928,-4.924 1.41466,-5.164 -1.13867,-0.534667"
         style="fill:#e9e9e7;fill-opacity:1;fill-rule:nonzero;stroke:none;stroke-width:0.133333" />
      <path
         id="path88"
         d="m 205.27599,39.918677 c -2.564,-3.686667 -5.67066,-5.784 -6.93733,-4.684 -1.268,1.101333 -0.24666,4.132 2.27867,6.770667 2.524,2.641333 4.572,9.063999 4.572,14.353333 v 11.226666 c 0,5.290667 0.65733,5.338667 1.464,0.113333 l 1.80266,-11.642666 c 0.80934,-5.225333 -0.61466,-12.453333 -3.18,-16.137333"
         style="fill:#e9e9e7;fill-opacity:1;fill-rule:nonzero;stroke:none;stroke-width:0.133333" />
      <path
         id="path89"
         d="m 199.51333,37.226677 c -1.916,0 -1.05333,-3.54 1.92533,-7.909333 l 6.35467,-9.316 c 2.98,-4.369333 9.448,-9.306666 14.44533,-11.0346662 L 242.86933,1.834678 c 5,-1.72399999 13.264,-2.35066664 18.468,-1.392 l 11.63066,2.1373333 c 5.204,0.9573333 12.56667,4.6453332 16.448,8.2359997 l 4.88534,4.518667 c 3.88,3.590666 3.98533,5.633333 0.23066,4.568 -3.75466,-1.068 -11.028,-1.22 -16.24266,-0.344 l -11.63467,1.962666 c -5.216,0.878667 -6.21333,4.416 -2.232,7.897333 l 1.71333,1.502667 c 3.98,3.481333 3.444,4.245333 -1.19066,1.705333 l -5.91067,-3.234666 c -4.63733,-2.541334 -12.2,-2.62 -16.88667,-0.169334 l -6.848,3.573334 c -4.68666,2.450666 -4.95066,2.009333 -0.58533,-0.977334 l 7.94533,-5.434666 c 4.36667,-2.985334 12.12667,-6.157333 17.33334,-7.078667 l 15.51733,-2.750666 c 5.20533,-0.922667 8.676,-3.109334 7.752,-4.882667 -0.928,-1.7719999 -5.92,-3.8453332 -11.152,-4.6253332 L 260.77999,5.3560112 c -5.22933,-0.7813333 -13.48533,0.090667 -18.43466,1.9453333 l -15.79067,5.9039995 c -4.952,1.854667 -11.44133,6.856 -14.49333,11.176 l -3.55467,5.026667 c -3.05067,4.318666 -7.07733,7.818666 -8.99333,7.818666"
         style="fill:#e9e9e7;fill-opacity:1;fill-rule:nonzero;stroke:none;stroke-width:0.133333" />
      <path
         id="path90"
         d="m 214.94933,72.137343 1.15866,-6.198667 c 0.972,-5.197333 3.584,-10.051999 5.83467,-10.834666 2.25067,-0.786667 2.28133,2.465333 0.0707,7.272 l -4.82134,10.474666 c -2.21066,4.806667 -3.216,4.484 -2.24266,-0.713333"
         style="fill:#4c4e51;fill-opacity:1;fill-rule:nonzero;stroke:none;stroke-width:0.133333" />
      <path
         id="path91"
         d="m 299.04799,76.504009 c 0.23067,3.888 -0.392,10.434667 -1.392,14.626667 -1.004,4.196 -0.13066,6.905333 1.95467,6.054666 2.08133,-0.849333 5.08533,-2.976 6.704,-4.749333 1.62267,-1.776 2.93733,-6.593333 2.93733,-10.762666 v -7.542667 c 0,0 0,-2.438666 0,-5.449333 0,-3.010667 -0.688,-3.573333 -1.53866,-1.256 -0.852,2.310667 -3.22534,3.709333 -5.312,3.117333 -2.07867,-0.598666 -3.58134,2.074667 -3.35334,5.961333"
         style="fill:#7f8283;fill-opacity:1;fill-rule:nonzero;stroke:none;stroke-width:0.133333" />
      <path
         id="path92"
         d="m 269.52666,46.67601 -6.904,-0.558666 c -5.27067,-0.425334 -11.92,0.166666 -14.85467,1.327999 -2.932,1.156 -2.99333,1.844 -0.136,1.533334 2.85334,-0.310667 9.43867,-0.166667 14.704,0.318666 l 8.316,0.761334 c 5.268,0.484 11.69734,-2.822667 14.36667,-7.388 l 0.676,-1.161333 c 2.66933,-4.566667 2.26667,-5.085334 -0.896,-1.164 -3.16267,3.92 -10.004,6.753333 -15.272,6.330666"
         style="fill:#e9e9e7;fill-opacity:1;fill-rule:nonzero;stroke:none;stroke-width:0.133333" />
    </g>
  </g>
</svg>
