<?xml version="1.0" encoding="UTF-8" standalone="no"?>
<!-- Created with Inkscape (http://www.inkscape.org/) -->

<svg
   version="1.1"
   id="svg1"
   width="174.98924"
   height="112.89382"
   viewBox="0 0 174.98924 112.89382"
   xmlns="http://www.w3.org/2000/svg"
   xmlns:svg="http://www.w3.org/2000/svg">
  <defs
     id="defs1" />
  <g
     id="layer7"
     transform="translate(-158.06133,-339.08707)">
    <g
       id="g108">
      <path
         id="path2"
         d="m 328.84799,423.06947 c -0.28666,-0.65107 -0.57466,-1.28694 -0.86133,-1.91507 -0.0453,-0.0959 -0.088,-0.18747 -0.13067,-0.28133 -0.268,-0.5796 -0.536,-1.14787 -0.80666,-1.70774 -0.0173,-0.036 -0.0347,-0.0719 -0.0533,-0.10786 -28.56933,-59.06667 -69.66533,-0.50147 -72.7,3.1652 -0.009,0.0119 -0.0173,0.0197 -0.0253,0.0323 -0.009,0.0104 -0.02,0.0224 -0.028,0.0328 -30.57733,-5.712 -43.84667,8.09734 -48.50667,15.1948 -1.384,2.11094 -0.476,5.49476 2.27067,7.15987 20.612,12.50833 67.06533,5.34531 85.30133,-4.6516 0.0133,-0.008 0.0227,-0.0135 0.036,-0.0213 0.54267,-0.29734 1.072,-0.588 1.57867,-0.86974 0.0373,-0.0209 0.0707,-0.0412 0.10933,-0.06 0.48267,-0.27026 0.956,-0.53426 1.40267,-0.7864 0.48267,-0.27186 0.94533,-0.536 1.38533,-0.7864 0.62134,-0.35786 1.128,-0.7272 1.51867,-1.0964 4.08933,-3.86666 -2.672,-7.2344 -2.648,-7.22133 -0.26667,-0.14533 -0.52667,-0.27707 -0.792,-0.4188 0.14933,0.0151 0.3,0.0308 0.44933,0.0453 1.42267,0.14014 2.83067,0.2588 4.21867,0.35214 0.0147,0.001 0.028,0.003 0.0413,0.004 v 0 c 8.996,0.612 17.10534,-1.0052 22.59734,-1.3932 3.556,-0.25213 5.944,-1.96573 5.84266,-3.85213 -0.0147,-0.2708 -0.08,-0.54427 -0.2,-0.8172"
         style="fill:#303133;fill-opacity:1;fill-rule:nonzero;stroke:none;stroke-width:0.133333" />
      <path
         id="path11"
         d="m 202.85333,401.18147 c -2.74934,6.03586 -4.34533,13.70253 -4.76667,22.21453 -3.88933,2.9948 -8.57733,5.19853 -13.288,6.112 -8.74,-11.6932 -18.05733,-21.164 -26.73733,-26.93853 6.21467,0.40266 14.18133,5.15733 22.252,12.912 -2.60267,-6.5896 -7.5,-21.2068 -6.26133,-26.06667 1.22266,4.84533 7.476,18.45053 10.348,23.6224 -1.088,-10.4308 -0.0533,-19.08547 3.20533,-24.024 -0.56133,9.824 0.95867,22.05627 4.608,35.22133 1.08667,-10.80413 4.96,-19.3348 10.64,-23.05306"
         style="fill:#adc766;fill-opacity:1;fill-rule:nonzero;stroke:none;stroke-width:0.133333" />
      <path
         id="path12"
         d="m 332.80533,412.86533 c 1.16133,4.83747 -1.91467,9.7 -6.84267,10.34014 -18.388,2.37026 -60.89733,3.08226 -83.76933,-35.35107 0,0 54.60133,-124.86773 90.612,25.01093"
         style="fill:#626567;fill-opacity:1;fill-rule:nonzero;stroke:none;stroke-width:0.133333" />
      <path
         id="path13"
         d="m 263.37333,373.2184 c 0,0 37.76133,-4.70626 32.67066,-27.24266 -5.09333,-22.5224 -51.28133,25.49733 -32.67066,27.24266"
         style="fill:#9fa2a1;fill-opacity:1;fill-rule:nonzero;stroke:none;stroke-width:0.133333" />
      <path
         id="path14"
         d="m 269.87733,363.1788 c -4.93467,-1.752 8.63333,-16.92386 13.54666,-17.20306 10.28134,-0.57867 0.51334,22.20826 -13.54666,17.20306"
         style="fill:#e9e9e7;fill-opacity:1;fill-rule:nonzero;stroke:none;stroke-width:0.133333" />
      <path
         id="path15"
         d="m 256.74666,402.7012 c 8.56533,5.24013 18.65333,11.5428 29.104,18.136 15.75067,4.3016 30.932,3.5416 40.112,2.36147 4.928,-0.63334 8.004,-5.4984 6.84267,-10.33334 -5.85867,-24.35053 -12.20267,-41.42133 -18.716,-52.98026 -2.756,18.3604 -13.964,60.72293 -40.83467,36.45213 -7.54667,-6.8172 -7.20533,6.064 -16.508,6.364"
         style="fill:#4c4e51;fill-opacity:1;fill-rule:nonzero;stroke:none;stroke-width:0.133333" />
      <path
         id="path16"
         d="m 282.38533,406.04547 c -11.30534,-13.6484 -26.06934,-23.82547 -34.69734,-29.1228 -3.492,6.35307 -5.49466,10.93173 -5.49466,10.93173 4.49733,7.55467 9.75866,13.576 15.44266,18.388 17.98667,6.112 32.58,9.24533 24.74934,-0.19693"
         style="fill:#4c4e51;fill-opacity:1;fill-rule:nonzero;stroke:none;stroke-width:0.133333" />
      <path
         id="path17"
         d="m 259.60799,377.32107 c -2.096,0.0177 2.94267,5.95467 8.94267,6.98013 8.72267,1.49067 31.21067,-7.764 35.87333,-32.83066 0,0 -9.75066,25.5188 -44.816,25.85053"
         style="fill:#7f8283;fill-opacity:1;fill-rule:nonzero;stroke:none;stroke-width:0.133333" />
      <path
         id="path18"
         d="m 242.62399,386.91214 c -0.27733,0.60266 -0.43066,0.94226 -0.43066,0.94226 14.58666,24.51253 37.164,33.0948 56.372,35.4828 -27.488,-27.90413 -47.78,-34.75467 -55.94134,-36.42506"
         style="fill:#323335;fill-opacity:1;fill-rule:nonzero;stroke:none;stroke-width:0.133333" />
      <path
         id="path19"
         d="m 292.11199,433.8544 c -21.12,10.10675 -78.53866,33.40933 -105.82533,3.164 -3.33066,-3.688 -4.432,-11.1812 -2.75333,-15.85827 7.78,-21.64533 35.348,-71.50839 110.27733,2.21867 3.53867,3.4824 2.78667,8.3292 -1.69867,10.4756"
         style="fill:#626567;fill-opacity:1;fill-rule:nonzero;stroke:none;stroke-width:0.133333" />
      <path
         id="path20"
         d="m 193.69066,420.61733 c 0,0 43.492,-4.13226 38.4,-26.65986 -5.092,-22.53067 -57.00933,24.91986 -38.4,26.65986"
         style="fill:#9fa2a1;fill-opacity:1;fill-rule:nonzero;stroke:none;stroke-width:0.133333" />
      <path
         id="path21"
         d="m 207.00133,404.89973 c 0,0 14.21733,-15.39946 18.004,-10.0756 3.78,5.33334 -25.93733,17.36934 -18.004,10.0756"
         style="fill:#e9e9e7;fill-opacity:1;fill-rule:nonzero;stroke:none;stroke-width:0.133333" />
      <path
         id="path22"
         d="m 293.81466,423.37573 c -5.42267,-5.33173 -10.59467,-10.0172 -15.53333,-14.112 -23.928,28.20934 -59.328,34.60002 -82.76,35.36304 29.39866,17.97708 77.624,-1.70833 96.59066,-10.77237 4.48534,-2.1464 5.23734,-6.9932 1.70267,-10.47867"
         style="fill:#4c4e51;fill-opacity:1;fill-rule:nonzero;stroke:none;stroke-width:0.133333" />
      <path
         id="path23"
         d="m 189.68666,422.54547 c -2.096,0.0172 -6.61466,3.78386 -2.276,8.05573 4.332,4.27613 53.68933,-1.27853 58.35067,-26.34107 0,0 -21.00934,17.95307 -56.07467,18.28534"
         style="fill:#7f8283;fill-opacity:1;fill-rule:nonzero;stroke:none;stroke-width:0.133333" />
      <path
         id="path24"
         d="m 225.52799,435.444 c 5.20267,3.6932 10.128,9.18955 14.396,15.84683 4.82534,0.78906 10,0.63073 14.608,-0.56667 2.42667,-12.98283 6.39867,-24.42963 11.46934,-32.63589 -5.34534,2.8812 -10.26,9.98386 -13.88934,19.53173 -0.69066,-6.35987 -2.78933,-11.6776 -6.112,-15.06667 1.12534,4.3984 1.54534,9.45987 1.36,14.79067 -3.8,-8.82133 -8.676,-15.33187 -13.83466,-17.9532 4.99733,7.6516 9.23466,18.09427 12.004,30.15472 -5.90267,-8.23073 -13.25467,-13.46565 -20.00134,-14.10152"
         style="fill:#adc766;fill-opacity:1;fill-rule:nonzero;stroke:none;stroke-width:0.133333" />
    </g>
  </g>
</svg>
