<?xml version="1.0" encoding="UTF-8" standalone="no"?>
<!-- Created with Inkscape (http://www.inkscape.org/) -->

<svg
   version="1.1"
   id="svg1"
   width="129.88934"
   height="102.32063"
   viewBox="0 0 129.88934 102.32062"
   xmlns="http://www.w3.org/2000/svg"
   xmlns:svg="http://www.w3.org/2000/svg">
  <defs
     id="defs1" />
  <g
     id="layer8"
     transform="translate(-381.56065,-351.59926)">
    <g
       id="g106">
      <path
         id="path10"
         d="m 507.30665,417.14133 c -0.57066,-1.4932 -2.34666,-3.98386 -4.01066,-5.32293 -0.56134,-0.8156 -1.44667,-1.70773 -2.62534,-2.55467 l -8.60933,-6.18386 c -2.76133,-1.988 -8.94,-3.7812 -13.79867,-4.00774 l -23.08666,-1.08133 c -3.63867,-0.16973 -4.59333,-0.088 -2.83867,0.17453 -1.424,0.0599 -2.892,0.2292 -4.30666,0.48387 -2.996,0.3828 -5.86,1.12653 -7.72134,2.1 l -10.17466,5.312 c -3.34934,1.75093 -7.84267,4.50413 -12.61734,5.01347 l -23.052,3.63333 c -0.007,10e-4 -0.0107,0.003 -0.0173,0.003 -0.192,0.0265 -0.37467,0.0557 -0.54933,0.0864 -2.50667,0.35626 -4.232,1.17346 -5.45334,2.28546 -1.01333,0.3708 -1.70666,1.18014 -1.83866,2.3536 l -5.00134,12.25574 c -0.0987,0.86413 -0.024,1.85986 0.17734,2.86146 -0.003,-0.004 -0.007,-0.0136 -0.008,-0.012 -0.056,0.012 0.412,3.39067 2.00666,5.66667 l 0.35067,0.50263 c 1.59467,2.27448 5.11333,5.56145 7.848,7.3401 2.73867,1.77968 8.884,3.45572 13.73333,3.74791 l 32.31334,1.95209 c 4.84266,0.29167 12.668,0.19583 17.48133,-0.21354 l 14.816,-1.26407 c 4.81466,-0.41197 12.34533,-1.51719 16.828,-2.47187 l 8.844,-1.88281 c 2.79866,-0.59323 5.51333,-2.09323 7.16266,-3.14375 1.58667,-0.90938 2.80134,-1.91198 3.284,-2.78386 l 3.79467,-6.8495 c 1.28533,-2.32026 1.60133,-6.12133 0.69467,-8.4896 l -3.62534,-9.5104"
         style="fill:#303133;fill-opacity:1;fill-rule:nonzero;stroke:none;stroke-width:0.133333" />
      <path
         id="path93"
         d="m 476.23199,356.74654 -21.21467,-4.076 c -4.77466,-0.91454 -11.35866,0.93066 -14.708,4.12973 l -10.17466,9.70253 c -3.34934,3.19747 -7.84267,8.2276 -12.61734,9.1584 l -23.052,6.6348 c -4.77466,0.93334 -6.86133,4.78134 -8.06133,9.55053 l -1.05467,14.65374 c 0.276,4.38906 1.472,11.40253 2.66667,15.66506 l 3.83333,13.65734 c 1.2,4.26133 6.06667,8.3291 10.87467,9.0864 l 38.20667,6.02396 c 4.808,0.75468 12.54266,0.49113 17.27333,-0.59428 l 37.34266,-8.56823 c 4.72934,-1.08385 8.65867,-5.52919 8.772,-9.92399 l 1.14934,-44.97186 c 0.10666,-4.39213 -2.46934,-10.5932 -5.76134,-13.83493 l -8.868,-8.75307 c -3.292,-3.24947 -9.832,-6.62293 -14.60666,-7.54013"
         style="fill:#626567;fill-opacity:1;fill-rule:nonzero;stroke:none;stroke-width:0.133333" />
      <path
         id="path94"
         d="m 430.35999,415.408 c -2.064,3.17707 -7.16533,4.79587 -11.39333,3.61307 -4.22934,-1.18387 -8.15734,-5.6584 -8.77867,-10 -0.62,-4.336 -3.1,-9.5172 -5.54133,-11.57187 -2.44667,-2.05467 -6.49334,-0.67453 -9.03734,3.07347 l -1.77066,2.60413 c -2.54134,3.752 -3.76534,3.3104 -2.72267,-0.98707 l 1.348,-5.56093 c 1.04267,-4.29627 2.91467,-6.888 -0.028,-9.27333 -2.944,-2.38387 -5.55867,-0.76413 -5.82933,3.6276 L 381.60532,413.32 c -0.276,4.38907 0.756,10.60933 2.29467,13.90107 1.54533,3.2844 5.62133,8.44426 9.11067,11.51773 l 5.03466,4.43068 c 3.48934,3.07292 10.26,5.24375 15.11867,4.84635 l 36.59467,-3.0026 c 4.864,-0.4 11.75333,-3.0974 15.396,-6.0255 l 5.40533,-4.3532 c 3.63733,-2.92813 4.448,-8.30093 1.80533,-11.9932 l -10.20533,-14.288 c -2.64267,-3.69893 -8.47867,-5.42653 -13.03867,-3.8588 l -6.76533,2.32027 c -4.55467,1.564 -9.92667,5.41307 -11.996,8.5932"
         style="fill:#7f8283;fill-opacity:1;fill-rule:nonzero;stroke:none;stroke-width:0.133333" />
      <path
         id="path95"
         d="m 440.61332,448.94136 -21.02133,-2.91199 c -4.82533,-0.66562 -9.49867,-4.06822 -10.44,-7.59737 -0.948,-3.52653 -2.228,-3.876 -2.87067,-0.77187 -0.636,3.10623 -4.268,3.42394 -8.11866,0.71867 l -4.15467,-2.93227 c -3.84533,-2.7052 -8.28667,-6.976 -9.92667,-9.54106 -1.64533,-2.56307 -2.244,-7.4052 -2.30666,-7.3828 -0.056,0.0239 0.412,6.1932 2.00666,10.352 l 0.35067,0.9172 c 1.59467,4.15466 5.11333,10.15626 7.848,13.40677 2.73867,3.24948 8.884,6.31355 13.73333,6.84688 l 32.31334,3.56511 c 4.84266,0.53333 12.668,0.35885 17.48133,-0.38959 l 14.816,-2.31041 c 4.81466,-0.74948 12.34533,-2.77084 16.828,-4.51355 l 8.844,-3.43853 c 4.48266,-1.73855 8.75066,-7.71975 8.77333,-7.78282 0.028,-0.0584 -4.43733,5.1588 -9.212,6.0776 l -37.564,7.23334 c -4.77466,0.91614 -12.55466,1.12396 -17.38,0.45469"
         style="fill:#4c4e51;fill-opacity:1;fill-rule:nonzero;stroke:none;stroke-width:0.133333" />
      <path
         id="path96"
         d="m 476.68932,354.91734 -21.564,-2.7812 c -4.83733,-0.62134 -11.15733,1.70106 -14.13333,5.18906 l -10.28267,12.06934 c -2.972,3.488 -9.41466,5.93906 -14.832,7.5296 -7.752,2.27186 -19.996,5.12506 -19.996,5.12506 -4.84933,0.5172 -5.864,3.35054 -2.27333,6.32133 l 8.952,7.41347 c 3.592,2.97453 10.384,4.69067 15.17733,3.83867 l 18.80134,-3.34534 c 4.79066,-0.85053 9.58933,-3.97453 10.71733,-6.96826 1.12133,-2.9932 5.992,-5.24533 10.86267,-5.0292 l 5.76266,0.25733 c 4.876,0.21454 12.72267,-0.23333 17.52533,-1.00933 l 12.36267,-1.99427 c 4.804,-0.77613 6.57467,-4.40946 3.952,-8.1188 l -7.536,-10.65466 c -2.62267,-3.70947 -8.66,-7.2188 -13.496,-7.8428"
         style="fill:#9fa2a1;fill-opacity:1;fill-rule:nonzero;stroke:none;stroke-width:0.133333" />
      <path
         id="path97"
         d="m 431.26799,381.60387 12.052,11.9536 c 1.91067,-1.25467 3.37733,-2.76814 3.936,-4.2484 0.65333,-1.75307 2.616,-3.23333 5.08933,-4.136 l -5.26533,-26.2276 c -0.33733,-3.79373 -2.42267,-4.8348 -4.91067,-2.78173 -0.428,0.36666 -0.83466,0.75466 -1.17733,1.16146 l -10.28267,12.06934 c -2.972,3.488 -2.72266,8.952 0.55867,12.20933"
         style="fill:#7f8283;fill-opacity:1;fill-rule:nonzero;stroke:none;stroke-width:0.133333" />
      <path
         id="path98"
         d="m 485.16132,434.2424 0.12933,-5.04533 -0.856,-10.16094 c -0.372,-4.3828 -2.492,-9.6468 -4.73466,-11.7604 -2.24534,-2.1104 -3.79467,-6.7172 -3.46267,-10.29066 0.33333,-3.57187 4.49333,-7.12907 9.29067,-7.94267 l 5.23866,-0.89067 c 4.796,-0.81813 8.27467,-10.34893 9.99467,-12.49053 1.71333,-2.14013 5.64267,6.7588 6.54533,11.08014 l 3.62534,17.37186 c 0.90666,4.3256 0.59066,11.26827 -0.69467,15.5052 l -3.79467,12.51093 c -1.284,4.2376 -7.74533,10.17348 -12.62133,10.03755 l -17.63467,4.04531 c 10.21467,-5.87499 8.90267,-9.18179 8.97467,-11.96979"
         style="fill:#4c4e51;fill-opacity:1;fill-rule:nonzero;stroke:none;stroke-width:0.133333" />
      <path
         id="path99"
         d="m 403.37332,397.91213 c 1.74134,2.31467 4.22267,7.49427 5.54667,11.57454 0.66,2.04266 4.76933,6.1588 4.76933,6.1588 0,0 -2.05733,-3.02814 -1.93866,-4.6536 0.236,-3.24787 4.16533,-7.05574 8.77733,-8.50107 l 16.33733,-5.1364 c 2.29334,-0.7224 6.512,-3.59427 6.45467,-3.79693 -0.0507,-0.1948 -4.38133,2.29173 -6.78133,2.71986 l -18.80134,3.34534 c -4.79333,0.852 -11.30266,-1.7136 -13.74533,-3.7652 -1.62267,-1.36667 -4.728,-2.6244 -4.728,-2.6244 0,0 3.52267,3.90666 4.10933,4.67906"
         style="fill:#e9e9e7;fill-opacity:1;fill-rule:nonzero;stroke:none;stroke-width:0.133333" />
      <path
         id="path100"
         d="m 455.01732,352.67054 21.21467,4.076 c 4.77466,0.9172 10.852,4.6172 13.576,8.26826 l 3.40533,4.55467 c 2.716,3.65053 4.232,7.7292 3.376,9.1104 -0.85733,1.38027 -5.44,3.15627 -10.23867,3.95987 l -4.95466,0.8324 c -4.79734,0.8036 -12.63867,1.2796 -17.51467,1.06506 l -5.76266,-0.25733 c -4.87067,-0.21613 -4.944,0.29067 -0.152,1.1308 l 7.848,1.38387 c 4.79066,0.84426 9.07466,5.05199 9.57733,9.40146 0.204,1.77347 0.51866,5.54373 0.884,5.97707 0.53733,0.6272 1.17866,-2.83174 1.74266,-5.12907 0.95334,-3.87867 5.616,-7.68387 10.41334,-8.5016 l 2.33466,-0.39067 c 4.796,-0.81813 9.836,0.003 11.26267,1.83227 0.71067,0.91467 1.17867,9.20533 1.348,8.98813 0.17867,-0.2204 0.0613,-8.9376 -0.384,-10.18706 -0.896,-2.48907 -0.66,-5.70773 0.52933,-7.19053 1.18534,-1.4772 -0.0893,-5.61467 -2.852,-9.2428 L 492.06132,361.056 c -2.76133,-3.6292 -8.94,-6.90426 -13.79867,-7.31986 l -23.08666,-1.97494 c -4.85867,-0.41466 -4.93333,-0.005 -0.15867,0.90934"
         style="fill:#e9e9e7;fill-opacity:1;fill-rule:nonzero;stroke:none;stroke-width:0.133333" />
    </g>
  </g>
</svg>
