<?xml version="1.0" encoding="UTF-8" standalone="no"?>
<!-- Created with Inkscape (http://www.inkscape.org/) -->

<svg
   version="1.1"
   id="svg1"
   width="144.32019"
   height="89.907829"
   viewBox="0 0 144.32019 89.907829"
   xmlns="http://www.w3.org/2000/svg"
   xmlns:svg="http://www.w3.org/2000/svg">
  <defs
     id="defs1" />
  <g
     id="layer5"
     transform="translate(-374.3453,-192.67172)">
    <g
       id="g105">
      <path
         id="path4"
         d="m 518.64265,266.02667 c 0,-0.005 0,-0.009 0,-0.0147 -0.008,-0.136 -0.0147,-0.224 -0.0147,-0.224 0,0 -0.009,0.0147 -0.0173,0.0253 -0.0747,-0.78534 -0.37733,-1.53734 -0.95866,-2.164 l -2.492,-2.676 c -1.59334,-1.71467 -5.39734,-3.89067 -8.73334,-5.04534 -0.19066,-0.0747 -0.39466,-0.14666 -0.61333,-0.21333 l -9.488,-2.96933 c -3.46667,-1.084 -9.668,-2.08667 -13.84533,-2.23333 l -14.196,-0.496 c -4.17733,-0.14667 -8.784,-1.60134 -10.28933,-3.24667 -1.49867,-1.64667 -5.11734,-4.10533 -8.07734,-5.49333 l -7.492,-3.50934 c -2.96,-1.38533 -8.72133,-2.71733 -12.87733,-2.972 l -13.43333,-0.82933 c -4.15467,-0.256 -10.47467,0.39733 -14.11734,1.456 l -13.276,3.85867 c -0.36933,0.108 -0.74266,0.23866 -1.11733,0.37333 l 10e-4,-0.001 c 0,0 -0.009,0.004 -0.0107,0.005 -3.05067,1.09867 -6.068,3.00533 -7.37067,4.66933 -0.12133,0.13734 -0.228,0.272 -0.308,0.4 l -3.868,6.18134 c -1.21733,1.948 -1.94533,5.15333 -1.628,7.15599 l 1.352,8.53334 c 0.048,0.29333 0.16667,0.6 0.32267,0.908 0.87333,1.828 3.39733,3.88133 6.2,4.91333 l 1.65733,0.608 c 3.28133,1.20933 7.52667,3.54267 9.484,5.21467 1.94933,1.66666 6.93867,3.00666 11.13867,2.984 l 17.588,-0.0893 c 4.20133,-0.0227 10.876,-0.55466 14.90666,-1.188 l 4.46,-0.70133 c 4.02934,-0.63467 8.872,-0.32667 10.81734,0.688 1.94,1.01333 6.90133,1.96 11.07866,2.11867 l 13.33333,0.5 c 4.17734,0.15866 10.68134,-0.41867 14.53867,-1.284 l 14.91067,-3.356 c 3.85066,-0.86667 8.208,-3.112 9.72933,-5.01334 l 2.01867,-2.51333 c 0.8,-1 0.72933,-3.57467 0.68666,-4.36"
         style="fill:#303133;fill-opacity:1;fill-rule:nonzero;stroke:none;stroke-width:0.133333" />
      <path
         id="path38"
         d="m 376.04799,223.72001 3.868,-11.29067 c 1.21733,-3.55733 5.164,-8.012 8.80533,-9.948 l 13.276,-7.04933 c 3.64267,-1.93334 9.96267,-3.12667 14.11734,-2.65867 l 13.43333,1.51333 c 4.156,0.46534 9.91733,2.89867 12.87733,5.42934 l 7.492,6.41066 c 2.96,2.53334 6.57867,7.02667 8.07734,10.032 1.50533,3.00667 6.112,5.66267 10.28933,5.93334 l 14.196,0.904 c 4.17733,0.268 10.37866,2.09733 13.84533,4.07866 l 9.488,5.424 c 3.46667,1.98134 7.656,6.28267 9.34667,9.60667 l 2.492,4.88667 c 1.69066,3.32266 0.50266,8.05866 -2.656,10.57733 l -24.956,19.91066 c -3.15734,2.51867 -9.07734,4.156 -13.22534,3.656 l -12.46533,-1.50266 c -4.14266,-0.49734 -9.64533,-3.16134 -12.284,-5.95467 l -3.068,-3.228 c -2.63733,-2.78667 -7.15333,-2.84133 -10.07866,-0.116 l -3.85067,3.58933 c -2.92533,2.72534 -8.47333,3.944 -12.392,2.72267 l -27.048,-8.44133 c -3.91733,-1.22 -9.82,-3.77734 -13.18667,-5.70667 -3.36533,-1.924 -6.34666,-6.45333 -6.66933,-10.12133 l -1.352,-15.58533 c -0.31733,-3.65867 0.41067,-9.51467 1.628,-13.072"
         style="fill:#626567;fill-opacity:1;fill-rule:nonzero;stroke:none;stroke-width:0.133333" />
      <path
         id="path39"
         d="m 443.60799,269.432 c 0.0627,0.016 0.0507,0.54667 -0.0213,1.172 -0.0733,0.63067 -0.124,0.61467 -0.11334,-0.0347 0.012,-0.65067 0.0747,-1.15867 0.13467,-1.13734"
         style="fill:#626567;fill-opacity:1;fill-rule:nonzero;stroke:none;stroke-width:0.133333" />
      <path
         id="path40"
         d="m 442.42532,199.71601 7.492,6.41066 c 2.96,2.53334 2.42934,6.19734 -1.184,8.17867 l -10.136,5.56533 c -3.61333,1.98134 -9.80933,2.82934 -13.83466,1.89067 l -7.40134,-1.736 c -4.032,-0.93867 -10.23866,-0.11867 -13.87466,1.83467 l -4.78,2.57066 c -3.63067,1.95467 -7.42534,0.672 -8.47467,-2.86933 l -2.35067,-7.92933 c -1.04266,-3.53734 0.91334,-8.17734 4.376,-10.364 l 11.07067,-6.996 c 3.46267,-2.18534 9.636,-3.61334 13.796,-3.18534 l 12.41467,1.27334 c 4.16,0.42933 9.92666,2.82533 12.88666,5.356"
         style="fill:#9fa2a1;fill-opacity:1;fill-rule:nonzero;stroke:none;stroke-width:0.133333" />
      <path
         id="path41"
         d="m 467.39332,234.95334 -9.09866,-18.204 c -1.66934,-3.336 -5.948,-4.42533 -9.56134,-2.444 l -10.136,5.56533 c -3.61333,1.98134 -5.64933,6.44667 -4.54933,9.972 l 2.40667,7.71734 c 1.10533,3.524 -1.268,7.33333 -5.29334,8.50933 l -2.876,0.84 c -4.024,1.16933 -9.15466,-0.324 -11.45466,-3.34133 l -3.68667,-4.82267 c -2.30667,-3.016 -7.10933,-3.87067 -10.74,-1.904 l -10.396,5.628 c -3.62533,1.96533 -3.32533,4.38933 0.672,5.41333 l 13.89067,3.56134 c 3.996,1.02933 8.85066,4.44266 10.84133,7.62799 l 8.75467,14.01867 c 1.99066,3.18533 5.79466,3.42 8.49066,0.52 l 7.86934,-8.46133 c 2.7,-2.89734 7.408,-7.32267 10.524,-9.88534 l 11.72133,-9.63733 c 3.112,-2.56 4.284,-7.33733 2.62133,-10.67333"
         style="fill:#7f8283;fill-opacity:1;fill-rule:nonzero;stroke:none;stroke-width:0.133333" />
      <path
         id="path42"
         d="m 449.38132,215.09201 -8.68666,6.444 c -3.25867,2.416 -5.30534,7.3 -4.57867,10.908 l 1.00933,4.97066 c 0.728,3.604 -0.19066,3.89867 -2.05733,0.64534 l -2.90933,-5.06 c -1.872,-3.25067 -6.34134,-7.272 -10,-8.992 l -5.47467,-2.576 c -3.65333,-1.716 -6.21733,-2.06 -5.72267,-0.76934 0.49734,1.29334 -2.27066,3.52934 -6.17866,4.992 l -13.92934,5.22934 c 0,0 -2.48,1.08933 -5.54133,2.43466 -3.068,1.34667 -3.57467,0.53334 -1.14533,-1.824 2.436,-2.35333 4.02533,-7.21866 3.552,-10.86666 l -0.87467,-6.80134 c -0.472,-3.64133 0.0347,-3.744 1.128,-0.21466 l 1.94,6.256 c 1.09333,3.52266 4.84267,4.676 8.36533,2.568 l 2.97734,-1.776 c 3.528,-2.104 6.308,-4.46534 6.212,-5.27467 -0.10134,-0.81467 2.904,-0.27867 6.708,1.184 l 10.99866,4.24 c 3.80134,1.46267 9.81067,1.04267 13.424,-0.93867 l 10.136,-5.56533 c 3.61334,-1.98133 3.90134,-1.628 0.648,0.78667"
         style="fill:#e9e9e7;fill-opacity:1;fill-rule:nonzero;stroke:none;stroke-width:0.133333" />
      <path
         id="path43"
         d="m 496.32532,227.07467 9.488,5.424 c 3.46667,1.98134 3.512,5.40534 0.0907,7.64267 l -10.56534,6.92 c -3.416,2.24133 -9.57733,3.81467 -13.75466,3.512 l -15.30667,-1.09067 c -4.17733,-0.30133 -9.268,-3.08133 -11.36533,-6.20933 l -2.68933,-4.00933 c -2.10267,-3.12534 -1.39734,-7.84267 1.57866,-10.52534 l 2.19334,-1.98533 c 2.97066,-2.68267 8.77733,-4.67333 12.95999,-4.44267 l 13.51334,0.75067 c 4.184,0.23733 10.39066,2.032 13.85733,4.01333"
         style="fill:#9fa2a1;fill-opacity:1;fill-rule:nonzero;stroke:none;stroke-width:0.133333" />
      <path
         id="path44"
         d="m 517.65199,246.99201 -2.492,-4.88667 c -1.69067,-3.324 -5.83467,-4.20133 -9.256,-1.964 l -10.56534,6.92 c -3.416,2.24133 -5.236,6.89466 -4.06533,10.39866 l 0.41867,1.24934 c 1.17866,3.5 -0.0573,6.76133 -2.752,7.28 -2.69467,0.51466 -4.832,3.92133 -4.764,7.60266 l 0.0293,1.78667 c 0.0667,3.68133 3.03867,5.052 6.64667,3.06 l 11.984,-6.60133 c 3.608,-1.98667 8.424,-6.13867 10.75733,-9.26134 l 2.90267,-3.90533 c 2.32933,-3.124 2.84666,-8.356 1.156,-11.67866"
         style="fill:#7f8283;fill-opacity:1;fill-rule:nonzero;stroke:none;stroke-width:0.133333" />
      <path
         id="path45"
         d="m 376.08799,223.60801 3.828,-11.17867 c 1.21733,-3.55733 7.68933,-9.27067 7.68933,-9.27067 0,0 -1.89333,5.63067 -2.23733,7.55334 l -0.62,3.484 -2.12533,13.076 c -0.59734,3.66266 -2.26667,7.872 -3.73334,9.39466 -1.464,1.52934 -1.18266,5.42 0.62667,8.68934 l 6.72,12.12399 c 0,0 1.08267,1.94134 2.41333,4.34134 1.336,2.39333 3.60134,4.416 5.06267,4.51733 1.45867,0.1 2.468,-1.344 2.248,-3.21867 -0.22533,-1.87466 2.54267,-1.97866 6.168,-0.22266 l 20.904,10.10133 c 3.62933,1.75467 7.876,0.38533 9.488,-3.06267 l 1.184,-2.53466 c 1.612,-3.448 0.636,-8.10667 -2.17067,-10.40667 -2.81333,-2.3 -2.15333,-2.73333 1.46534,-0.96133 l 6.54,3.196 c 3.62,1.77066 6.48933,0.932 6.39733,-1.87734 -0.0893,-2.812 -0.472,-6.81199 -0.856,-8.93733 -0.38267,-2.12666 0.20933,-6.30533 1.31867,-9.33066 0.74,-2.008 7.504,-10.47467 7.504,-10.47467 0,0 -4.57734,10.32933 -4.368,11.55333 l 0.19066,1.14 c 0.62,3.628 1.83734,8.24267 2.73467,10.31067 0.89067,2.072 1.184,4.46 0.648,5.32933 -0.536,0.872 -0.26533,4.47733 0.604,8.06 l 1.38133,5.7 c 0.868,3.57867 4.972,6.56667 9.16667,6.676 l 2.89733,0.0747 c 4.2,0.112 9.684,-2.20267 12.24933,-5.15867 2.572,-2.96667 4.46,-2.472 4.22267,1.09333 -0.23733,3.57067 2.39067,4.70667 5.86267,2.54267 l 4.31333,-2.692 c 3.47867,-2.16133 7.504,-6.74133 8.99733,-10.22933 l 1.168,-2.72 c 1.488,-3.48667 2.58134,-3.70934 2.44,-0.50134 -0.14133,3.21067 2.20934,3.67867 5.248,1.05067 l 3.55334,-3.068 c 1.144,-0.99067 3.416,-6.87066 3.416,-6.87066 0,0 0.276,6.23333 -0.672,8.39733 l -2.01867,4.592 c -1.52133,3.47333 -5.87867,7.57333 -9.72933,9.15866 l -14.91067,6.12667 c -3.85733,1.584 -10.36133,2.636 -14.53867,2.34933 l -13.33333,-0.91466 c -4.17733,-0.288 -9.13866,-2.01734 -11.07866,-3.872 -1.94534,-1.852 -6.788,-2.412 -10.81734,-1.25467 l -4.46,1.28133 c -4.03066,1.156 -10.70533,2.12934 -14.90666,2.16934 l -17.588,0.164 c -4.2,0.0413 -9.18934,-2.40667 -11.13867,-5.452 -1.95733,-3.052 -6.20267,-7.31467 -9.484,-9.52534 l -1.65733,-1.11066 c -3.28,-2.20667 -6.19467,-6.964 -6.51067,-10.632 l -1.336,-15.69467 c -0.31067,-3.66266 0.42267,-9.51733 1.64,-13.07466"
         style="fill:#4c4e51;fill-opacity:1;fill-rule:nonzero;stroke:none;stroke-width:0.133333" />
      <path
         id="path46"
         d="m 468.18799,249.61467 13.396,0.95867 c 4.17733,0.30267 10.33866,-1.27067 13.75466,-3.512 l 10.56534,-6.92 c 3.42133,-2.23733 3.732,-1.91733 0.69866,0.71867 l -8.60266,7.47066 c -3.03334,2.63467 -5.19734,7.444 -4.83734,10.74667 0.36134,3.29866 -0.756,3.524 -2.492,0.50533 -1.74133,-3.02 -6.52133,-5.81733 -10.67733,-6.252 l -10.63733,-1.10266 c -4.16133,-0.43467 -9.308,-0.0787 -11.50667,0.78933 -2.19866,0.86933 -3.056,0.51867 -1.916,-0.78133 1.132,-1.296 0.51734,-4.96534 -1.38266,-8.196 l -2.69334,-4.58667 c -1.90133,-3.232 -1.52933,-3.43467 0.82267,-0.448 l 3.68133,4.66133 c 2.356,2.98667 7.64934,5.65067 11.82667,5.948"
         style="fill:#e9e9e7;fill-opacity:1;fill-rule:nonzero;stroke:none;stroke-width:0.133333" />
    </g>
  </g>
</svg>
