<?xml version="1.0" encoding="UTF-8" standalone="no"?>
<!-- Created with Inkscape (http://www.inkscape.org/) -->

<svg
   version="1.1"
   id="svg1"
   width="144.32082"
   height="116.06438"
   viewBox="0 0 144.32082 116.06438"
   xmlns="http://www.w3.org/2000/svg"
   xmlns:svg="http://www.w3.org/2000/svg">
  <defs
     id="defs1" />
  <g
     id="layer3"
     transform="translate(-3.5454111e-4,-171.5342)">
    <g
       id="g103">
      <path
         id="path6"
         d="m 22.349999,233.29201 c -4.862533,1.068 -10.932813,5 -13.5624926,8.784 l -1.2838666,1.848 c -0.00833,0.0133 -0.018747,0.0227 -0.02708,0.0347 l -2.1197866,3.056 c -0.00156,0.001 -0.00208,0.003 -0.0026,0.004 L 1.80104,252.13334 c -1.953124,2.81066 -2.29583199,3.56533 -1.12291468,2.24933 -0.96302131,2.80667 -0.72447945,6.17333 0.63177068,8.94133 0.168224,0.54667 0.6541706,1.304 1.5031306,2.27867 L 6.2322932,269.52 c 3.1848932,3.65467 11.5479728,7.49734 18.6723728,8.584 l 47.195866,7.19867 c 7.127599,1.08533 18.351599,0.596 25.070266,-1.1 l 37.310532,-9.4 c 0.42,-0.10533 0.83067,-0.22267 1.23067,-0.35067 6.00133,-1.916 9.68,-6.184 8.33066,-9.908 l -0.67866,-1.87866 c -0.009,-0.0227 -0.0213,-0.044 -0.0307,-0.0667 l -5.9093,-16.2973 c -1.44,-3.972 -7.6808,-8.94133 -13.9396,-11.10133 L 92.113998,224.37734 c -6.2572,-2.16 -16.8952,-2.68667 -23.761866,-1.18267 l -35.728666,7.844 5.33e-4,-0.001 c 0,0 -7.582266,1.664 -10.274,2.25467"
         style="fill:#303133;fill-opacity:1;fill-rule:nonzero;stroke:none;stroke-width:0.133333" />
      <path
         id="path53"
         d="M 6.2322932,257.716 2.8130266,250.55867 C -0.37395866,243.88534 -0.82760398,232.86934 1.80104,225.95734 l 6.9864664,-18.36933 c 2.6296796,-6.912 10.3260936,-14.748 17.1927596,-17.49867 l 42.371866,-16.98933 c 6.866666,-2.748 17.504666,-1.78667 23.761866,2.16 l 31.370402,19.76666 c 6.2588,3.94667 12.4996,13.024 13.9396,20.27867 l 6.61466,33.32 c 1.44134,7.256 -2.83866,15.64266 -9.55733,18.74 l -37.310532,17.168 C 90.452131,287.632 79.228131,288.528 72.100532,286.544 L 24.904666,273.39334 c -7.1244,-1.984 -15.4874796,-9.00267 -18.6723728,-15.67734"
         style="fill:#626567;fill-opacity:1;fill-rule:nonzero;stroke:none;stroke-width:0.133333" />
      <path
         id="path54"
         d="m 39.953066,230.38001 -18.926533,-21.764 c -4.854133,-5.58 -10.92132,-4.50134 -13.5499732,2.41066 l -2.1197866,5.58134 c -2.6286533,6.912 0.3864533,15.596 6.7328128,19.392 l 12.606813,7.54133 c 6.347334,3.796 17.478133,7.26667 24.8588,7.75333 l 16.177066,1.06534 c 7.3808,0.488 17.4032,-3.55334 22.381733,-9.02 l 3.926666,-4.31467 c 4.980667,-5.468 3.158267,-8.628 -4.0704,-7.05733 l -26.139599,5.67333 c -7.228533,1.57333 -17.023333,-1.68133 -21.877599,-7.26133"
         style="fill:#7f8283;fill-opacity:1;fill-rule:nonzero;stroke:none;stroke-width:0.133333" />
      <path
         id="path55"
         d="m 40.815599,214.27201 5.8208,5.58666 c 5.3396,5.11467 14.822399,6.19734 21.176133,2.41734 l 17.504133,-10.42667 c 6.353599,-3.78 16.952135,-4.33467 23.669335,-1.23733 l 1.83066,0.84933 c 6.7172,3.09733 14.814,2.272 18.08067,-1.844 3.2672,-4.116 0.84587,-10.644 -5.41293,-14.59067 l -29.177069,-18.38 c -6.2584,-3.94666 -16.976133,-5.12 -23.943333,-2.63866 l -26.603066,9.50533 c -6.966133,2.48533 -12.611999,8.30667 -12.611999,12.99733 0,4.68934 4.326133,12.64134 9.666666,17.76134"
         style="fill:#9fa2a1;fill-opacity:1;fill-rule:nonzero;stroke:none;stroke-width:0.133333" />
      <path
         id="path56"
         d="m 144.04266,248.62534 -0.67866,-3.43067 c -1.44134,-7.25733 -7.50534,-9.68 -13.5504,-5.42266 L 103.55106,258.3 c -6.046396,4.25867 -16.943195,7.71734 -24.338529,7.71734 H 60.517198 39.824532 c -7.394799,0 -17.766666,-4.10134 -23.164666,-9.15867 l -9.8468395,-9.22533 c -5.3984399,-5.06 -7.18698516,-3.748 -3.9999999,2.92533 l 3.4192666,7.15733 c 3.1848932,6.67467 11.5479728,13.69334 18.6723728,15.67734 L 72.100532,286.544 c 7.127599,1.984 18.351599,1.088 25.070266,-2.01066 l 37.310532,-17.168 c 6.71867,-3.09734 11,-11.484 9.56133,-18.74"
         style="fill:#4c4e51;fill-opacity:1;fill-rule:nonzero;stroke:none;stroke-width:0.133333" />
      <path
         id="path57"
         d="m 35.534399,219.87201 -6.664666,-8.67867 c -4.504667,-5.86933 -3.6968,-6.61333 1.801066,-1.66667 l 8.219867,7.39067 c 5.498933,4.948 11.075999,9.68667 12.454133,10.58533 1.380266,0.89334 7.918266,-0.948 14.602533,-4.11333 l 19.378133,-9.17467 c 6.683866,-3.168 16.649995,-2.356 22.259465,1.81867 5.61093,4.17067 13.62187,4.56 17.89213,0.86533 4.27347,-3.684 4.46094,-1.65733 0.4208,4.53734 l -2.3036,3.53733 c -4.03906,6.196 -11.89533,7.34933 -17.54426,2.57067 l -0.60054,-0.50667 c -5.648396,-4.77467 -15.706262,-6.204 -22.463062,-3.2 l -18.8104,8.38933 c -6.756266,3.00934 -14.081199,3.844 -16.360399,1.86 -2.2776,-1.98133 -7.778133,-8.34533 -12.2812,-14.21466"
         style="fill:#7f8283;fill-opacity:1;fill-rule:nonzero;stroke:none;stroke-width:0.133333" />
      <path
         id="path58"
         d="m 37.631732,219.20667 -7.917733,-8.71866 c -4.968133,-5.48267 -4.541066,-5.908 0.9568,-0.96134 l 8.219867,7.39067 c 5.498933,4.948 10.813466,10.65867 11.870799,12.75867 1.0552,2.09066 7.233334,1.02266 13.793733,-2.39067 l 18.0516,-9.39733 c 6.561466,-3.41067 16.473866,-2.32534 22.142132,2.42666 l 0.2412,0.20267 c 5.66867,4.756 14.2844,4.372 19.24533,-0.84533 4.95827,-5.21734 5.70254,-4.43067 1.6624,1.764 l -2.3036,3.53733 c -4.03906,6.196 -11.89533,7.34933 -17.54426,2.57067 l -0.60054,-0.50667 c -5.648396,-4.77467 -15.706262,-6.204 -22.463062,-3.2 l -18.8104,8.38933 c -6.756266,3.00934 -13.421866,3.53734 -14.888533,1.176 -1.467733,-2.36533 -6.685866,-8.716 -11.655733,-14.196"
         style="fill:#4c4e51;fill-opacity:1;fill-rule:nonzero;stroke:none;stroke-width:0.133333" />
      <path
         id="path59"
         d="m 36.753599,245.52267 c 0.308933,-2.70666 3.3532,-5.38666 6.797467,-5.99066 3.441599,-0.60534 6.936933,-3.312 7.807733,-6.04 0.871466,-2.73467 -2.4968,-9.34667 -7.5208,-14.77867 l -3.5932,-3.88133 c -5.022933,-5.432 -4.540133,-5.93067 1.076533,-1.11867 l 4.037467,3.452 c 5.618266,4.81467 15.525066,6.004 22.124533,2.66667 l 17.387999,-8.788 c 6.600533,-3.332 6.781733,-3.00267 0.405734,0.744 l -17.2724,10.15333 c -6.375467,3.74267 -12.572933,9.196 -13.840666,12.17733 -1.2692,2.976 1.208933,4.69734 5.531866,3.83734 4.3224,-0.85867 4.0896,-0.44 -0.5204,0.93066 -4.611466,1.368 -11.206133,2.73067 -14.731199,3.036 -3.523467,0.30934 -6.7984,2.34 -7.3172,4.52667 -0.5172,2.19333 -0.685334,1.772 -0.373467,-0.92667"
         style="fill:#e9e9e7;fill-opacity:1;fill-rule:nonzero;stroke:none;stroke-width:0.133333" />
      <path
         id="path60"
         d="m 111.60466,232.96534 c 2.59894,2.6 7.84894,-0.392 11.72867,-6.692 l 2.8584,-4.648 c 3.8796,-6.3 3.7004,-6.412 -0.4016,-0.256 l -2.05787,3.092 c -4.1,6.156 -9.52866,9.49867 -12.1276,7.46933 -2.60053,-2.02933 -2.60053,-1.57066 0,1.03467"
         style="fill:#e9e9e7;fill-opacity:1;fill-rule:nonzero;stroke:none;stroke-width:0.133333" />
      <path
         id="path61"
         d="m 2.4338533,226.21734 6.4364531,-14.64133 c 2.9812536,-6.77067 9.1734266,-14.78667 13.8370266,-17.908 2.080666,-1.392 9.916666,-6.24267 9.916666,-6.24267 0,0 -7.582266,3.03867 -10.274,4.11867 -4.862533,1.95066 -10.932813,9.132 -13.5624926,16.044 L 1.80104,225.95734 c -2.62864398,6.912 -2.34687332,7.03067 0.6328133,0.26"
         style="fill:#e9e9e7;fill-opacity:1;fill-rule:nonzero;stroke:none;stroke-width:0.133333" />
      <path
         id="path62"
         d="m 63.520265,192.89867 c 5.026667,-4.23333 14.054266,-6.58666 20.165733,-5.25333 6.106666,1.33867 6.2364,1.796 0.284267,1.02 -5.95,-0.76667 -14.9796,1.584 -20.165067,5.25467 -5.183866,3.66933 -5.311999,3.21333 -0.284933,-1.02134"
         style="fill:#e9e9e7;fill-opacity:1;fill-rule:nonzero;stroke:none;stroke-width:0.133333" />
    </g>
  </g>
</svg>
