<?xml version="1.0" encoding="UTF-8" standalone="no"?>
<!-- Created with Inkscape (http://www.inkscape.org/) -->

<svg
   version="1.1"
   id="svg1"
   width="144.3205"
   height="98.691284"
   viewBox="0 0 144.3205 98.691283"
   xmlns="http://www.w3.org/2000/svg"
   xmlns:svg="http://www.w3.org/2000/svg">
  <defs
     id="defs1" />
  <g
     id="layer6"
     transform="translate(-7.127967e-4,-353.94446)">
    <g
       id="g107">
      <path
         id="path3"
         d="m 137.652,444.31583 c 0.003,-0.003 0.007,-0.005 0.009,-0.008 0.008,-0.003 0.0173,-0.005 0.0267,-0.009 -0.012,0.007 -0.024,0.0104 -0.036,0.0172 z m 4.36666,-13.98796 c -0.33333,-0.9172 -0.932,-1.4824 -1.56266,-1.59174 -0.50267,-1.11506 -1.49867,-2.2536 -2.71067,-2.964 l -4.9412,-2.89906 c -1.8348,-1.076 -5.45573,-2.18227 -8.0896,-2.47334 L 113.012,419.108 c -2.63174,-0.29067 -5.64427,-1.6172 -6.7276,-2.96253 l -10.289069,-12.788 c -0.5532,-0.68534 -0.966133,-0.99374 -1.189067,-0.94267 -0.711466,-0.43333 -1.6256,-0.86147 -2.6052,-1.2136 -0.8704,-0.40933 -1.880266,-0.71187 -2.9256,-0.83333 L 80.284931,399.32 c -2.628133,-0.30787 -6.7432,-0.0651 -9.194799,0.53747 l -7.743734,1.90786 c -0.340133,0.0839 -0.6324,0.18387 -0.8948,0.2932 -2.085466,0.6308 -4.163066,1.6812 -4.954266,2.6136 l -0.05147,0.076 c -0.227066,0.14894 -0.439066,0.3156 -0.613066,0.51827 l -1.268267,1.46813 c -1.147333,1.3292 -2.547867,3.57187 -3.126,5.00947 l -0.124,0.30933 c -0.05467,0.136 -0.104667,0.27347 -0.154667,0.40787 l -0.0047,0.007 c -1.133334,1.33333 -3.060934,2.09586 -5.740133,1.98813 l -10.647867,-0.4308 c -2.679733,-0.10787 -6.878133,0.2412 -9.376533,0.78027 l -14.92296,1.888 c -2.4999996,0.53853 -5.3947862,2.07026 -6.4645861,3.41866 l -2.7442666,3.4532 c -0.5572933,0.70414 -1.0697907,1.6588 -1.44479065,2.6224 C 0.39843732,427.196 0.02135413,428.244 0.02135413,428.244 0.01354173,428.5336 0.08125,428.84547 0.184896,429.16533 0.07291666,429.0612 0.00572917,429.0012 0.00104167,429.0132 c -0.00885418,0.0256 0.17968766,0.39747 0.50937565,0.912 0.26822799,0.4964 0.63281198,0.988 1.07187598,1.44533 0.4916666,0.57187 1.0666666,1.12294 1.6859333,1.48694 l 1.6885466,0.99173 c 1.8307333,1.07493 5.3427068,2.3828 7.8458268,2.91867 l 6.147933,2.648 c 2.5016,0.53746 6.7068,0.93066 9.3916,0.8828 l 12.356266,-0.2256 c 2.684933,-0.0489 6.9584,-0.40934 9.544266,-0.80667 l 1.5896,-0.24373 c 2.587067,-0.39747 5.819867,4.29993 7.2208,5.55306 l 1.858933,1.66563 c 1.402,1.25572 4.516667,2.77083 6.9536,3.38645 l 8.586,2.16667 c 2.438,0.61771 6.578667,0.97187 9.245333,0.79635 l 26.679599,-1.78438 10.6652,-0.78124 c 2.664,-0.1948 6.49,-1.12136 8.5504,-2.06406 l 4.06387,-1.86511 c 1.61333,-0.73855 2.97333,-1.91355 3.496,-2.4026 1.08,-0.50156 2.016,-1.07344 2.58666,-1.63751 l 0.996,-0.98801 c 1.3,-1.28539 1.92667,-3.49845 1.4,-4.94005 l -2.116,-5.8"
         style="fill:#303133;fill-opacity:1;fill-rule:nonzero;stroke:none;stroke-width:0.133333" />
      <path
         id="path25"
         d="m 0.0614584,416.76787 0.15000026,-6.53174 c 0.0593747,-2.6828 0.97760394,-6.8604 2.04739464,-9.324 l 2.7442666,-6.30826 c 1.0697999,-2.46414 3.9645865,-5.26147 6.4645861,-6.2464 l 14.92296,-5.8828 c 2.4984,-0.98387 6.6968,-1.62133 9.376533,-1.424 l 10.647867,0.78547 c 2.679199,0.1984 4.606799,-1.1948 5.740133,-3.62974 l 5.342133,-14.24106 c 1.131333,-2.43494 4.8896,-5.34694 7.5444,-5.75734 l 22.587466,-2.11453 c 2.654666,-0.412 7.2828,3.0156 8.366133,5.47027 L 106.2844,384.9216 c 1.08333,2.4572 4.09586,4.8812 6.7276,5.4104 l 11.70253,2.36253 c 2.63387,0.5296 6.2548,2.55094 8.0896,4.51614 l 4.9412,5.2932 c 1.83467,1.9656 3.20133,5.73066 3.05333,8.412 l -1.14533,20.7348 c -0.14933,2.68293 -2.24,5.78133 -4.67067,6.92506 l -7.0832,3.3323 c -2.43066,1.14113 -6.54213,2.47446 -9.18013,2.97708 l -33.071999,6.28177 c -2.638933,0.50104 -6.438533,-0.49896 -8.484266,-2.24011 l -15.3776,-13.07344 c -2.045866,-1.74013 -5.870933,-2.91453 -8.542266,-2.62026 l -24.9276,2.7416 c -2.6708,0.2932 -6.676,-0.63227 -8.945333,-2.06667 L 4.0640666,424.22787 c -2.2698,-1.4344 -4.06146243,-4.7772 -4.0026082,-7.46"
         style="fill:#626567;fill-opacity:1;fill-rule:nonzero;stroke:none;stroke-width:0.133333" />
      <path
         id="path26"
         d="m 5.0369732,394.62 -2.9666666,6.96827 C 1.0187506,404.06013 0.13645866,408.23973 0.1,410.92933 l -0.07864587,5.8344 c -0.0385416,2.68694 1.47968587,6.4 3.38801907,8.288 l 0.4791734,0.47347 c 1.9083333,1.89067 5.4270798,4.34693 7.8598934,5.488 l 7.32756,3.4292 c 2.432399,1.14013 5.322933,0.088 6.456266,-2.3464 l 10.736533,-23.09213 c 1.132267,-2.43854 0.0724,-5.32507 -2.367733,-6.4464 L 11.360933,392.1788 C 8.9208398,391.05333 6.0885465,392.1455 5.0369732,394.62"
         style="fill:#7f8283;fill-opacity:1;fill-rule:nonzero;stroke:none;stroke-width:0.133333" />
      <path
         id="path27"
         d="m 60.165065,428.6908 11.201067,-17.17493 c 1.467733,-2.24947 3.965066,-2.87867 5.581199,-1.40374 1.614134,1.47454 2.4824,4.80267 1.938667,7.43027 l -0.705333,3.4068 c -0.543734,2.62813 0.131866,2.89213 1.5084,0.5844 l 0.952666,-1.60053 c 1.375467,-2.30627 3.592667,-3.17187 4.950934,-1.9344 1.358933,1.24013 2.259466,4.41453 2.010933,7.0896 l -0.718134,7.7624 c -0.246933,2.67453 1.524934,3.92146 3.9572,2.77973 l 2.599067,-1.21453 c 2.432267,-1.1412 5.309333,-3.648 6.425467,-5.60374 1.116132,-1.9536 4.026532,-2.76293 6.496802,-1.80146 2.4724,0.9588 4.78813,3.23853 5.17146,5.09733 0.3848,1.85573 0.26294,5.324 -0.26613,7.75053 -0.53187,2.42032 -3.0672,4.9495 -5.6636,5.64011 l -20.036932,5.33073 c -2.595867,0.69063 -6.378667,-0.13854 -8.449067,-1.85208 L 61.256798,435.86373 c -2.068799,-1.7104 -2.557866,-4.924 -1.091733,-7.17293"
         style="fill:#7f8283;fill-opacity:1;fill-rule:nonzero;stroke:none;stroke-width:0.133333" />
      <path
         id="path28"
         d="m 134.82,438.01733 -8.63974,3.12403 c -2.5256,0.91197 -6.73293,1.94791 -9.3948,2.30104 l -24.496396,3.30156 c -2.6636,0.35885 -4.823466,-0.43073 -4.823466,-1.76407 0,-1.33333 -0.735334,-1.33333 -1.645867,0 -0.907733,1.33334 -3.633333,1.52814 -6.085333,0.43074 l -4.512,-2.00938 c -2.4536,-1.09322 -6.088533,-3.40418 -8.119333,-5.16405 l -4.736933,-4.0984 c -2.0312,-1.75733 -2.487467,-5.0084 -1.019734,-7.25733 L 63.404665,423.72 c 1.4688,-2.24787 0.952133,-2.71973 -1.152,-1.05053 l -2.7756,2.20106 c -2.104133,1.67187 -5.878666,3.70414 -8.432266,4.53854 l -2.105734,0.69066 c -2.553599,0.83747 -6.796399,1.652 -9.477599,1.8244 l -14.266133,0.89854 c -0.0016,0 -8.054667,-0.69854 -14.24064,-3.58294 -2.8791732,-1.3452 -4.6875065,-3.4916 -6.8567731,-5.3812 -2.02656,-1.764 -4.07031577,-5.80786 -4.09687823,-5.69066 -0.02552087,0.12146 1.43750493,5.0532 3.26718493,7.02146 l 1.6885466,1.81187 c 1.8307333,1.96253 5.3427068,4.3532 7.8458268,5.3308 l 6.147933,2.40107 c 2.5016,0.9828 6.7068,1.70146 9.3916,1.6124 l 12.356266,-0.41094 c 2.684933,-0.0905 6.9584,-0.74946 9.544266,-1.4744 l 1.5896,-0.44533 c 2.587067,-0.724 5.819867,0.5464 7.2208,2.83853 l 1.858933,3.0412 c 1.402,2.29214 4.516667,5.05984 6.9536,6.18536 l 8.586,3.9599 c 2.438,1.12552 6.578667,1.77344 9.245333,1.45209 l 26.679599,-3.25991 10.6652,-1.42552 c 2.664,-0.35833 6.49,-2.04634 8.5504,-3.7703 l 4.06387,-3.40682 c 2.06,-1.72386 3.72933,-4.7776 3.73333,-4.81346 0.003,-0.0401 -2.04267,2.2896 -4.56933,3.20146"
         style="fill:#4c4e51;fill-opacity:1;fill-rule:nonzero;stroke:none;stroke-width:0.133333" />
      <path
         id="path29"
         d="m 11.666666,388.97987 15.654133,-3.8572 c 2.608934,-0.63867 6.898933,-1.048 9.5808,-0.90947 l 9.506267,0.49067 c 2.683866,0.13747 6.789066,1.25627 9.170799,2.49733 l 10.618267,5.536 c 2.381733,1.24267 2.301466,3.08387 -0.180267,4.11453 l -2.227067,0.924 c -2.4808,1.02707 -6.611466,2.36307 -9.227066,2.98174 l -11.508933,2.7156 c -2.614533,0.6188 -6.8396,0.56146 -9.435867,-0.12907 l -11.959866,-3.17707 c -2.5964,-0.68706 -6.3396,-2.68293 -8.359426,-4.45213 L 10.6,393.34813 c -2.0203069,-1.76933 -1.5437469,-3.72546 1.066666,-4.36826"
         style="fill:#9fa2a1;fill-opacity:1;fill-rule:nonzero;stroke:none;stroke-width:0.133333" />
      <path
         id="path30"
         d="m 63.346398,358.656 7.743734,-3.48546 c 2.451599,-1.10107 6.566666,-1.54374 9.194799,-0.9828 l 8.990533,1.91506 c 2.628667,0.55987 5.0776,3.16774 5.472934,5.82507 l 0.134933,0.91347 c 0.3932,2.65733 -1.4516,5.06253 -4.120267,5.36666 l -17.127066,1.96147 c -2.669333,0.3052 -6.359466,-1 -8.242266,-2.91347 l -3.074,-3.13186 c -1.883334,-1.92027 -1.423334,-4.36294 1.026666,-5.46814"
         style="fill:#9fa2a1;fill-opacity:1;fill-rule:nonzero;stroke:none;stroke-width:0.133333" />
      <path
         id="path31"
         d="m 105.326,393.2612 -5.578669,7.43907 c -1.610933,2.14786 -5.0796,4.15986 -7.744267,4.49573 l -13.152533,1.6428 c -2.665066,0.33587 -3.218266,2.07187 -1.233333,3.88387 l 6.8412,6.24106 c 1.985867,1.812 5.726533,2.83334 8.356133,2.2844 l 10.325069,-2.15986 c 2.62866,-0.54947 5.19213,-2.54427 5.7244,-4.45627 0.53333,-1.912 3.13906,-3.33493 5.82146,-3.1776 l 3.42494,0.19893 c 2.68173,0.15467 6.99266,-0.14266 9.62706,-0.66253 l 2.72294,-0.5364 c 2.636,-0.524 3.7276,-2.85467 2.4412,-5.21467 l -1.89174,-3.46666 c -1.288,-2.35987 -4.41813,-4.8932 -6.99013,-5.6676 l -11.1156,-3.33494 c -2.57347,-0.77346 -5.96613,0.34267 -7.57813,2.49067"
         style="fill:#9fa2a1;fill-opacity:1;fill-rule:nonzero;stroke:none;stroke-width:0.133333" />
      <path
         id="path32"
         d="m 72.219332,383.884 -2.1928,-8.4536 c -0.674934,-2.5984 -2.75,-6.26093 -4.6328,-8.1744 l -3.074,-3.13186 c -1.883334,-1.92027 -4.339467,-1.50307 -5.486933,0.9276 l -1.268267,2.68026 c -1.147333,2.43067 -2.547867,6.52547 -3.126,9.15054 l -0.124,0.5656 c -0.579067,2.62133 -0.900533,5.36773 -0.7172,6.1276 0.181867,0.75786 1.5756,2.4416 3.112,3.75626 1.533333,1.30933 4.794267,3.18907 7.2844,4.2016 l 4.008933,1.62387 c 2.488533,1.0104 4.291067,-0.33907 4.026533,-3.01347 l -0.146933,-1.46667 c -0.266133,-2.67453 0.422933,-3.77759 1.538,-2.46253 1.116133,1.31307 1.4756,0.27027 0.799067,-2.3308"
         style="fill:#7f8283;fill-opacity:1;fill-rule:nonzero;stroke:none;stroke-width:0.133333" />
      <path
         id="path33"
         d="m 96.992131,372.31214 2.922933,9.75053 c 0.770936,2.57613 0.117196,5.89066 -1.461466,7.40106 -1.578534,1.51774 -2.858267,4.3 -2.858267,6.2136 0,1.91347 1.369733,3.22654 3.061467,2.92907 1.690532,-0.2932 4.367202,-2.2744 5.979602,-4.42387 l 0.6896,-0.92133 c 1.61306,-2.148 2.04173,-5.8824 0.9584,-8.3396 L 95.995331,361.56374 c -1.083333,-2.45467 -1.642267,-2.2932 -1.246933,0.36413 l 0.134933,0.91347 c 0.3932,2.65733 1.337467,6.9 2.1088,9.4708"
         style="fill:#4c4e51;fill-opacity:1;fill-rule:nonzero;stroke:none;stroke-width:0.133333" />
      <path
         id="path34"
         d="m 128.4172,436.2304 c -0.4484,-1.6396 -0.4484,-4.63067 0,-6.676 0.44893,-2.04227 -0.20214,-4.73333 -1.45214,-6.0104 -1.25,-1.2776 -2.13533,-4.08027 -1.9744,-6.26827 0.15934,-2.18226 2.4224,-4.38226 5.05667,-4.9088 l 2.8808,-0.57506 c 2.63453,-0.5292 5.52253,-2.02654 6.4532,-3.34947 0.93067,-1.3156 2.112,-0.25053 2.63733,2.38547 l 2.116,10.59373 c 0.52667,2.63173 -0.1,6.67707 -1.4,9.02387 l -0.996,1.8052 c -1.30133,2.35053 -4.45866,4.8172 -7.05466,5.50786 l -0.75334,0.19747 c -2.59626,0.69053 -5.06453,-0.0813 -5.51346,-1.7256"
         style="fill:#4c4e51;fill-opacity:1;fill-rule:nonzero;stroke:none;stroke-width:0.133333" />
      <path
         id="path35"
         d="m 10.92344,392.94133 3.311493,2.32134 c 2.196267,1.54533 6.107733,3.25573 8.7348,3.8224 l 10.593333,2.27506 c 2.627066,0.564 6.911466,0.70627 9.5692,0.3172 l 12.548933,-1.83186 c 2.6584,-0.388 2.747466,-0.0161 0.197466,0.83186 l -11.583333,3.84787 c -2.549466,0.84533 -5.740133,3.3964 -7.1292,5.69587 l -3.883866,6.44266 c -1.3864,2.3016 -1.773867,2.11774 -0.861467,-0.41306 l 2.478133,-6.8656 c 0.909867,-2.52907 -0.435333,-5.2036 -3.009333,-5.976 l -11.375066,-3.4156 c -2.5724,-0.77507 -6.239467,-2.89894 -8.190053,-4.75107 l -1.85,-1.75573 c -1.9520802,-1.84534 -1.7505202,-2.09214 0.44896,-0.54534"
         style="fill:#e9e9e7;fill-opacity:1;fill-rule:nonzero;stroke:none;stroke-width:0.133333" />
      <path
         id="path36"
         d="m 62.513065,364.66014 2.990533,4.35053 c 1.521867,2.21347 3.533334,6.04267 4.4928,8.54947 l 0.0796,0.20933 c 0.959467,2.50787 1.4584,2.38493 1.114667,-0.27867 l -0.05947,-0.48013 c -0.342133,-2.66413 1.502667,-5.30427 4.1224,-5.9 l 5.330267,-1.2052 c 2.6192,-0.59227 2.5792,-0.82667 -0.08853,-0.52147 l -6.859333,0.78547 c -2.669333,0.3052 -6.2876,-1.06667 -8.082933,-3.06307 l -2.544267,-2.83586 c -1.7952,-1.9984 -2.016666,-1.824 -0.495733,0.3896"
         style="fill:#e9e9e7;fill-opacity:1;fill-rule:nonzero;stroke:none;stroke-width:0.133333" />
      <path
         id="path37"
         d="m 84.897865,418.29187 c 0.974533,1.40413 1.826666,4.71613 1.901066,7.40266 l 0.03853,1.3416 c 0.07453,2.68494 0.769867,2.788 1.545867,0.23174 0.778133,-2.55987 3.457867,-5.3744 5.9844,-6.2864 l 8.956802,-3.236 c 2.52813,-0.91347 2.44373,-1.20667 -0.18493,-0.6572 l -10.325072,2.15986 c -2.6296,0.54894 -5.862933,-0.009 -7.221866,-1.24946 -1.358267,-1.23747 -1.669734,-1.11094 -0.6948,0.2932"
         style="fill:#e9e9e7;fill-opacity:1;fill-rule:nonzero;stroke:none;stroke-width:0.133333" />
    </g>
  </g>
</svg>
