<?xml version="1.0" encoding="UTF-8"?>
<svg width="2666.7" height="2666.7" version="1.1" viewBox="0 0 2666.7 2666.7" xmlns="http://www.w3.org/2000/svg">
 <g>
  <path transform="matrix(.13333 0 0 -.13333 0 2666.7)" d="m2e4 0h-2e4v2e4h2e4v-2e4" fill="#262624"/>
  <g fill="#464642">
   <path transform="matrix(.13333 0 0 -.13333 0 2666.7)" d="m5202.7 15496c-24.53-257.6 196.24 821.8 318.9 1103.9s735.92 919.9 809.52 1030.3c73.59 110.4-674.6-735.9-870.85-699.1-196.24 36.8-625.54 576.4-662.33 515.1-31.55-52.6 502.88-613.3 527.42-858.6 24.53-245.3-98.13-834-122.66-1091.6"/>
   <path transform="matrix(.13333 0 0 -.13333 0 2666.7)" d="m3522.3 18612c183.98-12.2 748.21-674.6 772.74-637.8s-564.23 650.1-674.61 1042.6c-11.27 40.1-19.55 78.8-25.39 116.3 2.18 9.3 0.54 23.9-5.7 43.9-25.17 240.5 57.07 429.1 173.54 592.5 13.63 13.3 27.93 26.5 43.32 39.7 62.4 53.5 140.36 119.9 228.48 191h-108.97c-155.15-168.3-301.58-318.4-337.8-354.7-36.04-36-66.78-64.1-94.57-79.6-131.72-28.4-366.19 379.5-400.31 334-2.03-2.7-2.86-6.3-2.73-10.7-35.73 37.1-71.53 74.6-105.76 111h-35.69c144.95-196.1 362.16-480.1 446.39-638.2 32.19-78.1 53.48-158 53.48-234.8 0-331.2-699.12-993.5-784.98-1103.9s674.58 601 858.56 588.7"/>
   <path transform="matrix(.13333 0 0 -.13333 0 2666.7)" d="m1216.1 2e4h-206.53c-74.784-46.1-152.03-91.2-222.4-124.8-282.1-135-380.22-110.4-650.06-85.9-46.559 4.2-92.707 9.6-137.09 15.2v-188.6c31.156-19.3 51.227-38.9 51.227-59.6 0-25.7-17.758-83.8-51.227-162.7v-378.4c129.59 109.9 263.27 225.3 370.13 320.3 249.35 221.6 630.8 478 845.95 664.5"/>
   <path transform="matrix(.13333 0 0 -.13333 0 2666.7)" d="m112.56 17017c-41.778-83.5 797.25-36.8 968.96-196.2 171.72-159.5 723.67-1116.2 821.79-1251.1s-318.91 662.3-122.66 1116.1c196.24 453.9 502.88 834.1 551.94 919.9 49.07 85.9-551.94-502.8-772.72-613.2-220.77-110.4-441.55-12.3-674.6 12.2-145.23 15.3-400 35.4-577.34 36.4-88.743 8.4-195.32 18.5-307.94 29.3v-35c53.555-0.2 105.25-0.9 154.13-1.8-23.133-3.8-37.903-9.2-41.578-16.6"/>
   <path transform="matrix(.13333 0 0 -.13333 0 2666.7)" d="m2970.4 13448c73.59-171.8 61.32-429.3-36.8-772.8-98.12-343.4 85.86 184 331.17 466.1s466.08 368 551.94 417c85.86 49.1-269.83-110.3-588.74 12.3-318.9 122.7-549.96 607.2-502.88 441.6 66.47-233.8-85.13-252.8-367.96-220.8-134.06 15.1 539.68-171.7 613.27-343.4"/>
   <path transform="matrix(.13333 0 0 -.13333 0 2666.7)" d="m7491.2 18592c189.5-75.8 132.65 56.9 37.9 227.4-94.75 170.6-170.55 360.1-227.4 227.4-56.85-132.6-739.06-1118-776.96-1193.8-54.26-108.6 776.96 814.8 966.46 739"/>
   <path transform="matrix(.13333 0 0 -.13333 0 2666.7)" d="m8343.9 16924c18.95-151.6 0 701.2 56.85 909.6 56.85 208.5 37.9 189.5-113.7 227.4s-303.2 151.6-303.2 151.6c-56.85 56.9 0-113.7 75.8-322.1 75.8-208.5 265.3-814.9 284.25-966.5"/>
   <path transform="matrix(.13333 0 0 -.13333 0 2666.7)" d="m10675 18838c75.8 56.8 75.8 492.7 19 416.9-56.9-75.8-189.5-246.4-871.75-606.4-101.94-53.8 776.95 132.6 852.75 189.5"/>
   <path transform="matrix(.13333 0 0 -.13333 0 2666.7)" d="m11073 17606c-7-132.5 75.8 720.1 170.5 966.5 94.8 246.3 303.2 379 94.8 284.2-208.5-94.7-322.2-75.8-322.2-75.8-18.9-56.8 94.8-454.8 56.9-1174.9"/>
   <path transform="matrix(.13333 0 0 -.13333 0 2666.7)" d="m12456 18990-625.3 435.8c75.8-113.7 94.7-284.2-75.8-379 0 0 303.2 19 701.1-56.8"/>
   <path transform="matrix(.13333 0 0 -.13333 0 2666.7)" d="m13650 18421c37.9-56.9-80.3 350.9 185 616.2 94.8 94.8-355.6-199.3-1056.7-85.6-52.9 8.6 511.6-132.7 701.1-265.3 189.5-132.7 132.7-208.5 170.6-265.3"/>
   <path transform="matrix(.13333 0 0 -.13333 0 2666.7)" d="m13688 18175c-11.5-448-273.7-1021.4-478.5-1403.5 491.8 781.1 1070.2 1385.9 876.4 1233-360-284.3-394.5 304.5-397.9 170.5"/>
   <path transform="matrix(.13333 0 0 -.13333 0 2666.7)" d="m13209 16771c-84.5-134.4-166.5-273.9-241.6-415.7 0 0 108.7 167.5 241.6 415.7"/>
   <path transform="matrix(.13333 0 0 -.13333 0 2666.7)" d="m11850 16052c56.8-56.8 606.4-322.1 625.4-701.1 18.9-379-398-1137-416.9-1212.9-19-75.8 322.1 511.7 435.8 606.4 113.7 94.8 625.4-322.1 549.6-189.5-75.8 132.7-416.9 644.4-416.9 871.8s214.9 605.9 189.5 682.2c-19 56.8-189.5-227.4-341.1-227.4s-682.2 227.4-625.4 170.5"/>
   <path transform="matrix(.13333 0 0 -.13333 0 2666.7)" d="m9841 16280c113.7 19 701.2 265.3 966.5 208.5 265.3-56.9 682.2-303.2 833.8-360.1 151.6-56.8-416.9 284.3-511.7 454.8-94.7 170.6-56.8 549.6-56.8 625.4 0 0-113.7-379-246.4-492.7-132.6-113.7-1099.1-454.8-985.4-435.9"/>
   <path transform="matrix(.13333 0 0 -.13333 0 2666.7)" d="m8402.6 16302c-1.04 21.9-1.78 34.6-1.78 34.6 0-10 0.62-21.7 1.78-34.6"/>
   <path transform="matrix(.13333 0 0 -.13333 0 2666.7)" d="m8400.8 15787c-18.95-227.4-132.65-1193.8-132.65-1193.8s189.5 758 227.4 928.5c37.9 170.6 625.35 492.7 625.35 492.7s-379-113.7-511.65-113.7c-120.97 0-194.64 267.9-206.67 401.3 4.23-89 13.43-332.5-1.78-515"/>
   <path transform="matrix(.13333 0 0 -.13333 0 2666.7)" d="m8059.7 13911c-94.75-75.8-644.31-379-682.21-416.9s739.06 284.3 852.76 170.6 435.85-568.5 435.85-568.5-341.11 625.3-397.96 776.9c-56.84 151.6-18.94 530.7-18.94 530.7s-94.75-417-189.5-492.8"/>
   <path transform="matrix(.13333 0 0 -.13333 0 2666.7)" d="m6051 13475c-208.46 75.8-985.41 341.1-1061.2 511.6-75.8 170.6 94.75 777 94.75 777s-208.45-739.1-284.25-871.7c-75.8-132.7-473.76-246.4-473.76-246.4h606.41c322.15 0 1326.5-246.3 1118.1-170.5"/>
   <path transform="matrix(.13333 0 0 -.13333 0 2666.7)" d="m7225.9 13475s-304.85-158.2-492.71-189.5c-113.7-19-473.75 113.7-473.75 113.7s265.3-113.7 397.95-265.3 435.86-606.4 435.86-606.4-208.45 568.5-113.7 682.2 246.35 265.3 246.35 265.3"/>
   <path transform="matrix(.13333 0 0 -.13333 0 2666.7)" d="m2658.9 11959c-113.7-170.6-492.7-663.3-739.06-1099.1 416.91 625.3 720.11 795.9 852.76 852.7 132.65 56.9 322.16-132.6 322.16-132.6-227.41 473.7-189.51 852.7-189.51 852.7s-132.65-303.2-246.35-473.7"/>
   <path transform="matrix(.13333 0 0 -.13333 0 2666.7)" d="m1725.9 10609c2.86 3.3 4.4 5.1 4.4 5.1s-1.57-1.8-4.4-5.1"/>
   <path transform="matrix(.13333 0 0 -.13333 0 2666.7)" d="m1725.9 10609c-44.88-52.5-425-492.1-620.95-563.4-208.46-75.8-966.46 37.9-966.46 37.9s701.15-132.6 871.7-189.5c170.56-56.9 341.11-625.4 341.11-625.4s-113.7 473.8-94.75 644.4c17.86 160.7 422.87 641.3 469.35 696"/>
   <path transform="matrix(.13333 0 0 -.13333 0 2666.7)" d="m4307.6 9457.9c189.51-37.9 871.71-701.2 871.71-701.2s-720.1 852.7-776.96 1023.3c-56.85 170.6 587.46 682.2 587.46 682.2s-568.51-303.2-776.96-360c-208.45-56.9-511.65 416.9-511.65 416.9s265.3-511.7 246.35-701.2-606.4-852.8-758-1004.4c454.8 341.1 928.55 682.3 1118 644.4"/>
   <path transform="matrix(.13333 0 0 -.13333 0 2666.7)" d="m7714.9 11705c87.48 9.8 155.28 26.8 155.28 26.8s-54.14-5.7-155.28-26.8"/>
   <path transform="matrix(.13333 0 0 -.13333 0 2666.7)" d="m7714.9 11705c-97.56-11-219.6-13.2-299.53 26.8-151.6 75.8-189.5 435.8-189.5 435.8s-56.85-208.4-189.5-360-1421.3-1042.3-1421.3-1042.3c1017.6 659.3 1785.8 874.1 2099.8 939.7"/>
   <path transform="matrix(.13333 0 0 -.13333 0 2666.7)" d="m8704 12983c208.45-398 227.4-568.5 151.6-663.3-75.8-94.7-284.25-284.2-701.15-473.7-86.26-39.2 265.3-113.7 473.75-435.9 208.45-322.1 360.05-549.5 284.25-341.1-75.8 208.5-341.09 587.5-265.3 795.9 75.8 208.5 435.85 473.8 682.21 435.9 246.35-37.9 246.35-19 0 75.8-246.36 94.7-454.81 379-625.36 606.4"/>
   <path transform="matrix(.13333 0 0 -.13333 0 2666.7)" d="m10133 12008c-58.6 25-118.1 47.3-178 65.5 62.3-25.5 121.6-47.1 178-65.5"/>
   <path transform="matrix(.13333 0 0 -.13333 0 2666.7)" d="m6714.2 7183.8c-189.5-37.9-492.71 322.2-833.81 625.4 0 0 776.96-833.8 776.96-1061.2 75.8 132.6 549.55 606.4 758.01 833.8 208.45 227.4 454.8 227.4 795.9 56.8-322.15 246.4 189.5 1364.4 435.85 1800.3-132.65-170.6-720.1-1004.4-966.46-1269.7-246.35-265.3-776.95-947.5-966.45-985.4"/>
   <path transform="matrix(.13333 0 0 -.13333 0 2666.7)" d="m2336.7 7221.7c-56.85 303.2-94.75 454.8 151.6 852.8 246.35 397.9-37.9 132.6-151.6 56.8s-284.25-246.3-473.75 19-416.91 758-416.91 758 75.8-284.3-37.9-435.9-890.66-151.6-890.66-151.6c454.8-18.9 1004.4 37.9 1307.6-284.2 303.2-322.2 341.1-511.7 511.65-814.9"/>
   <path transform="matrix(.13333 0 0 -.13333 0 2666.7)" d="m3511.6 5440.4c-492.7 18.9-701.16 189.5-852.76 549.6 170.55-473.8 56.85-758-170.55-1137.1 246.35 284.3 454.8 549.6 1023.3 587.5"/>
   <path transform="matrix(.13333 0 0 -.13333 0 2666.7)" d="m7282.7 5004.6c-303.19 360-720.1 966.4-776.95 1231.7-18.95-132.6-208.46-454.8-341.11-492.7s-1250.7-170.6-1800.3-227.4c0 0 1819.2 113.7 2103.5 113.7 284.25 0 511.65-379 814.85-625.3"/>
   <path transform="matrix(.13333 0 0 -.13333 0 2666.7)" d="m11050 6534.8c-8.3 2.1-19.7 4.1-33.5 5.8 41.2-8.8 56.6-11.5 33.5-5.8"/>
   <path transform="matrix(.13333 0 0 -.13333 0 2666.7)" d="m10150 6412c176.3 138.6 701.4 149.2 866.9 128.6-153.4 32.5-665.3 148-880.5 212.5-272.86 81.9-900.42 450.2-859.5 368.4 34.52-69.1 613.92-313.8 668.49-518.5 54.57-204.6-286.49-1118.6-327.42-1227.8-40.93-109.1 341.06 886.8 532.03 1036.8"/>
   <path transform="matrix(.13333 0 0 -.13333 0 2666.7)" d="m10859 2660.3c-54.5 163.8 27.3 586.7 81.9 682.2s-245.6-81.9-873.1-41c-627.58 41-764.01 286.5-818.58 382s54.57 573 163.71 995.9c109.14 423 163.71 545.7 81.86 409.3-81.86-136.4-559.35-900.4-709.42-1118.7-87.76-127.6-194.15-124.6-283.76-91.9-134.86 89.5-318.26 200.5-493.86 310.2-109.14 68.2-463.85 573-477.49 518.4 0 0 313.78-395.6 300.14-518.4-13.65-122.8-409.28-463.8-532.06-559.3-122.79-95.5-777.63-518.5-1186.9-736.7-204.64-109.2-27.28-81.9 272.85 68.2 300.14 150 654.85 341 750.34 245.5 95.5-95.5 191-436.5 191-272.8s54.57 532.1 218.28 764 317.07 263.2 409.28 300.1c102.21 40.9 434.05-98.1 565.45-150.4 112.5-69.7 266.5-160 416.81-231.6 286.49-136.4 654.84-395.6 627.56-504.8-23.01-92-540.7-319.8-612.5-356.3-296.15-102-579.57-193.5-833.61-216.6-300.14-27.3-600.27 81.8-600.27 81.8 68.21-95.5 272.85-286.5 313.78-450.2 40.92-163.7 95.49-382 54.57-532.1-40.93-150 231.92 423 450.2 641.2 210.4 210.4 471.54 382.7 746.7 517.1 398.73 120.8 922.33 174.9 1231.4 137.8 341.1-40.9 600.3-436.6 545.7-272.9"/>
   <path transform="matrix(.13333 0 0 -.13333 0 2666.7)" d="m1955.4 3885.4c14.49 19 22.74 30 22.74 30s-9.24-10.9-22.74-30"/>
   <path transform="matrix(.13333 0 0 -.13333 0 2666.7)" d="m2948.9 0h35.69c-62.56 66.5-119.71 129-160.61 177.4 22.04-36.703 67.92-100.3 124.92-177.4"/>
   <path transform="matrix(.13333 0 0 -.13333 0 2666.7)" d="m4819.2 1261.9-71.66 143.3c-95.49 177.4-259.21 491.2-122.78 668.5 279.49 363.4 941.34 518.4 1036.8 586.6 0 0-395.64-95.5-572.99-68.2-177.36 27.3-354.71 81.9-477.49 122.8 177.35-122.8 300.13-150.1 204.64-245.6-95.5-95.5-163.71-354.7-422.92-477.4-259.21-122.8-409.28 177.3-518.42 327.4-109.14 150-150.07 354.7 13.64 382s381.99 27.3 381.99 27.3-695.77 81.8-1132.3 204.6-1091.4 245.6-1241.5 477.5c-120.23 185.8 4.68 397.8 59.12 474.7-86.17-112.5-394.51-504-522.96-515.6-150.07-13.7-600.27-13.7-600.27-13.7s832.19-27.3 1091.4-150.1c259.21-122.7 327.42-231.9 354.71-395.6 27.28-163.7 68.21-354.7-81.86-532.1-150.07-177.3-1118.7-68.2-1309.7-68.2 368.34-95.5 954.97-218.2 1009.5-354.7 38.13-95.3 3.01-303.7-21.62-420.7-202.33-639.1-417.59-1000.6-619.58-1189.1-82.85-77.301-156.76-165.8-244.36-245.6h136.02c187.36 153.6 349.29 286.5 422.12 341.1 163.71 122.8 518.42 395.6 668.48 327.4 150.07-68.199 559.35-368.3 559.35-368.3s-668.49 559.3-777.63 736.7c-63.21 102.7-30.32 448-31.2 593.1 63.41 128.7 140.23 277.3 208.56 389.1 150.07 245.6 354.71 709.5 518.42 764 163.71 54.6 422.92 13.7 668.49-150 245.56-163.8 845.84-791.3 1036.8-996 76.29-81.7 176.51-200.4 269.38-313.6 171.37-452.3-249.74-685.1-392.16-886.9-78.48-111.2-228.75-281.6-371.62-436.6h108.97c316.42 255.2 764.05 570.1 1094.8 559.4 422.92-13.699 1064.1-245.6 1064.1-245.6s-654.85 300.2-859.49 422.9c-133.54 80.195-336.77 317.1-514.97 525.2"/>
   <path transform="matrix(.13333 0 0 -.13333 0 2666.7)" d="m2e4 19044v248.1c-137.8-210.5-382-547.5-382-547.5 38.9-23.3 193.3 122.1 382 299.4"/>
   <path transform="matrix(.13333 0 0 -.13333 0 2666.7)" d="m19877 19741c48.1-20.6 89.2-42.1 122.8-64.8v95.1c-164.4 9.5-234.4 17.5-122.8-30.3"/>
   <path transform="matrix(.13333 0 0 -.13333 0 2666.7)" d="m6834.9 95.5c-122.78-27.199-409.27 41-518.42 95.5-36.51 18.301 75.17-71.797 228.54-191h464.33c0.76 4.6992 1.71 9.3008 2.91 13.602 40.92 150.1 122.78 313.9 122.78 313.9s-177.35-204.7-300.14-232"/>
   <path transform="matrix(.13333 0 0 -.13333 0 2666.7)" d="m11528 1896.4c-136.4-95.5-231.9-68.3-341 163.7-109.2 231.9-272.9 436.5-245.6 313.7 19.9-89.3 81.9-504.7 68.2-763.9-13.6-259.2-68.2-818.6-68.2-900.4 0-81.898 163.7 627.5 327.4 845.8s395.7 436.6 259.2 341.1"/>
   <path transform="matrix(.13333 0 0 -.13333 0 2666.7)" d="m10831 0h85.1c34 94.602 70.4 168.3 106.9 150.1 45.8-22.903 160.2-92.903 251.9-150.1h47.7c-134 135-385.2 397.6-395.1 477.5-3.9 31.102-58.4-242.6-96.5-477.5"/>
   <path transform="matrix(.13333 0 0 -.13333 0 2666.7)" d="m14388 2029.6c-259.6 87.2-1137.5 390.7-1346.1 576.2-245.6 218.3-436.6 682.1-395.7 982.2 40.9 300.2 463.9 300.2 695.8 300.2s791.3 95.5 286.5 136.4-1105.1 13.6-1227.8 313.8c136.4-354.7 150-463.9 109.1-627.6s-300.1-259.2-791.3-300.1c0 0 485-70.9 559.4-232 81.8-177.3-95.5-491.1-122.8-559.3 177.3 204.7 382 245.6 491.1 163.7 109.2-81.8 627.6-382 941.4-982.2 324.3-620.4-41 245.5 40.9 354.7 66.2 88.2 569.1-64.3 759.5-126"/>
   <path transform="matrix(.13333 0 0 -.13333 0 2666.7)" d="m14388 2029.6c46-15.4 72.7-24.1 72.7-24.1s-27.6 9.5-72.7 24.1"/>
   <path transform="matrix(.13333 0 0 -.13333 0 2666.7)" d="m14048 854.5s43.8-481.9 31.5-854.5h196.6c145.6 148.9 311.1 257.2 454.1 304.9-322.1-75.8-568.5 246.4-682.2 549.6"/>
   <path transform="matrix(.13333 0 0 -.13333 0 2666.7)" d="m17810 584c18.2 70.301 28.3 118.9 28.3 118.9s-14.9-48.902-28.3-118.9"/>
   <path transform="matrix(.13333 0 0 -.13333 0 2666.7)" d="m16296 2082.8c-6.9 25.8-11.6 41.3-11.6 41.3s4.1-15.7 11.6-41.3"/>
   <path transform="matrix(.13333 0 0 -.13333 0 2666.7)" d="m16530 1650.4c-107.5 30.7-202.5 322.7-234.7 432.4 29.7-111.1 99.5-412.4 7.3-489.3-113.7-94.7-454.8-37.9-833.8 94.8-379 132.6-795.9 208.4-795.9 208.4 56.8-18.9 776.9-341.1 928.5-473.7 128.5-112.4 311.4-211.3 295-400.3-27.4-34.001-61.9-72.2-105.5-111.4-189.5-170.5-454.8-303.2-871.7-530.6-49.9-27.199 473.8 132.7 871.7 94.801 398-37.898 739.1-193 1099.2-475.5h1449.1c-207.3 36.801-397.3 82.699-463.7 134.4-113.5 88.204-92.8 310.6-66.2 449.6-42.8-165.7-130.6-452-237-506.5-151.6-77.5-1004.4 227.4-1307.6 416.9-298.4 186.6-266.4 464.8-265.3 600 57.7 134 203.1 320.5 568.5 442.3 625.4 208.4 890.7 303.2 890.7 303.2s-796-227.4-928.6-189.5"/>
   <path transform="matrix(.13333 0 0 -.13333 0 2666.7)" d="m18975 3033.7c-113.7-360-132.7-511.6-303.2-625.3-170.6-113.7-549.6-322.2-1212.8-568.5 208.4 0 379 18.9 379-94.8s94.7-246.3 37.9-833.8c0 0 360 871.7 568.5 1156 208.4 284.2 587.4 303.2 833.8 284.2-265.3 75.8-341.1 322.2-303.2 682.2"/>
   <path transform="matrix(.13333 0 0 -.13333 0 2666.7)" d="m18160 4170.8c-151.6 113.7-341.1 189.5-265.3 587.4-75.8-303.2-1023.3-454.8-1610.7-473.7 1269.6-19 2311.9-492.7 2482.4-568.5 170.6-75.8 208.5-208.5 246.4-530.6 56.8 265.3 189.5 322.1 473.7 341 144.7 9.7 348.3-15 513.4-41.6v17.5c-270.9 67.7-665.6 166.4-854.5 213.7-303.2 75.8-833.8 341.1-985.4 454.8"/>
   <path transform="matrix(.13333 0 0 -.13333 0 2666.7)" d="m16373 4245c-106.2-6.6-530.5-29.1-695.8 20.5-189.5 56.9-587.4 682.2-587.4 682.2 284.3-606.4 208.4-720.1-265.3-795.9-473.8-75.8-909.6-227.4-758-208.4 151.6 18.9 1023.3 94.7 1155.9 56.8 132.7-37.9 208.5-246.3 435.9-625.3-113.7 341.1 37.9 473.7 170.5 663.2 113.8 162.5 450.6 199.6 544.2 206.9"/>
   <path transform="matrix(.13333 0 0 -.13333 0 2666.7)" d="m16373 4245c15.6 0.9 24.4 1.6 24.4 1.6s-8.9-0.4-24.4-1.6"/>
   <path transform="matrix(.13333 0 0 -.13333 0 2666.7)" d="m14495 5738.8c53.8-98.3 102.2-146.8 102.2-146.8s-43 63.1-102.2 146.8"/>
   <path transform="matrix(.13333 0 0 -.13333 0 2666.7)" d="m14495 5738.8c-67.7 123.7-144.2 326.2-144.2 611.2 0 511.7-94.7 720.1 360.1 852.8-398-56.9-606.4-132.7-947.5 341.1 170.5-360.1 303.2-587.5 360-814.9 56.9-227.4 75.8-454.8-75.8-416.9s-985.4 284.3-985.4 284.3 1023.3-360.1 1137-473.8c69.5-69.5 202.7-252.2 295.8-383.8"/>
   <path transform="matrix(.13333 0 0 -.13333 0 2666.7)" d="m12115 6634.3c170.6 75.8 814.9-37.9 814.9-37.9s-644.3 265.3-625.4 360c19 94.8 265.3 758 265.3 758s-341.1-644.3-587.4-890.6c-246.4-246.4-758-284.3-758-284.3s568.5 0 625.3-113.7c56.9-113.7 189.5-379 246.4-644.3 0 0-151.6 777 18.9 852.8"/>
   <path transform="matrix(.13333 0 0 -.13333 0 2666.7)" d="m13062 8377.7c132.7-75.8 625.4-720.1 625.4-720.1s-549.6 928.6-625.4 1231.8-56.8 682.1 189.5 928.5c-246.3-170.5-624.4 5.9-738.1 157.5-113.7 151.7-184.8 436.4-71.1 569-265.3-56.8-327.8 69.4-649.9 240 38.9-36.3 84.9-85.5 135.3-143.2-15.7 12.3-33.1 24.8-52.3 37.1 31-27.1 57.6-49.8 78.5-67.4 318.3-371.2 786-1039.3 786-1039.3 75.8-113.7 189.5-246.4 151.6-644.3-37.9-398-189.5-928.6-189.5-928.6s227.4 454.8 360 379"/>
   <path transform="matrix(.13333 0 0 -.13333 0 2666.7)" d="m11155 11419c-40.6 64.3-77.8 128.6-100.9 180.6-75.8 170.6 170.6 663.3 303.2 1042.3-113.7-246.4-397.9-701.2-549.5-720.1-129-16.1-353.9-18.5-674.8 86.1 368.4-157.1 703.4-426.5 883.2-540.9 113.7-132.7 189.5-303.2 113.7-473.8-75.8-170.5-701.2-587.4-701.2-587.4s682.3 360 1004.4 379c203.4 11.9 346.3-44.1 443.1-106.1-181.9 159.3-513.5 468.2-721.2 740.3"/>
   <path transform="matrix(.13333 0 0 -.13333 0 2666.7)" d="m9959.9 10228c141.94 35.5 260.14 82.8 260.14 82.8s-109.6-31.7-260.14-82.8"/>
   <path transform="matrix(.13333 0 0 -.13333 0 2666.7)" d="m9007.2 10841s132.65-511.6 37.9-776.9-397.95-625.4-397.95-625.4 284.25 246.4 568.5 454.8c173.36 127.1 508.85 254.3 744.22 334.1-142.22-35.6-308.27-59.4-403.12-11.9-189.5 94.7-454.8 530.6-549.55 625.3"/>
   <path transform="matrix(.13333 0 0 -.13333 0 2666.7)" d="m12727 10651c598.4 399.9 592.8 130.3 782.3 35.6-56.8 56.8-11.2 268.2-68.1 609.3-21.4 128.5 4.1 287.3 41.6 430 115.4 231.4 345.7 667.1 621.7 1048.2 397.9 549.5 530.6 739 871.7 720.1 341.1-19 814.8-189.5 985.4-416.9 170.6-227.5 94.8-720.2-56.9-1231.8 208.5 644.3 360.1 1080.2 530.7 1193.8 157.1 104.8 555.4 97 617.2 95.1-75.7 2.8-662.5 29.7-768.8 189.2-113.7 170.6-94.8 947.5-37.9 1231.8-151.6-530.6-189.6-587.5-284.3-682.2-94.8-94.8-758-227.4-1193.9-303.2-435.8-75.8-776.9-113.7-1307.5 492.7 397.9-454.9 625.3-720.1 587.4-890.7-31-139.5-340.9-874.9-535.7-1345.4 35.2 112.3 73.1 204.8 92.3 249-320.1-692.2-670.4-1161.3-877.2-1424.6"/>
   <path transform="matrix(.13333 0 0 -.13333 0 2666.7)" d="m13604 12076c2.6 5.5 5.1 10.8 7.6 16.2 9.7 21.3 5.2 13.1-7.6-16.2"/>
   <path transform="matrix(.13333 0 0 -.13333 0 2666.7)" d="m13440 10004c-34-32.5-54.8-53.3-54.8-53.3s22.8 19.7 54.8 53.3"/>
   <path transform="matrix(.13333 0 0 -.13333 0 2666.7)" d="m15916 12007c5.1 18.3 7.9 28.4 7.9 28.4s-2.8-10-7.9-28.4"/>
   <path transform="matrix(.13333 0 0 -.13333 0 2666.7)" d="m17053 13134c5.3-0.2 8.1-0.3 8.1-0.3s-2.8 0.1-8.1 0.3"/>
   <path transform="matrix(.13333 0 0 -.13333 0 2666.7)" d="m15728 10260c3.4-0.8 6.1-1.5 8.3-2.1-2.4 0.6-5.2 1.4-8.3 2.1"/>
   <path transform="matrix(.13333 0 0 -.13333 0 2666.7)" d="m15728 10260c-7.6 1.9-16.6 4.2-25 6.3 10.5-2.7 18.7-4.7 25-6.3"/>
   <path transform="matrix(.13333 0 0 -.13333 0 2666.7)" d="m15744 10256c0.7-0.1 0.7-0.1 0 0"/>
   <path transform="matrix(.13333 0 0 -.13333 0 2666.7)" d="m15744 10256c-0.8 0.2-2.5 0.7-5.6 1.4 2.7-0.6 4.7-1.1 5.6-1.4"/>
   <path transform="matrix(.13333 0 0 -.13333 0 2666.7)" d="m15707 10248c-3.5 6.4-7.1 13.1-10.6 20.1-34.7 69-67.5 169.1-75.7 307.9-17.2 292 245.8 1253.2 295.3 1430.8-45.7-161.1-280.5-967-484.8-1222.3-227.4-284.3-739.1-227.4-1174.9-265.3-435.9-37.9-587.5 37.9-739.1 113.7 272.2-208.2 37.4-508.2-77.8-628.9 91.9 87.8 280.6 261.6 418.9 344.6 189.5 113.7 701.2 75.8 1326.5 0 304.2-36.8 455.9-87.2 531.6-129.1l112.8-155.1c75.8-113.7 56.8-511.7 75.8-833.8 56.8 568.5 75.8 833.8 303.2 852.7 227.4 19 1004.3 246.4 1004.3 246.4s-1213.1-281.3-1505.5-81.7"/>
   <path transform="matrix(.13333 0 0 -.13333 0 2666.7)" d="m17895 6975.4c-151.6-37.9-720.1 132.6-720.1 132.6s682.2-284.2 814.9-341.1c132.6-56.8-19-701.1 18.9-1269.6 0 189.5 132.7 947.5 208.5 1269.6 75.8 322.2 568.5 1193.9 568.5 1193.9s-739.1-947.5-890.7-985.4"/>
   <path transform="matrix(.13333 0 0 -.13333 0 2666.7)" d="m16019 7562.9c-170.6 113.7-113.7 549.5-113.7 549.5s-75.8-435.8-132.7-530.6c-56.8-94.8-587.4-284.3-587.4-284.3s492.7 170.6 644.3 170.6 739-113.7 739-113.7-379 94.8-549.5 208.5"/>
   <path transform="matrix(.13333 0 0 -.13333 0 2666.7)" d="m18369 10822s-37.9-170.6-265.3-265.3c-227.4-94.8-758-265.3-758-265.3s833.8 132.6 1080.1 94.7c246.4-37.9 511.7-75.8 625.4-246.3 113.7-170.6 170.5-606.4 113.7-1023.3-56.9-416.9-379-1156-379-1156s416.9 303.2 1118 360.1c-284.2 56.8-606.4 75.8-606.4 151.6s-37.9 530.6 19 776.9c56.8 246.4 322.2 833.8 606.4 814.9 25.8-1.7 51.7-3.9 77.5-6.5v49.4c-175.4 43.7-364.7 86.4-513.4 108.7-379 56.8-1118 379-1118 606.4"/>
   <path transform="matrix(.13333 0 0 -.13333 0 2666.7)" d="m17478 13115c435.9-113.7 890.7-208.5 928.6-322.2s56.8-947.5 56.8-947.5 189.5 871.7 473.8 1383.4c-189.5-189.6-871.7-227.4-1459.2-113.7"/>
   <path transform="matrix(.13333 0 0 -.13333 0 2666.7)" d="m19278 15105s379-284.2 379-492.7c0-208.4-341.1-739-341.1-739s399.7 483 683.9 512.1v277c-32.1 17-58.5 32-77.5 44.7-227.4 151.6-644.3 397.9-644.3 397.9"/>
   <path transform="matrix(.13333 0 0 -.13333 0 2666.7)" d="m17516 13507c-12.1-32.5-18.7-50.6-18.7-50.6s6.7 18.1 18.7 50.6"/>
   <path transform="matrix(.13333 0 0 -.13333 0 2666.7)" d="m17971 16469s-330.6-135.2-590.4-218.4c228.4 51.7 299.7-88.7 400.9-274.3 113.7-208.4 322.2-568.5 303.2-776.9-16.9-185.8-470.4-1425.7-568.7-1692.8 101.9 274.7 593.8 1581.5 804.8 1782.4 73.9 70.4 218.7 24.1 484 5.1-208.4 113.7-758 473.8-890.6 739.1-132.7 265.3 56.8 435.8 56.8 435.8"/>
   <path transform="matrix(.13333 0 0 -.13333 0 2666.7)" d="m17380 16251c-28.1-6.3-58.5-15.4-91.8-27.9 29.1 8.3 59.9 17.7 91.8 27.9"/>
   <path transform="matrix(.13333 0 0 -.13333 0 2666.7)" d="m18723 17324c-132.8 230 86.6 570.8 383.2 834.4-369.2-334-668.1-404.3-668.1-404.3-298.9 123-545 791.1-685.6 1177.9-100.3 275.6-138 515.5-125.9 662.4 100.1 120.3 250.6 254.2 457.7 274.9 379 37.9 947.5 37.9 947.5 37.9s-367.3 35.3-692.2 93h-1449.1c200.6-157.5 348.3-333.1 446.3-454.4 226.2-439.4 519.3-1263.3 609-1457.7 50.9-110.1-65.7-265.1-200-396.2 127.6 82 273.3 145 393.4 114.9 246.2-61.5 357.7-271.1 534.8-452.1 14-35.6 87.3-234.1 35.7-354.5-56.9-132.6-473.8-341.1-473.8-341.1s360.1 94.8 739.1 265.3c207.4 93.4 658.8 112.9 1025 111.5v35c-297.1 28.5-635.8 61.9-797.6 80.9-227.9 26.9-398.8 120-479.4 172.2"/>
   <path transform="matrix(.13333 0 0 -.13333 0 2666.7)" d="m0 3484.8c159.19-25.7 282.54-53.1 282.54-53.1s-118.58 29.6-282.54 70.6v-17.5"/>
   <path transform="matrix(.13333 0 0 -.13333 0 2666.7)" d="m0 10058c259.21-25.6 509.95-88.3 509.95-88.3s-238.09 70.1-509.95 137.7v-49.4"/>
   <path transform="matrix(.13333 0 0 -.13333 0 2666.7)" d="m55.148 14385c284.25-37.9 1364.4-322.1 1364.4-322.1s-1066.5 413.8-1419.6 599.6v-277c18.945 2 37.379 1.9 55.148-0.5"/>
   <path transform="matrix(.13333 0 0 -.13333 0 2666.7)" d="m16436 16792c94.7-170.6 94.7-682.2 75.8-1042.3 0 0 265.3 341.1 454.8 379-265.3 94.8-435.9 511.7-246.4 739.1 145.5 174.6 413.8 360.3 530.6 437.2-148.6-93.6-548.2-331.5-701.1-285.6-189.5 56.8-1118.1 795.9-1118.1 795.9s909.6-852.8 1004.4-1023.3"/>
   <path transform="matrix(.13333 0 0 -.13333 0 2666.7)" d="m17250 17305c35.6 22.4 56.9 36.6 56.9 36.6s-21.5-13.4-56.9-36.6"/>
   <path transform="matrix(.13333 0 0 -.13333 0 2666.7)" d="m17436 17437s165.2 113.3 309.8 254.3c-171.3-110-309.8-254.3-309.8-254.3"/>
   <path transform="matrix(.13333 0 0 -.13333 0 2666.7)" d="m14324 19072c193.4-123 474.7-580.1 492.2-615.3 17.6-35.2-421.9 861.5-527.4 1090-80.6 174.8-120.1 267.3-95 362.1 26.4 31.7 53.8 62 82 90.8h-196.6c-3.2-98.4-10.4-189.1-23.3-261.4-1.8-9.1-3.6-18.4-5.4-27.8-0.9-4.2-1.8-8.3-2.8-12.3l0.6 0.9c-50.3-260.9-106-615.8-106-615.8s188.3 111.9 381.7-11.2"/>
  </g>
  <g fill="#858079">
   <path transform="matrix(.13333 0 0 -.13333 0 2666.7)" d="m1523.2 17252c253.9 126.9 1576.4 1444.3 1692.6 1734.9 92.79 232-170.48 667.4-476.11 1013.5h-77.85c118.87-135.2 232.01-293.8 321.41-458.4 248.93-458.4 35.56-711.3-142.26-853.5-177.81-142.3-817.92-640.1-1351.3-782.4-308.27-82.2-1008.4-69.4-1489.7 17.9v-654.4c664.98-71.4 1371-93.8 1523.2-17.6"/>
   <path transform="matrix(.13333 0 0 -.13333 0 2666.7)" d="m1307.3 2e4c-392.29-308.5-874.24-718.4-1307.3-1119.1v-189.6c415.22 397.8 1008.5 941.6 1460.6 1308.7h-153.34"/>
   <path transform="matrix(.13333 0 0 -.13333 0 2666.7)" d="m3688.7 19449c-139.98-490 1396.4-2200.5 1692.6-2242.8s1819.6 1777.3 1777.3 2031.2c-23.89 143.3-438.91 489-864.34 762.8h-183.62c536.44-337.8 890.23-833.2 784.47-991.9-142.24-213.3-924.61-1244.6-1280.2-1244.6s-995.73 604.5-1351.4 1066.8c-355.61 462.3-284.49 818-71.12 995.8 57.02 47.5 145.64 110 253.27 173.9h-227.11c-257.64-145.7-466.95-330.9-529.9-551.2"/>
   <path transform="matrix(.13333 0 0 -.13333 0 2666.7)" d="m2145.6 16627c38.93 537.2 895.26 1522.9 1200.5 1653.2 314.97 134.5 1606.4-1462.1 1606.4-1769.1 0-194.4-63.9-1336.5-411.35-2021.3-116.82-230.2-1133.8-43.1-1244.7 23.5-352.29 211.3-1189.7 1576.5-1150.8 2113.7zm1109-2815c139.72-15.5 1184.8 0 1311.8 253.9 377.56 755.1 550.11 2197.7 550.11 2412 0 338.5-1396.4 2073.5-1819.6 1861.9-323.38-161.7-1354.1-1311.8-1396.4-1904.2-42.31-592.4 973.28-2581.3 1354.1-2623.6"/>
  </g>
  <path transform="matrix(.13333 0 0 -.13333 0 2666.7)" d="m2359.7 16974c46.97 352.3 940.52 1262.2 1080.3 1244.7 375.78-46.9 1432.6-1550 1409.2-1761.4s-399.25-1338.7-1080.4-1268.2c-681.09 70.4-1456.1 1432.6-1409.1 1784.9zm936.67-2461c110.92-66.6 1127.9-253.7 1244.7-23.5 347.45 684.8 411.35 1826.9 411.35 2021.3 0 307-1291.4 1903.6-1606.4 1769.1-305.28-130.3-1161.6-1116-1200.5-1653.2-38.94-537.2 798.51-1902.4 1150.8-2113.7" fill="#949289"/>
  <g fill="#858079">
   <path transform="matrix(.13333 0 0 -.13333 0 2666.7)" d="m8033.1 16874c177.81-960.1-35.56-1955.9-177.81-2275.9-142.24-320.1-817.92-640.1-1066.8-604.6-248.93 35.6-1315.8 533.5-1315.8 889.1s106.68 1493.6 391.18 1884.8c610.9 839.9 1378.4 1456.6 1600.3 1493.6 213.37 35.5 391.18-426.8 568.99-1387zm-515.56 1503.7c-246.11 236.3-1777.3-1523.4-1904.2-1861.9s-550.12-2031.2-423.16-2369.7c74.32-198.2 1100.2-550.1 1438.8-550.1 211.58 0 1100.2 338.5 1269.5 550.1 201.33 251.6 677.06 3216-380.84 4231.6"/>
   <path transform="matrix(.13333 0 0 -.13333 0 2666.7)" d="m2077.6 14880c-384.34 650.9-917.83 1572.1-1100.2 1777.3-122.67 138-517.6 187.1-977.4 175.5v-81.3c374.57 12.2 670.29-24.2 799.59-94.2 270.04-146 654.57-920.7 903.5-1311.9s817.92-1102.4 533.42-1031.3c-177.9 44.5-1329.2 561.7-2236.5 995.3v-414.4c1009.7-464.6 2054.8-861.3 2246.9-861.3 465.48 0 159.74 289.2-169.27 846.3"/>
   <path transform="matrix(.13333 0 0 -.13333 0 2666.7)" d="m1124.5 10362c465.48 211.5 1919.6 2591.9 1650.3 2962.1-338.53 465.5-2574.2 864.1-2774.4 846.3h-0.42188v-105.7c933.33 18.8 2487.2-535.8 2627.7-781.6 142.24-248.9-35.57-462.3-284.5-1031.3-248.94-569-995.73-1671.4-1386.9-1671.4-169.24 0-564.8 286.2-956.29 639.8v-829.4c466.88-92 919.19-122.2 1124.5-28.8"/>
   <path transform="matrix(.13333 0 0 -.13333 0 2666.7)" d="m5472.6 10402c284.49 213.3 1884.8 1138 2453.8 1066.8 568.99-71.1 817.92-889 746.79-1209.1-71.13-320-1315.8-1920.3-1635.8-2027s-817.92 320-1066.9 497.9c-248.93 177.8-720.06 1504.7-497.86 1671.4zm1159.8-2883.9c506.81 232.8 2246.8 2402.2 2191.4 2857.3-24.54 201.7-192.8 775.9-705.95 1143.1-391.97 280.5-2458.7-784.3-3178.1-1292.1-546.77-386-187.09-601.8 296.21-1227.2 719.38-931 1201.5-1570.7 1396.4-1481.1"/>
   <path transform="matrix(.13333 0 0 -.13333 0 2666.7)" d="m6361.7 12963c426.75-213.3 497.87-604.5 462.31-782.3s-497.87-569-924.61-817.9c-426.74-249-960.17-426.8-1351.4-106.7-391.18 320-1209.1 1600.2-960.17 1849.2 106.68 106.7 284.49 248.9 589.23 275.2 630 54.3 1757.8-204.1 2184.6-417.5zm-2184.6 559.8c-507.8-42.4-930.96-592.5-1057.9-1015.6-101.08-337 191.44-1172.2 804.01-1988.9 380.84-507.8 3077.2 1387.8 3040.8 1646-59.35 421.2-325.38 716.5-459.55 850.7-236.06 236-1819.6 550.1-2327.4 507.8"/>
   <path transform="matrix(.13333 0 0 -.13333 0 2666.7)" d="m3587.9 9762.1c-177.81-284.5-1351.4-1209.1-1493.6-995.8-142.25 213.4-533.43 1173.6-391.18 1458.1 185.46 370.9 892.67 1371.9 1108.2 1226.3 290.27-196.2 954.39-1404.1 776.59-1688.6zm-847.71 1795.3c-296.22-42.3-1423.4-1550-1396.4-1819.6 42.31-423.2 380.85-1227.2 634.75-1438.8 253.89-211.6 1692.6 1184.9 1735 1523.4s-677.06 1777.3-973.27 1735"/>
   <path transform="matrix(.13333 0 0 -.13333 0 2666.7)" d="m3297.4 8607.4c276.5 230.5 829.49 522.3 1044.6 506.9 153.22-10.9 829.49-814.1 1182.8-1274.9 353.3-460.8 476.19-890.9 460.83-1013.8-15.37-122.9-261.13-537.7-553-614.5-291.86-76.8-1718.2 87.7-2056.2 210.6s-593.23 1203.4-654.67 1418.5c-61.44 215 299.17 536.8 575.67 767.2zm2625.6-2673c307.78 12.3 447.04 679.2 423.16 846.3-42.32 296.3-1614.9 2162.6-1904.2 2412.1-289.3 249.4-1806.9-872.6-1946.5-1354.1-144.66-499 177.15-1635.8 514.68-2010 223.85-248.2 1855 63.4 2912.9 105.7"/>
   <path transform="matrix(.13333 0 0 -.13333 0 2666.7)" d="m1276.4 8645.8c71.16 94.9-189.35 998.9-380.85 1142.5-138.92 104.2-646.14 176.4-895.53 178.4v-84.3c174.15 30.7 730.22-64.4 870.4-153.6 168.98-107.6 307.22-614.5 307.22-752.7 0-138.3-322.58-261.2-645.16-291.9-142.72-13.6-348.58-6.1-532.45 26.4v-200.8c506.7-17.5 1188.1 18.3 1276.4 136"/>
   <path transform="matrix(.13333 0 0 -.13333 0 2666.7)" d="m1189.7 3611.2c423.16 127 1127.8 1359.8 1311.8 1819.6 84.63 211.6-507.79 2242.8-930.96 2539-236.66 165.7-945.05 213.5-1570.6 163.5v-119.9c416.62 38.5 962.88 40.4 1469.5-81.9 254.29-61.4 583.72-983.1 721.97-1566.8s122.88-737.3 76.8-829.5-721.97-1213.5-1059.9-1413.2c-187.1-110.6-721.35 98.1-1208.3 365.5v-745.2c535.18-123.7 1019.7-182.1 1189.7-131.1"/>
   <path transform="matrix(.13333 0 0 -.13333 0 2666.7)" d="m8224.9 18350c423.16-84.6 2210.4 716.9 2327.4 1184.9 29.3 117.2 61.4 278.4 92 465.6h-236c-51.1-217.1-97-372.4-121.7-409.5-92.2-138.2-1075.3-798.7-1459.3-814.1s-1044.6 522.3-1152.1 691.2c-54.09 85-104.27 294.4-117.35 532.4h-383.28c72.74-350.3 654.2-1571.3 1050.3-1650.5"/>
   <path transform="matrix(.13333 0 0 -.13333 0 2666.7)" d="m8765.9 17793c76.8 153.6 368.67 414.7 675.89 537.6s1087.8 295.5 1259.6 261.2c153.6-30.8 168.9-891 107.5-1059.9-61.5-169-384-522.3-691.3-660.6-307.19-138.2-1259.6-522.2-1367.1-368.6s-61.44 1136.7 15.36 1290.3zm-123.94-1673.4c253.9-169.3 1904.3 634.8 2115.8 846.3 211.6 211.6 259.8 1632.3-42.3 1692.7-423.1 84.6-1988.8-423.2-2115.8-719.4-166.69-388.9-211.58-1650.3 42.32-1819.6"/>
   <path transform="matrix(.13333 0 0 -.13333 0 2666.7)" d="m11946 15643c138.2-169 30.7-675.9-92.2-1075.3s-660.5-1674.3-829.5-1689.7c-168.9-15.4-1097.1 8.5-1373.6 254.2-276.5 245.8-860.21 1228.9-829.49 1536.1 30.72 307.3 52.61 882.5 283.02 1051.5 230.42 168.9 1275 537.6 1566.8 522.2 291.9-15.3 1136.7-430.1 1275-599zm-3062.5 66.8c-274.99-183.4-507.79-1142.6-507.79-1396.5s507.79-1481 930.96-1692.6c378.48-189.3 1310-594.2 1565.6-338.6 253.9 253.9 1481.1 2792.9 1311.9 3173.8-169.3 380.8-1184.9 804-1481.1 846.3-357.9 51.1-1438.8-338.6-1819.6-592.4"/>
   <path transform="matrix(.13333 0 0 -.13333 0 2666.7)" d="m8581.6 12478c-107.53-92.2-829.5-445.5-1013.8-337.9-184.33 107.5-476.19 983.1-337.94 1090.6 135.56 105.4 717.96 240.2 906.3 215 230.41-30.7 553-875.5 445.47-967.7zm96.52-62.6c50.08 100.2-253.9 931-465.48 1058-211.58 126.9-761.69-84.7-1057.9-211.6-249.06-106.8 169.26-1227.2 338.52-1354.1 169.27-127 1100.2 338.5 1184.9 507.7"/>
   <path transform="matrix(.13333 0 0 -.13333 0 2666.7)" d="m8930.5 11861c0 123.6 242.03 208.8 405.31 240.4 161.29 31.1 896.56-293.1 1325.3-636 247.2-197.8-98.9-618-272-716.9-173-98.9-716.92 24.7-889.97 148.3s-568.6 840.5-568.6 964.2zm736.72-1462.7c211.58-169.3 1311.8 380.8 1311.8 761.6 0 308.1-1184.9 1015.6-1692.7 1015.6-338.53 0-550.11-296.2-465.48-550.1s501.34-951.2 846.33-1227.1"/>
   <path transform="matrix(.13333 0 0 -.13333 0 2666.7)" d="m13313 12202c-107.6-245.8-768.1-1213.5-1013.9-1167.4-245.7 46.1-860.2 568.3-875.5 752.7-15.4 184.3 61.4 691.2 215 1029.1 153.6 338 682.7 1643.7 906.3 1643.7 337.9 0 1121.4-1029.2 1136.7-1152.1 15.4-122.9-261.1-860.2-368.6-1106zm-764.2 2325.8c-296.2 0-1354.1-2401.6-1354.1-2750.6 0-296.2 931-1142.5 1227.2-1057.9 296.2 84.7 1438.7 2073.5 1396.4 2412.1-42.3 338.5-973.3 1396.4-1269.5 1396.4"/>
   <path transform="matrix(.13333 0 0 -.13333 0 2666.7)" d="m9919.4 9957c197.8 74.2 1285.6 593.3 1656.4 568.6 301.1-20.1 766.3-939.5 890-1236.1 123.6-296.7-403.4-1650.4-667.5-2002.5-148.4-197.8-1310.3-24.7-1681.1 74.2-189.15 50.4-895.22 381.2-1112.5 815.8-123.61 247.2-173.05 766.4-74.16 1013.6 104.68 261.7 791.1 692.2 988.87 766.4zm-1489.2-2058.8c126.94-338.5 2454.3-1311.8 3046.7-1142.5 592.4 169.2 1311.8 1988.8 1184.9 2412-127 423.2-846.3 1396.4-1142.6 1438.7-296.2 42.4-2196.9-809.4-2454.3-973.2-465.48-296.2-761.7-1396.5-634.74-1735"/>
   <path transform="matrix(.13333 0 0 -.13333 0 2666.7)" d="m6902.7 6439.3c-23.96 159.8 408.31 672.7 719.02 889.9 70.61 65.3 136.36 104.8 182.91 94 223.49 52.6 1262.7-409.9 1557.9-590.3 295.18-180.4 213.19-590.4 196.79-787.2-16.4-196.7-688.75-1115.1-901.93-1197.1-213.19-82-1705.5 1262.7-1754.7 1590.7zm1664-2323.7c253.9 169.3 1354.1 2073.5 1142.5 2454.4-211.58 380.8-1523.4 888.6-1861.9 930.9-338.53 42.3-999.91-804.3-1184.8-1100.2-211.59-338.5 1650.3-2454.4 1904.2-2285.1"/>
   <path transform="matrix(.13333 0 0 -.13333 0 2666.7)" d="m11562 18607c61.4 153.6 183.9 223.6 445.4 230.4 583.8 15.4 1213.6-230.4 1305.7-353.3 179-238.6-168.9-1059.9-245.7-1228.8-76.8-169-491.6-814.2-691.3-752.7-199.7 61.4-906.3 537.6-952.4 783.4s76.8 1167.4 138.3 1321zm-333.8-1845.7c84.6-338.5 804-677.1 1227.2-592.4 423.1 84.6 1142.5 2073.5 973.2 2327.4-169.2 253.9-1565.7 550.1-1904.2 296.2-272.9-204.7-380.8-1692.7-296.2-2031.2"/>
   <path transform="matrix(.13333 0 0 -.13333 0 2666.7)" d="m12462 19214c293.4-58.7 888.6-127 1184.8 0 128 54.8 200.7 394.2 224.9 785.8h-83.1c-92.2-174.2-460.8-470.9-752.7-440.2-163.2 17.2-562.1 226.7-900.6 440.2h-609.2c356.8-377.9 810.3-760.7 935.9-785.8"/>
   <path transform="matrix(.13333 0 0 -.13333 0 2666.7)" d="m14526 18039c445.5-107.5 1597.6-1290.3 1689.7-1536.1 92.2-245.8-122.8-1659-245.7-1781.9s-1148.8-472.5-1409.9-334.3c-261.2 138.3-1167.5 998.5-1182.8 1290.3-15.4 291.9-126.2 595.5 165.6 1087 291.9 491.6 761.2 1328.6 983.1 1275zm-1705.5-2456.4c-101.1-471.8 804-1523.4 1227.2-1735 423.1-211.5 1311.8 84.7 1692.6 254 380.9 169.2 719.4 2115.7 507.8 2538.9s-1438.7 1481.1-1735 1481.1c-296.2 0-1565.7-1946.6-1692.6-2539"/>
   <path transform="matrix(.13333 0 0 -.13333 0 2666.7)" d="m15012 18389c211.6-211.6 1110.8-1039.4 1523.4-1142.6 169.3-42.3 1184.9 550.1 1142.5 846.3-39.4 276.2-446.8 1472.1-1016.3 1906.9h-139.9c31.6-13.6 58-27.3 78.3-40.8 506.9-337.9 921.6-1490 921.6-1597.5 0-107.6-509.5-483.3-724.6-483.3-215 0-1290.3 629.8-1459.2 737.3-169 107.5-642.6 1051.6-673.3 1205.2-13.2 66.3-12.2 126.8 35.1 179.1h-180.6c-5.9-9.2-10.9-18.6-14.8-28.1-183.4-452.5 374-1448.7 507.8-1582.5"/>
   <path transform="matrix(.13333 0 0 -.13333 0 2666.7)" d="m14035 18945c107.5 0 307.2-122.9 307.2-215.1 0-92.1-276.5-414.7-368.7-445.4-92.1-30.8-153.6 180.5-153.6 307.2 0 153.6 73.5 353.3 215.1 353.3zm-179.1-777.7c84.6-127 550.1 296.2 592.4 465.5 42.3 169.2-296.2 380.8-465.5 338.5-232.2-58.1-310.3-529-126.9-804"/>
   <path transform="matrix(.13333 0 0 -.13333 0 2666.7)" d="m742.6 89.801c507.8 423.2 1061.8 1415.2 888.64 1718.1-91.5 160.2-881.22 336.9-1631.2 403v-81.3c41.312-2.4 83.332-5.2 126.01-8.5 370.93-29.1 793.66-88.7 1272.5-248.3 465.55-155.2-310.37-1334.6-651.77-1458.8-130.55-47.398-419.98-49.5-746.74-25.301v-378.3c355.9-19.203 645.18-1.8007 742.6 79.398"/>
   <path transform="matrix(.13333 0 0 -.13333 0 2666.7)" d="m16462 14337c30.8 245.7 169 1213.5 261.2 1336.4 92.1 122.9 476.7 436.2 691.2 414.7 153.6-15.3 307.2-476.2 368.7-721.9 61.4-245.8-46.1-522.3-122.9-722s-629.8-921.7-768-891c-138.3 30.8-460.9 338-430.2 583.8zm627-930.6c231.8 0 840.3 1678.4 811.3 1846.2-51.5 298.1-289.8 906.3-492.6 906.3s-608.5-268.5-782.3-469.9c-202.9-235-347.7-1812.7-260.8-2081.2s492.6-201.4 724.4-201.4"/>
   <path transform="matrix(.13333 0 0 -.13333 0 2666.7)" d="m5395 3203c-491.01-218.3-1363.9 218.2-1745.8 272.7-190.94 27.3-927.44 311.3-927.44 654.7 0 109.1 245.5 736.5 436.44 818.3 391.64 167.9 2509.6 491 2946 436.5 436.45-54.6 1091.1-763.8 1200.2-1036.6s-1418.4-927.4-1909.4-1145.6zm2112.6 1126c-126.94 253.9-846.32 1057.9-1227.2 1142.5-380.85 84.6-2412-169.3-2962.2-169.3-550.11 0-1292.4-1600.8-1269.5-1692.6 84.63-338.5 2792.9-804 3216-804 423.16 0 2369.7 1269.5 2242.8 1523.4"/>
   <path transform="matrix(.13333 0 0 -.13333 0 2666.7)" d="m2009.3 2447.4c134.49 57.7 125.36 547.5-169.27 677.1-178.56 78.5-1187.1 209.8-1840.1 268.3v-81.1c581.77-48.3 1602-172.2 1771-228.5 93.1-31.1 310.36-434.5 186.21-434.5-83.73 0-1212.2-14.1-1957.2 33.8v-233.1c741.21-56.5 1805.6-89.3 2009.3-2"/>
   <path transform="matrix(.13333 0 0 -.13333 0 2666.7)" d="m18904 19683c399.4-30.7 735.6-81.9 814.2-199.7 92.1-138.2-507-675.9-660.6-783.4s-568.3-460.8-691.2-276.5-506.9 1075.3-430.1 1136.7c76.8 61.5 568.3 153.6 967.7 122.9zm-1088.8-146.2c-139.7-419.1 462.9-1702 677.1-1565.7 465.5 296.2 1590 1397.3 1311.8 1608-145.4 110.1-1861.9 338.5-1988.9-42.3"/>
   <path transform="matrix(.13333 0 0 -.13333 0 2666.7)" d="m3372.2 19825c35.88-23.9 139.38 50.2 270.33 174.6h-450.52c87.56-92.3 153.14-156.5 180.19-174.6"/>
   <path transform="matrix(.13333 0 0 -.13333 0 2666.7)" d="m6829.9 724.4c-217.26-155.2-1272.5 434.5-1458.7 558.7-186.21 124.1-310.36 806.9-93.1 931.1 217.25 124.1 1241.5 620.7 1551.8 620.7 217.25 0 713.84-620.7 744.87-869 31.04-248.3-527.61-1086.3-744.87-1241.5zm-97.51 2209.1c-338.53-126.9-1861.9-634.7-1988.9-973.3-126.95-338.5 449.73-904.5 634.74-1015.6 211.59-126.9 1057.9-634.7 1354.1-634.7s846.33 1184.8 930.96 1396.4c157.16 392.9-592.43 1354.1-930.96 1227.2"/>
   <path transform="matrix(.13333 0 0 -.13333 0 2666.7)" d="m4270.1 2663c123.59-11.8 320.38-44.6 353.18-110.2 53.39-106.8-229.58-311.6-327.98-344.4-98.39-32.8-295.18 278.8-311.58 360.8s108.74 110.7 286.38 93.8zm-384.43-29.5c-91.55-122 253.89-550.1 380.84-550.1s380.84 253.9 423.16 423.2c42.32 169.2-677.05 296.2-804 126.9"/>
   <path transform="matrix(.13333 0 0 -.13333 0 2666.7)" d="m7673.4 3503.9c49.19 164 131.19 278.8 262.38 295.2 150.02 18.8 967.53-328 1131.5-426.4 163.98-98.4-163.99-278.7-475.57-344.3-311.57-65.6-803.54 0-885.53 16.4-82 16.4-82 295.1-32.8 459.1zm1579.7-359.2c236.19 183.7-888.64 634.7-1227.2 719.4-338.53 84.6-592.43-550.1-550.11-931 42.31-380.8 1396.4-84.6 1777.3 211.6"/>
   <path transform="matrix(.13333 0 0 -.13333 0 2666.7)" d="m17122 17056c199.7 184.3 722.7 498.4 937 522.2 276.5 30.8 506.9-491.5 384-537.6s-1275-460.8-1351.8-384-168.9 215 30.8 399.4zm-253.1-151.8c-169.2-253.8 0-592.4 169.3-592.4s1354.1 550.1 1481.1 719.4c126.9 169.2-253.9 634.7-465.5 634.7s-1100.2-634.7-1184.9-761.7"/>
   <path transform="matrix(.13333 0 0 -.13333 0 2666.7)" d="m18643 15074c163.5-45.4 553-215.1 645.2-338 92.1-122.8-169-629.7-291.9-829.4s-890.9-322.6-1106-322.6c-215 0 476.2 1566.8 752.7 1490zm-165.7 83c-216.2-72.1-804-1523.4-846.3-1777.3-42.4-253.9 1142.5-42.3 1142.5-42.3s634.7 1015.6 634.7 1269.5-677 634.7-930.9 550.1"/>
   <path transform="matrix(.13333 0 0 -.13333 0 2666.7)" d="m18075 11311c-92.2-245.8-937.1-583.7-1136.8-629.8-199.6-46.1-998.4-30.8-998.4 168.9s230.4 1566.9 599.1 1950.9c121.3 126.3 645.1 92.2 967.7 30.7 322.6-61.4 583.7-199.7 645.2-307.2 61.4-107.5 15.3-967.8-76.8-1213.5zm-1535 1603.1c-356.5-158.4-888.6-2242.8-804-2496.7s2242.8 296.3 2369.7 380.9c127 84.6 253.9 1481.1 127 1777.3-127 296.2-1311.8 507.8-1692.7 338.5"/>
   <path transform="matrix(.13333 0 0 -.13333 0 2666.7)" d="m14803 13277c138.5 101.5 599-107.5 783.4-199.7 184.3-92.2 199.7-430.1 215-537.7 15.4-107.5-491.5-1198.1-629.8-1351.7-138.2-153.6-1059.9-261.2-1228.8-291.9-169-30.7-199.7 506.9-199.7 675.9s599 1367.1 1059.9 1705.1zm310.9-2417.5c296.2 84.6 846.4 1819.6 761.7 2031.1-84.6 211.6-930.9 634.8-1184.8 423.2-104.6-87.1-784.1-1003.2-1015.6-1438.8-215.5-405.5-74.7-816.5 0-1015.5 104-277.4 1142.5-84.7 1438.7 0"/>
   <path transform="matrix(.13333 0 0 -.13333 0 2666.7)" d="m15259 7830.9c-169.1-56.4-1013.6 0-1260.8 123.6s-667.5 1310.3-692.2 1483.3c-24.7 173.1 469.7 667.5 692.2 741.7 18.8 8.3 43.8 14.6 73.6 18.9 371.8 73.6 1157.4-47 1386.6-200.5 245.6-164.5 146.7-1104 146.7-1351.2s-271.9-791.1-346.1-815.8zm347.7-8.7c169.3 338.6 169.3 1946.6 0 2200.5s-1184.8 296.2-1523.4 253.9c-338.5-42.3-761.7-507.8-930.9-761.7-170.9-256.4 677-1946.6 846.3-2073.5 169.3-127 1438.7 42.3 1608 380.8"/>
   <path transform="matrix(.13333 0 0 -.13333 0 2666.7)" d="m12565 10278c-19.9 99.5 328.9 215 633.3 204.6 128.4 27.6 227.9 30.2 207.3-31.6 105.7-32.5-173.1-346.1-296.7-445s-519.1 148.4-543.9 272zm431.7-398.6c211.5 0 465.4 423.2 465.4 592.5 0 169.2-930.9 84.6-930.9-169.3 0-257.4 253.9-423.2 465.5-423.2"/>
   <path transform="matrix(.13333 0 0 -.13333 0 2666.7)" d="m9903.7 5307.8c16.4 164 295.22 819.9 442.72 901.9 123.4 68.5 803.6 147.6 1000.4 114.8s295.2-49.2 377.1-246c82-196.7 369.7-1364 328-1656.2-32.8-229.6-409.9-475.6-623.1-541.2s-1295.6 98.4-1525.1 246c-229.58 147.6-16.4 1016.7 0 1180.7zm-443.2-1486.2c253.9-253.9 2750.5-338.6 2792.8 0 42.4 338.5-338.5 2242.7-550.1 2454.3-211.5 211.6-1311.8 127-1481 0-244.14-183.1-1015.6-2200.4-761.72-2454.3"/>
   <path transform="matrix(.13333 0 0 -.13333 0 2666.7)" d="m12416 6471.2c32.3 129.2 1285.5-296.7 1508-420.3s815.9-1038.3 890-1211.3c74.2-173.1-1087.7-321.4-1260.8-321.4-173 0-914.7 593.3-1013.6 741.6-79.9 120-148.3 1112.5-123.6 1211.4zm2556.5-1995.1c211.6 211.6-719.4 1311.8-888.6 1523.4-169.3 211.6-1735 719.4-1862 465.5-126.9-253.9 127-1735 338.6-2031.2 211.5-296.2 2200.4-169.3 2412 42.3"/>
   <path transform="matrix(.13333 0 0 -.13333 0 2666.7)" d="m13306 6817.3c-271.9 24.7-642.8 370.8-692.2 494.4-49.5 123.6 321.4 741.7 420.3 791.1 176.8 88.5 618-840.5 716.9-1013.6 50.6-88.5-173.1-296.6-445-271.9zm674.1-253.6c0 299.2-706.2 1687.8-931 1650.4-253.9-42.4-677-1058-592.4-1184.9s1523.4-634.7 1523.4-465.5"/>
   <path transform="matrix(.13333 0 0 -.13333 0 2666.7)" d="m11724 2416.8c-123.6-148.3-420.3 148.3-519.2 247.2-98.8 98.9-123.6 519.2-98.8 568.6 70.7 141.6 563.8 111.7 914.7-98.9 123.6-74.1-173.1-568.6-296.7-716.9zm-619.1 908.9c-242.3-121.2 0-1142.5 253.9-1269.5s804 761.7 761.7 1015.6-846.3 338.5-1015.6 253.9"/>
   <path transform="matrix(.13333 0 0 -.13333 0 2666.7)" d="m15581 3010.1c74.2-173 469.7-890 296.7-914.7-173.1-24.7-2299.2 642.8-2447.5 766.4s-470.9 749.5-271.9 815.8c222.5 74.2 1359.7 123.6 1730.5 123.6s618-618 692.2-791.1zm-606.5 871.4c-296.2-42.3-1988.9-42.3-2115.8-211.6-148.1-197.4 126.9-761.7 338.5-931 211.6-169.2 2581.3-1142.5 2877.5-973.2 296.2 169.2-804 2158.1-1100.2 2115.8"/>
   <path transform="matrix(.13333 0 0 -.13333 0 2666.7)" d="m14963 834.6c-148.4 0-469.8 173.1-642.8 370.8-173.1 197.8-475.2 843.8-321.4 815.9 272-49.5 1532.8-791.1 1582.2-865.3 49.5-74.2-469.7-321.4-618-321.4zm701.8 348.8c-127 169.3-1777.3 1100.2-1862 888.6-78.5-196.4 423.2-1481 677.1-1523.4 253.9-42.301 1311.8 465.5 1184.9 634.8"/>
   <path transform="matrix(.13333 0 0 -.13333 0 2666.7)" d="m17657 5284.5c-24.8-222.5-1335-568.6-1631.7-543.8-296.7 24.7-1186.6 1186.6-1236.1 1384.4-49.4 197.8-112.2 782.4 18.1 848.5 130.2 66.2 886.4 264.8 1138.7 264.4 277.1-0.5 1513.2-470.1 1636.8-569s98.9-1162 74.2-1384.5zm-3022.8 1713.9c-169.3-84.7-169.3-719.4-84.6-1015.6 84.6-296.2 846.3-1227.2 1184.8-1438.8 338.6-211.6 1735 169.3 1904.3 253.9 169.2 84.6 169.2 1650.3 126.9 1861.9-23.5 117.6-1570.7 672.2-1819.6 677.1-303.5 5.9-1055.7-210.5-1311.8-338.5"/>
   <path transform="matrix(.13333 0 0 -.13333 0 2666.7)" d="m18720 10056c179-18.9 85.5-1165.2-24.7-1532.8-74.2-247.2-791.1-791.1-1013.6-865.3-222.5-74.1-1386.1 595.7-1508.1 766.4-123.6 173.1 0 1162 123.6 1310.3 123.7 148.3 1483.4 420.3 2422.8 321.4zm-2622.5-2197.2c169.2-296.2 1354.1-634.8 1608-592.5 253.9 42.4 931 846.4 1015.6 1058 84.6 211.5 423.2 1523.3 84.6 1777.2-338.5 253.9-2454.3-84.6-2623.6-253.9-174.5-174.4-253.9-1692.6-84.6-1988.8"/>
   <path transform="matrix(.13333 0 0 -.13333 0 2666.7)" d="m17806 3850.7c148.3-49.5 774.2-265.6 844.4-478.9 70.3-213.3-102.8-633.6-201.7-707.8-98.8-74.1-1260.8-321.4-1483.3-296.6-222.5 24.7-889.9 1013.6-1013.6 1161.9-123.6 148.3 197.8 469.7 321.4 494.4 153.4 30.7 1384.4-123.6 1532.8-173zm-2015.5-341.1c42.4-169.2 550.1-1396.4 804-1608s1692.7 507.8 1904.3 634.8c211.6 126.9 296.2 846.3 126.9 1057.9-169.2 211.5-2073.5 634.7-2412 507.8-241-90.4-465.5-423.2-423.2-592.5"/>
   <path transform="matrix(.13333 0 0 -.13333 0 2666.7)" d="m17509 612.1c-98.9-24.7-791.1-74.2-890 49.5-98.9 123.6-407 535.5-271.9 618 445 271.9 1063 321.4 1161.9 222.5s98.9-865.3 0-890zm-1018.3 807.5c-375.1-107.1-465.5-465.4-380.9-634.7 84.7-169.3 1142.6-507.8 1354.2-507.8 211.5 0 253.8 1227.2 126.9 1354.1-126.9 127-804-126.9-1100.2-211.6"/>
   <path transform="matrix(.13333 0 0 -.13333 0 2666.7)" d="m10870 19314c30.8 153.6 90.1 647.1 245.8 629.8 138.3-15.3 414.7-353.3 460.8-430.1s-168.9-322.6-322.6-353.3c-153.6-30.7-414.7 0-384 153.6zm-77.8-296c42.3-211.6 804 84.6 888.6 253.9 66.5 133-337.4 605.7-554.5 728.1h-126.9c-109.9-206.1-249-773.1-207.2-982"/>
   <path transform="matrix(.13333 0 0 -.13333 0 2666.7)" d="m2073.3 509.9c-79.16 0-378.94-205.5-766.04-509.9h153.34c291.58 236.8 524.39 400.1 612.7 403.2 146.12 5.203 376.46-161.9 588.58-403.2h77.85c-251.91 285.3-532.6 509.9-666.43 509.9"/>
   <path transform="matrix(.13333 0 0 -.13333 0 2666.7)" d="m18900 17463c230.2-76.7 656.2-146.2 1100.4-193.9v654.4c-351.5 63.7-586.3 167.1-466.2 302.2 70.2 79 242.3 251.1 466.2 465.5v189.6c-738.7-683.4-1335-1339.6-1100.4-1417.8"/>
   <path transform="matrix(.13333 0 0 -.13333 0 2666.7)" d="m18100 16361c-157.9-473.7 523.3-787.2 1227.2-1142.5 215.5-108.8 443.3-218 672.9-323.6v414.4c-543.7 259.7-999.7 489.5-1106.3 569.4-284.5 213.4-543.3 560.5-284.5 640.1 481.9 148.3 983.1 219.3 1390.8 232.6v81.3c-809.1-20.4-1819.2-228.8-1900.1-471.7"/>
   <path transform="matrix(.13333 0 0 -.13333 0 2666.7)" d="m18628 10912c165.5-189.2 780.5-404.8 1372.1-521.3v829.4c-513.4 463.7-1019.8 1043.2-999.6 1245 35.5 355.6 521.1 1582.4 964.5 1598.5 11.5 0.5 23.3 0.7 35.1 1v105.7c-954.6-85.4-1668.3-2919.8-1372.1-3258.3"/>
   <path transform="matrix(.13333 0 0 -.13333 0 2666.7)" d="m19880 9957.6c-350-100-677-1311.8-380.8-1396.4 90.3-25.8 278.8-43.7 500.9-51.4v200.8c-231.7 40.9-428.5 121.6-419.9 250.1 15.3 230.4 245.7 891 419.9 921.7v84.3c-54.5 0.4-96.7-2.4-120.1-9.1"/>
   <path transform="matrix(.13333 0 0 -.13333 0 2666.7)" d="m18947 7842.9c-465.5-592.5-1057.9-2708.3-804-3258.4 151.8-329 1060.6-658 1857-842.2v745.2c-392.6 215.5-754.4 469.3-878.9 624.9-184.3 230.4-411 1586.9-272.8 1909.4 138.3 322.6 286.3 802.2 501.4 879 92.7 33.1 334.2 83.4 650.3 112.6v119.9c-492.9-39.4-934.4-139.5-1053-290.4"/>
   <path transform="matrix(.13333 0 0 -.13333 0 2666.7)" d="m18627 2061.8c-296.2-423.1-846.3-1523.4-592.4-1692.6 172.1-114.8 1216.5-318.2 1965.6-358.8v378.3c-527.7 39.102-1152.9 146.7-1363.7 242.6-341.5 155.2-62.1 1210.4 155.1 1365.6 131.8 94.1 591.2 167.7 1208.6 132.7v81.3c-637.4 56.2-1246.1 32.5-1373.2-149.1"/>
   <path transform="matrix(.13333 0 0 -.13333 0 2666.7)" d="m19470 3420.7c-381.9-31.8-465.5-804-169.3-888.6 92.5-26.5 362.4-57 698.9-82.7v233.1c-359.5 23.1-629.7 60.7-649.9 121.3-62.1 186.3-31 527.7 310.3 527.7 69.8 0 190.3-7.4 339.6-19.8v81.1c-252.8 22.6-452.3 34.3-529.6 27.9"/>
   <path transform="matrix(.13333 0 0 -.13333 0 2666.7)" d="m4218.6 0h227.12c295.09 175.1 733.21 360.2 1055.8 273 217.23-58.602 424.02-156.5 609.12-273h183.62c-328.14 211.2-662.46 379.7-828.3 379.7-239.22 0-812.27-133.6-1247.4-379.7"/>
   <path transform="matrix(.13333 0 0 -.13333 0 2666.7)" d="m10510 2538.8c-423.2 169.3-1269.5 169.3-1650.3 0-380.85-169.2-1692.6-2242.7-1692.6-2479.8 0-15.199 2.63-35.098 7.6-59h383.28c-12.91 235.1 10.39 498 101.99 696.5 184.33 399.4 1177.8 1765.6 1336.4 1812.6 414.75 122.9 875.58 107.5 1152.1 46.1 276.5-61.5 384-199.7 476.2-537.6 101.9-373.9-76.8-1425.8-216.3-2017.6h236c145.8 893.7 256.9 2382.4-134.3 2538.8"/>
   <path transform="matrix(.13333 0 0 -.13333 0 2666.7)" d="m13732 1287.7c-211.6 296.2-888.7 1311.8-1354.2 1311.8-401.4 0-1354.1-1608.1-1311.8-1946.6 17.2-137.6 216.3-394.1 460.6-652.9h609.2c-266.7 168.2-495.9 338.8-543.3 420-107.5 184.4-199.7 783.4-76.8 1059.9s694.7 1064.3 921.7 1013.9c276.5-61.5 1182.8-1090.7 1274.9-1275 92.2-184.3 169-1044.6 76.8-1218.8h83.1c31.8 514.6-20.1 1119.4-140.2 1287.7"/>
   <path transform="matrix(.13333 0 0 -.13333 0 2666.7)" d="m14519 0h180.6c62.4 69.102 205.4 123.9 502.5 158.9 464.9 54.7 1063.6-48.8 1319.6-158.9h139.9c-41.3 31.5-83.3 59.102-126.2 82-615.4 328.2-1827.4 210.8-2016.4-82"/>
   <path transform="matrix(.13333 0 0 -.13333 0 2666.7)" d="m2329.6 1438.2c-124.14 217.3 341.42 962.2 558.67 1117.4 202.04 144.3 936.61-562.2 1303.5-1086.3 217.26-310.4-341.4-1117.3-682.81-1179.4-341.4-62.101-1055.2 931.1-1179.4 1148.3zm2185.1-301c42.31 253.9-1396.4 1692.7-1692.7 1523.4-232.37-132.8-804-1142.5-677.06-1396.4 99.89-199.8 723.73-923.5 1047-1264.2h450.53c332.41 315.7 841.85 955.1 872.21 1137.2"/>
   <path transform="matrix(.13333 0 0 -.13333 0 2666.7)" d="m11004 8.1016c-1.4-2.5-2.8-5.4023-4.3-8.1016h126.9c-59.1 33.301-104.5 40.801-122.6 8.1016"/>
  </g>
  <g fill="#949289">
   <path transform="matrix(.13333 0 0 -.13333 0 2666.7)" d="m1703.1 15345c-248.93 391.2-633.46 1165.9-903.5 1311.9-129.3 70-425.02 106.4-799.59 94.2v-95c280.83 2.5 580.14-20.8 722.86-98.7 137.27-74.8 889.99-1236.1 1013.6-1433.8 110.64-177.1-1224.6 339.2-1736.5 626.7v-441.3c907.32-433.6 2058.6-950.8 2236.5-995.3 284.5-71.1-284.49 640.1-533.42 1031.3"/>
   <path transform="matrix(.13333 0 0 -.13333 0 2666.7)" d="m1574 2e4h-113.37c-452.09-367.1-1045.4-910.9-1460.6-1308.7v-205.3c0 128.7 919.66 1023.4 1574 1514"/>
   <path transform="matrix(.13333 0 0 -.13333 0 2666.7)" d="m1489.7 17906c533.42 142.3 1173.5 640.1 1351.3 782.4 177.82 142.2 391.19 395.1 142.26 853.5-89.4 164.6-202.54 323.2-321.41 458.4h-67.72c132.78-144.1 249.9-303.8 304.21-401.5 123.61-222.5-568.61-964.2-988.88-1137.2-420.27-173.1-1909.5-148.4-1909.5 24.7v-562.4c481.27-87.3 1181.4-100.1 1489.7-17.9"/>
   <path transform="matrix(.13333 0 0 -.13333 0 2666.7)" d="m2343.2 12251c248.93 569 426.74 782.4 284.5 1031.3-140.48 245.8-1694.4 800.4-2627.7 781.6v-102.4c228.06 205 2268.9-339.1 2552.3-716.9 148.33-197.8-469.71-1211.4-667.49-1532.8-197.77-321.4-1093.7 123.6-1483.3 395.6-158.39 110.5-304.36 392.7-401.5 706.9v-1594.9c391.49-353.6 787.05-639.8 956.29-639.8 391.18 0 1138 1102.4 1386.9 1671.4"/>
   <path transform="matrix(.13333 0 0 -.13333 0 2666.7)" d="m4431.2 13294c519.16 98.9 1557.5-296.7 1905.8-430.6 348.34-134 393.32-335.8 393.32-533.5 0-197.8-271.94-568.7-618.05-667.5-346.11-98.9-1458.6 74.1-1631.6 321.3-173.06 247.3-341.88 1254.6-49.45 1310.3zm-843.28-189.5c-248.94-249 568.99-1529.2 960.17-1849.2 391.18-320.1 924.61-142.3 1351.4 106.7 426.74 248.9 889.05 640.1 924.61 817.9s-35.56 569-462.31 782.3c-426.74 213.4-1554.6 471.8-2184.6 417.5-304.74-26.3-482.55-168.5-589.23-275.2"/>
   <path transform="matrix(.13333 0 0 -.13333 0 2666.7)" d="m8015.8 16310c24.72-469.7-988.88-1359.7-1310.3-1433.9-321.39-74.2-889.99 1458.6-865.27 1656.4 24.72 197.7 1087.8 1433.8 1681.1 1606.9 144.36 42.1 469.71-1359.7 494.44-1829.4zm-551.72 1950.9c-221.85-37-989.38-653.7-1600.3-1493.6-284.5-391.2-391.18-1529.2-391.18-1884.8s1066.9-853.5 1315.8-889.1c248.93-35.5 924.61 284.5 1066.8 604.6 142.25 320 355.62 1315.8 177.81 2275.9-177.81 960.2-355.62 1422.5-568.99 1387"/>
   <path transform="matrix(.13333 0 0 -.13333 0 2666.7)" d="m4263.5 18830c355.62-462.3 995.73-1066.8 1351.4-1066.8s1138 1031.3 1280.2 1244.6c105.76 158.7-248.03 654.1-784.47 991.9h-170.43c257.06-154.1 542.21-388.4 814.79-698.2 207.87-236.2-840.55-716.9-1161.9-865.2-321.38-148.4-1409.1 988.8-1433.9 1161.9-13.55 94.8 218 264 491.09 401.5h-204.61c-107.63-63.9-196.25-126.4-253.27-173.9-213.37-177.8-284.49-533.5 71.12-995.8"/>
   <path transform="matrix(.13333 0 0 -.13333 0 2666.7)" d="m3442.3 10352c98.89-247.2-988.87-890-1236.1-988.9-247.22-98.8-370.83 469.7-420.27 593.4-49.45 123.6 420.27 1087.7 964.15 1409.1 196.23 116 593.33-766.4 692.21-1013.6zm-631.01 1098.2c-215.52 145.6-922.73-855.4-1108.2-1226.3-142.25-284.5 248.93-1244.7 391.18-1458.1 142.24-213.3 1315.8 711.3 1493.6 995.8 177.8 284.5-486.32 1492.4-776.59 1688.6"/>
   <path transform="matrix(.13333 0 0 -.13333 0 2666.7)" d="m6211.1 10699c222.5 197.8 1452.8 626.1 1715.3 671.6 287.85 49.7 534.41-498.5 633.3-770.5 98.89-271.9-939.43-939.4-1236.1-1087.7-296.67-148.4-1236.1 123.6-1384.4 296.6-86.64 101.1 49.45 692.3 271.94 890zm-240.63-1967.8c248.94-177.9 746.8-604.6 1066.9-497.9s1564.7 1707 1635.8 2027c71.13 320.1-177.8 1138-746.79 1209.1-568.99 71.2-2169.3-853.5-2453.8-1066.8-222.2-166.7 248.93-1493.6 497.86-1671.4"/>
   <path transform="matrix(.13333 0 0 -.13333 0 2666.7)" d="m8827.3 18776c384.02 15.4 1367.1 675.9 1459.3 814.1 24.7 37.1 70.6 192.4 121.7 409.5h-509.76c-176.58-205.2-359.84-370.9-498.29-426.2-233.39-93.4-740.93 165.8-1115.9 426.2h-726.42c13.08-238 63.26-447.4 117.35-532.4 107.53-168.9 768.06-706.6 1152.1-691.2"/>
   <path transform="matrix(.13333 0 0 -.13333 0 2666.7)" d="m9870 18338c296.63 98.9 599.73 187.4 781.93 130.7 195.3-60.6 83.3-699.3 83.3-847.7 0-148.3-964.12-568.6-1260.8-593.3-296.67-24.7-543.88 618-543.88 766.4 0 148.3 642.76 445 939.43 543.9zm247.63-1466.1c307.3 138.3 629.8 491.6 691.3 660.6 61.4 168.9 46.1 1029.1-107.5 1059.9-171.8 34.3-952.42-138.3-1259.6-261.2s-599.09-384-675.89-537.6-122.89-1136.7-15.36-1290.3 1059.9 230.4 1367.1 368.6"/>
   <path transform="matrix(.13333 0 0 -.13333 0 2666.7)" d="m11141 19870c158.4-25.5 360.8-345.4 286.6-419.5-74.1-74.2-469.7-173.1-469.7-49.5s42.7 491.6 183.1 469zm113.5-709.3c153.7 30.7 368.7 276.5 322.6 353.3s-322.5 414.8-460.8 430.1c-155.7 17.3-215-476.2-245.8-629.8-30.7-153.6 230.4-184.3 384-153.6"/>
   <path transform="matrix(.13333 0 0 -.13333 0 2666.7)" d="m11774 18708c173 74.2 939.4 0 1458.5-296.7 167.7-95.8-173-1013.6-346.1-1211.3-173-197.8-1112.4 444.9-1260.8 618-148.3 173.1-24.7 815.8 148.4 890zm602.1-2205.5c199.7-61.5 614.5 583.7 691.3 752.7 76.8 168.9 424.7 990.2 245.7 1228.8-92.1 122.9-721.9 368.7-1305.7 353.3-261.5-6.8-384-76.8-445.4-230.4-61.5-153.6-184.4-1075.2-138.3-1321s752.7-722 952.4-783.4"/>
   <path transform="matrix(.13333 0 0 -.13333 0 2666.7)" d="m11872 15528c102.8-205.6-390.5-1747.2-555-1850-164.4-102.7-945.5-226.1-1253.8-20.5-308.36 205.5-822.23 1911.6-678.34 2034.9s1007.3 429.4 1315.5 452.2c555 41.1 1068.8-411.1 1171.6-616.6zm-2768.3 191.9c-230.41-169-252.3-744.2-283.02-1051.5-30.72-307.2 552.99-1290.3 829.49-1536.1 276.5-245.7 1204.7-269.6 1373.6-254.2 169 15.4 706.6 1290.3 829.5 1689.7s230.4 906.3 92.2 1075.3c-138.3 168.9-983.1 583.7-1275 599-291.8 15.4-1336.4-353.3-1566.8-522.2"/>
   <path transform="matrix(.13333 0 0 -.13333 0 2666.7)" d="m14059 18846c85.6 14.4 186.3-63.8 186.3-138s-222.5-296.7-271.9-197.8-84.1 307.3 85.6 335.8zm-86.2-561.6c92.2 30.7 368.7 353.3 368.7 445.4 0 92.2-199.7 215.1-307.2 215.1-141.6 0-215.1-199.7-215.1-353.3 0-126.7 61.5-338 153.6-307.2"/>
   <path transform="matrix(.13333 0 0 -.13333 0 2666.7)" d="m13727 16904c123.6 247.2 580.5 1089.4 791.1 1013.6 618-222.5 1681.1-1433.9 1656.3-1606.9-24.7-173.1-741.6-939.5-1112.4-840.6-370.9 98.9-1458.6 1186.7-1335 1433.9zm-349.1-1226.7c15.3-291.8 921.6-1152 1182.8-1290.3 261.1-138.2 1287 211.4 1409.9 334.3s337.9 1536.1 245.7 1781.9c-92.1 245.8-1244.2 1428.6-1689.7 1536.1-221.9 53.6-691.2-783.4-983.1-1275-291.8-491.5-181-795.1-165.6-1087"/>
   <path transform="matrix(.13333 0 0 -.13333 0 2666.7)" d="m13789 2e4h-1653.3c338.5-213.5 737.4-423 900.6-440.2 291.9-30.7 660.5 266 752.7 440.2"/>
   <path transform="matrix(.13333 0 0 -.13333 0 2666.7)" d="m14664 19821c30.7-153.6 504.3-1097.7 673.3-1205.2 168.9-107.5 1244.2-737.3 1459.2-737.3 215.1 0 724.6 375.7 724.6 483.3 0 107.5-414.7 1259.6-921.6 1597.5-20.3 13.5-46.7 27.2-78.3 40.8h-224c395.5-154.3 914.7-1044.3 1038.3-1316.2 123.6-272-865.3 0-1236.1 123.6s-1211.4 964.1-1236.1 1161.9c-1.4 10.9 0.4 21.1 4.7 30.7h-168.9c-47.3-52.3-48.3-112.8-35.1-179.1"/>
   <path transform="matrix(.13333 0 0 -.13333 0 2666.7)" d="m18176 19524c964.2 197.8 1582.2-49.4 1458.6-148.3s-741.6-370.8-914.7-321.4-685.1 440.8-543.9 469.7zm190-1101.2c122.9-184.3 537.6 169 691.2 276.5s752.7 645.2 660.6 783.4c-78.6 117.8-414.8 169-814.2 199.7s-890.9-61.4-967.7-122.9c-76.8-61.4 307.2-952.4 430.1-1136.7"/>
   <path transform="matrix(.13333 0 0 -.13333 0 2666.7)" d="m2073.3 403.2c-88.31-3.097-321.12-166.4-612.7-403.2h113.38c225.37 169 419.28 290.1 533.28 315.4 122.52 27.2 317.47-131.5 486.89-315.4h67.73c-212.12 241.3-442.46 408.4-588.58 403.2"/>
   <path transform="matrix(.13333 0 0 -.13333 0 2666.7)" d="m4445.7 0h204.62c225.15 113.4 478.54 205.4 646.11 216.5 159.96 10.699 387.96-63.098 643.81-216.5h170.42c-185.1 116.5-391.89 214.4-609.12 273-322.63 87.199-760.75-97.898-1055.8-273"/>
   <path transform="matrix(.13333 0 0 -.13333 0 2666.7)" d="m10625 2017.6c-92.2 337.9-199.7 476.1-476.2 537.6-276.53 61.4-737.36 76.8-1152.1-46.1-158.63-47-1152.1-1413.2-1336.4-1812.6-91.6-198.5-114.9-461.4-101.99-696.5h726.43c-220.83 153.3-395.74 307.1-441.55 389.6-123.6 222.5 964.16 1854.1 1211.4 2002.5 247.21 148.3 939.43 148.3 1285.6-49.5 183.4-104.8 173-939.4 148.3-1310.3-15.5-232.3-293.1-687.9-589.46-1032.3h509.76c139.5 591.8 318.2 1643.7 216.3 2017.6"/>
   <path transform="matrix(.13333 0 0 -.13333 0 2666.7)" d="m13652 414.3c-123.6-74.199-840.5-247.2-1063-74.199-222.5 173.1-890 1038.4-766.4 1310.3s500.7 809 642.8 766.4c247.2-74.2 1013.6-1038.3 1147.4-1198 133.9-159.7 162.8-730.3 39.2-804.5zm59.7 804.5c-92.1 184.3-998.4 1213.5-1274.9 1275-227 50.4-798.8-737.4-921.7-1013.9s-30.7-875.5 76.8-1059.9c47.4-81.199 276.6-251.8 543.3-420h1653.3c92.2 174.2 15.4 1034.5-76.8 1218.8"/>
   <path transform="matrix(.13333 0 0 -.13333 0 2666.7)" d="m15202 158.9c-297.1-35-440.1-89.8-502.5-158.9h168.9c78.8 174.6 1054.3 146.2 1429.2 0h224c-256 110.1-854.7 213.6-1319.6 158.9"/>
   <path transform="matrix(.13333 0 0 -.13333 0 2666.7)" d="m18059 17479c266.3 24.7 389.2-278.9 315-303.7-74.2-24.7-1161.9-222.5-1236.1-222.5s729.7 508.4 921.1 526.2zm384-438.8c122.9 46.1-107.5 568.4-384 537.6-214.3-23.8-737.3-337.9-937-522.2-199.7-184.4-107.6-322.6-30.8-399.4s1228.9 337.9 1351.8 384"/>
   <path transform="matrix(.13333 0 0 -.13333 0 2666.7)" d="m16767 15544c98.9 173 439.5 469.7 667.5 469.7 173 0 321.4-642.8 321.4-840.5 0-197.8-272-519.2-519.2-717-247.2-197.7-494.5 74.2-543.9 197.8s-24.7 716.9 74.2 890zm124.5-1790.8c138.2-30.7 691.2 691.3 768 891s184.3 476.2 122.9 722c-61.5 245.7-215.1 706.6-368.7 721.9-214.5 21.5-599.1-291.8-691.2-414.7-92.2-122.9-230.4-1090.7-261.2-1336.4-30.7-245.8 291.9-553 430.2-583.8"/>
   <path transform="matrix(.13333 0 0 -.13333 0 2666.7)" d="m18622 15000c165.8 55.3 543.9-321.4 568.6-420.3 24.7-98.8-247.2-420.2-445-543.8-197.8-123.7-593.3 0-667.5 74.1-74.1 74.2 321.4 815.8 543.9 890zm-731.2-1415.8c215.1 0 983.1 122.9 1106 322.6s384 706.6 291.9 829.4c-92.2 122.9-481.7 292.6-645.2 338-276.5 76.8-967.7-1490-752.7-1490"/>
   <path transform="matrix(.13333 0 0 -.13333 0 2666.7)" d="m7373.1 12726c-123.61 123.6-118.54 480.6 49.44 519.2 167.99 38.6 519.16 148.3 692.22 123.6 218.9-31.3 346.1-519.2 420.27-667.5s-1038.3-98.9-1161.9 24.7zm763.04 720.3c-188.34 25.2-770.74-109.6-906.3-215-138.25-107.5 153.61-983.1 337.94-1090.6 184.33-107.6 906.3 245.7 1013.8 337.9s-215.06 937-445.47 967.7"/>
   <path transform="matrix(.13333 0 0 -.13333 0 2666.7)" d="m13430 13566c123.6-271.9 0-914.7-173-1186.6-173.1-271.9-815.9-914.7-964.2-741.7-148.3 173.1-568.6 1211.4-469.7 1458.6s585 1105.6 741.6 1236.1c148.4 123.6 741.7-494.4 865.3-766.4zm-885.2 893.7c-223.6 0-752.7-1305.7-906.3-1643.7-153.6-337.9-230.4-844.8-215-1029.1 15.3-184.4 629.8-706.6 875.5-752.7 245.8-46.1 906.3 921.6 1013.9 1167.4 107.5 245.8 384 983.1 368.6 1106-15.3 122.9-798.8 1152.1-1136.7 1152.1"/>
   <path transform="matrix(.13333 0 0 -.13333 0 2666.7)" d="m14073 12132c173 296.6 691 1098.8 890 1087.7 445-24.7 766.4-420.2 766.4-568.6 0-148.3-173.1-642.7-370.9-791.1-197.8-148.3-593.3-568.6-815.8-543.9-222.5 24.8-642.8 519.2-469.7 815.9zm-130.1-1236.3c168.9 30.7 1090.6 138.3 1228.8 291.9 138.3 153.6 645.2 1244.2 629.8 1351.7-15.3 107.6-30.7 445.5-215 537.7-184.4 92.2-644.9 301.2-783.4 199.7-460.9-338-1059.9-1536.1-1059.9-1705.1s30.7-706.6 199.7-675.9"/>
   <path transform="matrix(.13333 0 0 -.13333 0 2666.7)" d="m18004 11440c-123.6-123.7-939.5-494.5-1087.8-445-148.3 49.4-741.7 667.5-667.5 939.4s304.8 794.9 568.6 865.3c370.8 98.9 1013.6-98.9 1137.2-247.3 123.6-148.3 173.1-988.8 49.5-1112.4zm-497.2 1391.4c-322.6 61.5-846.4 95.6-967.7-30.7-368.7-384-599.1-1751.2-599.1-1950.9s798.8-215 998.4-168.9c199.7 46.1 1044.6 384 1136.8 629.8 92.1 245.7 138.2 1106 76.8 1213.5-61.5 107.5-322.6 245.8-645.2 307.2"/>
   <path transform="matrix(.13333 0 0 -.13333 0 2666.7)" d="m2923.1 8127.5c197.78 222.5 815.83 741.7 1458.6 840.6 286 44 865.27-890 939.44-1013.6 74.16-123.6-1013.6-815.8-1335-914.7s-889.98 222.5-1013.6 321.4-247.22 543.8-49.45 766.3zm453.29-1705.8c337.94-122.9 1764.3-287.4 2056.2-210.6 291.87 76.8 537.63 491.6 553 614.5 15.36 122.9-107.53 553-460.83 1013.8-353.31 460.8-1029.6 1264-1182.8 1274.9-215.06 15.4-768.05-276.4-1044.6-506.9-276.5-230.4-637.11-552.2-575.67-767.2 61.44-215.1 316.73-1295.6 654.67-1418.5"/>
   <path transform="matrix(.13333 0 0 -.13333 0 2666.7)" d="m532.45 8684.2c322.59 30.7 645.16 153.6 645.16 291.9 0 138.2-138.24 645.1-307.22 752.7-140.18 89.2-696.25 184.3-870.4 153.6v-98.5c154.28 74.2 647.07 38 870.39-178.8 97.925-95 173.88-340.4 198.6-464 19.3-96.4-691-78.1-1069 21.3v-451.8c183.87-32.5 389.73-40 532.45-26.4"/>
   <path transform="matrix(.13333 0 0 -.13333 0 2666.7)" d="m1208.3 4122c337.94 199.7 1013.8 1321 1059.9 1413.2s61.45 245.8-76.8 829.5-467.68 1505.4-721.97 1566.8c-506.6 122.3-1052.8 120.4-1469.5 81.9v-138.6c492.07 69.3 1136.4 69.5 1464.5-118.1 214.65-122.6 543.88-1112.5 593.33-1384.4 49.44-271.9-568.61-1112.5-815.82-1310.3-144.87-115.9-739.57 269.1-1242 672.4v-1246.9c486.98-267.4 1021.2-476.1 1208.3-365.5"/>
   <path transform="matrix(.13333 0 0 -.13333 0 2666.7)" d="m5172.8 3801.2c-370.82-24.7-2076.6 494.5-2200.2 667.5-123.61 173.1 197.77 346.1 420.27 420.3 222.5 74.1 2323.8 494.4 2793.6 395.5 336.95-70.9 642.76-543.8 766.38-667.5 123.61-123.6-1409.2-791.1-1780-815.8zm931.36 1584c-436.44 54.5-2554.4-268.6-2946-436.5-190.94-81.8-436.44-709.2-436.44-818.3 0-343.4 736.5-627.4 927.44-654.7 381.89-54.5 1254.8-491 1745.8-272.7 491 218.2 2018.5 872.8 1909.4 1145.6s-763.77 982-1200.2 1036.6"/>
   <path transform="matrix(.13333 0 0 -.13333 0 2666.7)" d="m1957.2 2648.7c124.15 0-93.11 403.4-186.21 434.5-168.96 56.3-1189.2 180.2-1771 228.5v-53.6c741.74-16.3 1769.4-237.5 1860.1-396.3 98.89-173.1-173.05-123.6-420.27-123.6-181.69 0-1044.3 278.1-1439.8 427.3v-483c744.91-47.9 1873.4-33.8 1957.2-33.8"/>
   <path transform="matrix(.13333 0 0 -.13333 0 2666.7)" d="m3739 735.7c-222.5 74.203-1186.7 939.4-1137.2 1087.8 49.44 148.3 138.35 636.5 370.83 667.5 370.83 49.4 1063-964.2 1112.5-1162 49.45-197.7-123.61-667.5-346.1-593.3zm452.84 733.6c-366.92 524.1-1101.5 1230.6-1303.5 1086.3-217.25-155.2-682.81-900.1-558.67-1117.4 124.15-217.2 837.99-1210.4 1179.4-1148.3 341.41 62.098 900.07 869 682.81 1179.4"/>
   <path transform="matrix(.13333 0 0 -.13333 0 2666.7)" d="m746.74 414c341.4 124.2 1117.3 1303.6 651.77 1458.8-478.84 159.6-901.57 219.2-1272.5 248.3-42.676 3.3-84.696 6.1-126.01 8.5v-58.3c41.906 0.2 83.961 0.2 126.01 0.3 515.6 0.9 1165.5-149.2 1313.8-371.7s-593.33-1038.4-889.98-1063.1c-109.54-9.102-320.21 15.5-549.84 56.301v-304.4c326.75-24.199 616.19-22.097 746.74 25.301"/>
   <path transform="matrix(.13333 0 0 -.13333 0 2666.7)" d="m18894 15879c106.6-79.9 562.6-309.7 1106.3-569.4v441.3c-60 33.7-108.7 64.3-142.4 90.2-321.4 247.2-642.8 716.9-445 766.4 94 23.5 333.1 46.9 587.4 49.2v95c-407.7-13.3-908.9-84.3-1390.8-232.6-258.8-79.6 0-426.7 284.5-640.1"/>
   <path transform="matrix(.13333 0 0 -.13333 0 2666.7)" d="m19534 18226c-120.1-135.1 114.7-238.5 466.2-302.2v767.7c-223.9-214.4-396-386.5-466.2-465.5"/>
   <path transform="matrix(.13333 0 0 -.13333 0 2666.7)" d="m19000 12465c-20.2-201.8 486.2-781.3 999.6-1245v1594.9c-141.8 458.7-179.6 985.8 0 1147.2v102.4c-11.8-0.3-23.6-0.5-35.1-1-443.4-16.1-929-1242.9-964.5-1598.5"/>
   <path transform="matrix(.13333 0 0 -.13333 0 2666.7)" d="m19580 8960.7c-8.6-128.5 188.2-209.2 419.9-250.1v451.8c-106.4 27.9-186.5 62.3-216.5 102.4-74.2 98.8 62.2 445 216.5 519.1v98.5c-174.2-30.7-404.6-691.3-419.9-921.7"/>
   <path transform="matrix(.13333 0 0 -.13333 0 2666.7)" d="m18848 7021.8c-138.2-322.5 88.5-1679 272.8-1909.4 124.5-155.6 486.3-409.4 878.9-624.9v1246.9c-355 284.9-664.1 579-735.7 712.1-173.1 321.3-123.6 1087.7 123.6 1260.8 90.9 63.6 325.8 127.3 612.1 167.5v138.6c-316.1-29.2-557.6-79.5-650.3-112.6-215.1-76.8-363.1-556.4-501.4-879"/>
   <path transform="matrix(.13333 0 0 -.13333 0 2666.7)" d="m19350 2803.8c20.2-60.6 290.4-98.2 649.9-121.3v483c-142.7 53.7-224.6 90.7-191.8 91.8 61 2.1 125.3 2.2 191.8 0.8v53.6c-149.3 12.4-269.8 19.8-339.6 19.8-341.3 0-372.4-341.4-310.3-527.7"/>
   <path transform="matrix(.13333 0 0 -.13333 0 2666.7)" d="m18791 1996.9c-217.2-155.2-496.6-1210.4-155.1-1365.6 210.8-95.899 836-203.5 1363.7-242.6v304.4c-392.3 69.8-839.9 187.1-933.5 265.1-148.3 123.6-254.6 833.1-148.3 939.4 158.9 159 609.8 171.9 1081.8 173.7v58.3c-617.4 35-1076.8-38.6-1208.6-132.7"/>
   <path transform="matrix(.13333 0 0 -.13333 0 2666.7)" d="m6928.1 1254.9c-123.61-148.4-1137.2 197.7-1310.3 346.1-173.05 148.3-74.16 593.3 24.72 692.2 98.89 98.9 965.64 440.6 1187.4 442.8 275.27 2.7 493.69-467.5 592.58-591.1 98.89-123.7-370.83-741.7-494.44-890zm-98.14 1580c-310.37 0-1334.6-496.6-1551.8-620.7-217.26-124.2-93.11-807 93.1-931.1 186.22-124.2 1241.5-713.9 1458.7-558.7 217.26 155.2 775.91 993.2 744.87 1241.5-31.03 248.3-527.62 869-744.87 869"/>
   <path transform="matrix(.13333 0 0 -.13333 0 2666.7)" d="m4505.3 2589.9c173.05-49.5 98.89-148.4-49.44-222.5-148.33-74.2-321.39 197.7-321.39 197.7 98.89 74.2 197.78 74.2 370.83 24.8zm-521.6-20.7c16.4-82 213.19-393.6 311.58-360.8 98.4 32.8 381.37 237.6 327.98 344.4-32.8 65.6-229.59 98.4-353.18 110.2-177.64 16.9-302.78-11.8-286.38-93.8"/>
   <path transform="matrix(.13333 0 0 -.13333 0 2666.7)" d="m8657.4 4848.6c213.18 82 885.53 1000.4 901.93 1197.1 16.4 196.8 98.39 606.8-196.79 787.2-295.17 180.4-1334.4 642.9-1557.9 590.3 161.78-37.3 1323.7-457.6 1570.9-680.1 181.92-163.7 49.45-815.8-24.72-964.1-74.16-148.4-1211.4-74.2-1557.5 148.3-346.1 222.5-593.32 667.5-568.6 815.8 17.61 105.7 222.22 424.7 396.97 586.1-310.71-217.2-742.98-730.1-719.02-889.9 49.2-328 1541.5-1672.7 1754.7-1590.7"/>
   <path transform="matrix(.13333 0 0 -.13333 0 2666.7)" d="m7985.3 3724.9c340.27-2.1 1019.4-418.1 994.72-442.8-199.34-199.3-889.99-98.9-988.88 0s-179.62 443.9-5.84 442.8zm-279.02-680.1c81.99-16.4 573.96-82 885.53-16.4 311.58 65.6 639.55 245.9 475.57 344.3-163.99 98.4-981.5 445.2-1131.5 426.4-131.19-16.4-213.19-131.2-262.38-295.2-49.2-164-49.2-442.7 32.8-459.1"/>
   <path transform="matrix(.13333 0 0 -.13333 0 2666.7)" d="m10414 6100.4c197.7 74.1 914.7 173 1112.4 123.6 206.4-51.6 321.4-865.3 346.2-1087.8 24.7-222.5-865.3-692.2-1087.8-741.7-222.5-49.4-642.8 766.4-716.9 890-74.21 123.6 148.3 741.7 346.1 815.9zm-510.22-1973.3c229.52-147.6 1311.9-311.6 1525.1-246s590.3 311.6 623.1 541.2c41.7 292.2-246 1459.5-328 1656.2-81.9 196.8-180.3 213.2-377.1 246s-877-46.3-1000.4-114.8c-147.5-82-426.32-737.9-442.72-901.9s-229.58-1033.1 0-1180.7"/>
   <path transform="matrix(.13333 0 0 -.13333 0 2666.7)" d="m9598 9635.6c444.96 271.9 1884.9 872.6 2101.4 692.2 148.3-123.6 618.1-890 642.8-1161.9 24.7-272-148.4-1112.5-445-1186.7-296.7-74.1-1829.4-49.4-2027.2 173.1-197.77 222.5-716.93 1211.3-271.94 1483.3zm-593.35-1458.6c217.29-434.6 923.36-765.4 1112.5-815.8 370.8-98.9 1532.7-272 1681.1-74.2 264.1 352.1 791.1 1705.8 667.5 2002.5-123.7 296.6-588.9 1216-890 1236.1-370.8 24.7-1458.6-494.4-1656.4-568.6-197.77-74.2-884.19-504.7-988.87-766.4-98.89-247.2-49.45-766.4 74.16-1013.6"/>
   <path transform="matrix(.13333 0 0 -.13333 0 2666.7)" d="m9449.7 11341c-148.34 173-325.21 700-113.87 685.4 454.75-31.5 1152.2-512.4 1275.8-636 123.7-123.6 49.5-395.5-123.6-395.5-173 0-889.96 173-1038.3 346.1zm939.39-593.3c173.1 98.9 519.2 519.1 272 716.9-428.7 342.9-1164 667.1-1325.3 636-163.28-31.6-405.31-116.8-405.31-240.4 0-123.7 395.55-840.6 568.6-964.2s716.97-247.2 889.97-148.3"/>
   <path transform="matrix(.13333 0 0 -.13333 0 2666.7)" d="m13108 10006c123.6 98.9 402.4 412.5 296.7 445-24.8-74.1-173-296.7-296.7-321.4-123.6-24.7-444.9 148.4-370.8 197.8 43.3 28.8 280.2 116.6 460.2 155.2-304.4 10.4-653.2-105.1-633.3-204.6 24.8-123.6 420.3-370.9 543.9-272"/>
   <path transform="matrix(.13333 0 0 -.13333 0 2666.7)" d="m15459 9997.9c-229.2 153.5-1014.8 274.1-1386.6 200.5 323.9 47.4 1236-129.1 1360.3-315.6 98.9-148.3 123.6-964.1 49.4-1112.5-74.1-148.3-271.9-618-642.7-519.1-370.8 98.8-1112.5 914.7-1211.4 1137.2-98.9 222.4 148.3 692.2 370.8 791.1-222.5-74.2-716.9-568.6-692.2-741.7 24.7-173 445-1359.7 692.2-1483.3s1091.7-180 1260.8-123.6c74.2 24.7 346.1 568.6 346.1 815.8s98.9 1186.7-146.7 1351.2"/>
   <path transform="matrix(.13333 0 0 -.13333 0 2666.7)" d="m16545 9734.5c271.9 98.9 2030.1 348.2 2175.5 148.3 197.8-271.9-98.9-1359.7-346.1-1433.9-247.2-74.1-1137.2-49.4-1359.7 148.4-222.5 197.7-741.7 1038.3-469.7 1137.2zm-370.9-1310.3c122-170.7 1285.6-840.5 1508.1-766.4 222.5 74.2 939.4 618.1 1013.6 865.3 110.2 367.6 203.7 1513.9 24.7 1532.8-939.4 98.9-2299.1-173.1-2422.8-321.4-123.6-148.3-247.2-1137.2-123.6-1310.3"/>
   <path transform="matrix(.13333 0 0 -.13333 0 2666.7)" d="m13034 8102.8c-98.9-49.4-469.8-667.5-420.3-791.1 49.4-123.6 420.3-469.7 692.2-494.4s495.6 183.4 445 271.9c-98.9 173.1-540.1 1102.1-716.9 1013.6"/>
   <path transform="matrix(.13333 0 0 -.13333 0 2666.7)" d="m17460 6619.5c148.3-148.3 98.9-766.4 98.9-939.4 0-173.1-1335-469.7-1631.7-395.6-296.6 74.2-939.4 939.5-1038.3 1112.5-98.9 173.1 741.7 717 1038.3 766.4 269.4 44.9 1384.5-395.6 1532.8-543.9zm-2651.9 354.1c-130.3-66.1-67.5-650.7-18.1-848.5 49.5-197.8 939.4-1359.7 1236.1-1384.4 296.7-24.8 1606.9 321.3 1631.7 543.8 24.7 222.5 49.4 1285.6-74.2 1384.5s-1359.7 568.5-1636.8 569c-252.3 0.4-1008.5-198.2-1138.7-264.4"/>
   <path transform="matrix(.13333 0 0 -.13333 0 2666.7)" d="m16322 3900.1c568.6 173.1 2076.6-296.7 2175.5-469.7s-24.7-519.2-123.6-519.2-1038.3-98.8-1285.6 49.5c-247.2 148.3-961.4 880.1-766.3 939.4zm-370.9-370.8c123.7-148.3 791.1-1137.2 1013.6-1161.9 222.5-24.8 1384.5 222.5 1483.3 296.6 98.9 74.2 272 494.5 201.7 707.8-70.2 213.3-696.1 429.4-844.4 478.9-148.4 49.4-1379.4 203.7-1532.8 173-123.6-24.7-445-346.1-321.4-494.4"/>
   <path transform="matrix(.13333 0 0 -.13333 0 2666.7)" d="m12787 6372.3c247.2 24.7 1063-296.7 1211.3-469.7 148.4-173.1 766.4-964.2 593.4-988.9-173.1-24.7-1162 222.5-1384.5 346.1s-567.8 1097.7-420.2 1112.5zm766.3-1854.1c173.1 0 1335 148.3 1260.8 321.4-74.1 173-667.5 1087.7-890 1211.3s-1475.7 549.5-1508 420.3c-24.7-98.9 43.7-1091.4 123.6-1211.4 98.9-148.3 840.6-741.6 1013.6-741.6"/>
   <path transform="matrix(.13333 0 0 -.13333 0 2666.7)" d="m11650 2688.7c-148.3 24.7-540.6 440.3-395.5 543.9 173 123.6 692.2-74.2 716.9-222.5s-173-346.1-321.4-321.4zm370.9 445c-350.9 210.6-844 240.5-914.7 98.9-24.8-49.4 0-469.7 98.8-568.6 98.9-98.9 395.6-395.5 519.2-247.2s420.3 642.8 296.7 716.9"/>
   <path transform="matrix(.13333 0 0 -.13333 0 2666.7)" d="m15655 2540.4c-98.9 0-1236.1 271.9-1458.6 370.8s-759.1 658.3-568.6 717c321.4 98.8 1161.9 98.8 1409.1 24.7 247.2-74.2 717-1112.5 618.1-1112.5zm-2496.9 1137.2c-199-66.3 123.6-692.2 271.9-815.8s2274.4-791.1 2447.5-766.4c173 24.7-222.5 741.7-296.7 914.7-74.2 173.1-321.4 791.1-692.2 791.1s-1508-49.4-1730.5-123.6"/>
   <path transform="matrix(.13333 0 0 -.13333 0 2666.7)" d="m14839 1180.7c-197.8 98.9-821.4 684.7-692.3 716.9 197.8 49.5 1359.7-741.6 1359.7-741.6s-469.7-74.2-667.4 24.7zm-840.6 840.6c-153.8 27.9 148.3-618.1 321.4-815.9 173-197.7 494.4-370.8 642.8-370.8 148.3 0 667.5 247.2 618 321.4-49.4 74.2-1310.2 815.8-1582.2 865.3"/>
   <path transform="matrix(.13333 0 0 -.13333 0 2666.7)" d="m17460 735.7c-148.4 0-1060.2 416.3-890 543.9 98.9 74.1 642.7 197.8 840.5 123.6s197.8-667.5 49.5-667.5zm-1112.5 543.9c-135.1-82.5 173-494.4 271.9-618 98.9-123.7 791.1-74.2 890-49.5 98.9 24.699 98.9 791.1 0 890s-716.9 49.4-1161.9-222.5"/>
  </g>
  <g fill="#a6a49a">
   <path transform="matrix(.13333 0 0 -.13333 0 2666.7)" d="m4849.2 16458c23.49 211.4-1033.4 1714.5-1409.2 1761.4-139.82 17.5-1033.4-892.4-1080.3-1244.7-46.98-352.3 728.05-1714.5 1409.1-1784.9 681.1-70.5 1056.9 1056.8 1080.4 1268.2"/>
   <path transform="matrix(.13333 0 0 -.13333 0 2666.7)" d="m1736.5 15124c-123.61 197.7-876.33 1359-1013.6 1433.8-142.72 77.9-442.03 101.2-722.86 98.7v-905.8c511.83-287.5 1847.1-803.8 1736.5-626.7"/>
   <path transform="matrix(.13333 0 0 -.13333 0 2666.7)" d="m1909.5 18461c420.27 173 1112.5 914.7 988.88 1137.2-54.31 97.7-171.43 257.4-304.21 401.5h-1020.2c-654.34-490.6-1574-1385.3-1574-1514 0-173.1 1489.2-197.8 1909.5-24.7"/>
   <path transform="matrix(.13333 0 0 -.13333 0 2666.7)" d="m4159.2 19598c24.73-173.1 1112.5-1310.3 1433.9-1161.9 321.38 148.3 1369.8 629 1161.9 865.2-272.58 309.8-557.73 544.1-814.79 698.2h-1289.9c-273.09-137.5-504.64-306.7-491.09-401.5"/>
   <path transform="matrix(.13333 0 0 -.13333 0 2666.7)" d="m5840.3 16533c-24.72-197.8 543.88-1730.6 865.27-1656.4 321.38 74.2 1335 964.2 1310.3 1433.9-24.73 469.7-350.08 1871.5-494.44 1829.4-593.33-173.1-1656.4-1409.2-1681.1-1606.9"/>
   <path transform="matrix(.13333 0 0 -.13333 0 2666.7)" d="m9474.4 17027c296.66 24.7 1260.8 445 1260.8 593.3 0 148.4 112 787.1-83.3 847.7-182.2 56.7-485.3-31.8-781.93-130.7-296.67-98.9-939.43-395.6-939.43-543.9 0-148.4 247.21-791.1 543.88-766.4"/>
   <path transform="matrix(.13333 0 0 -.13333 0 2666.7)" d="m9400.2 19574c138.45 55.3 321.71 221 498.29 426.2h-1614.2c375.01-260.4 882.55-519.6 1115.9-426.2"/>
   <path transform="matrix(.13333 0 0 -.13333 0 2666.7)" d="m11427 19450c74.2 74.1-128.2 394-286.6 419.5-140.4 22.6-183.1-345.4-183.1-469s395.6-24.7 469.7 49.5"/>
   <path transform="matrix(.13333 0 0 -.13333 0 2666.7)" d="m12886 17200c173.1 197.7 513.8 1115.5 346.1 1211.3-519.1 296.7-1285.5 370.9-1458.5 296.7-173.1-74.2-296.7-716.9-148.4-890 148.4-173.1 1087.8-815.8 1260.8-618"/>
   <path transform="matrix(.13333 0 0 -.13333 0 2666.7)" d="m14864 19969c24.7-197.8 865.3-1038.3 1236.1-1161.9s1359.7-395.6 1236.1-123.6c-123.6 271.9-642.8 1161.9-1038.3 1316.2h-1429.2c-4.3-9.6-6.1-19.8-4.7-30.7"/>
   <path transform="matrix(.13333 0 0 -.13333 0 2666.7)" d="m15062 15470c370.8-98.9 1087.7 667.5 1112.4 840.6 24.8 173-1038.3 1384.4-1656.3 1606.9-210.6 75.8-667.5-766.4-791.1-1013.6s964.1-1335 1335-1433.9"/>
   <path transform="matrix(.13333 0 0 -.13333 0 2666.7)" d="m17138 16953c74.2 0 1161.9 197.8 1236.1 222.5 74.2 24.8-48.7 328.4-315 303.7-191.4-17.8-995.3-526.2-921.1-526.2"/>
   <path transform="matrix(.13333 0 0 -.13333 0 2666.7)" d="m18720 19055c173.1-49.4 791.1 222.5 914.7 321.4s-494.4 346.1-1458.6 148.3c-141.2-28.9 370.8-420.3 543.9-469.7"/>
   <path transform="matrix(.13333 0 0 -.13333 0 2666.7)" d="m17237 14456c247.2 197.8 519.2 519.2 519.2 717 0 197.7-148.4 840.5-321.4 840.5-228 0-568.6-296.7-667.5-469.7-98.9-173.1-123.6-766.4-74.2-890s296.7-395.5 543.9-197.8"/>
   <path transform="matrix(.13333 0 0 -.13333 0 2666.7)" d="m18078 14110c74.2-74.1 469.7-197.8 667.5-74.1 197.8 123.6 469.7 445 445 543.8-24.7 98.9-402.8 475.6-568.6 420.3-222.5-74.2-618-815.8-543.9-890"/>
   <path transform="matrix(.13333 0 0 -.13333 0 2666.7)" d="m14542 11317c222.5-24.7 618 395.6 815.8 543.9 197.8 148.4 370.9 642.8 370.9 791.1 0 148.4-321.4 543.9-766.4 568.6-199 11.1-717-791.1-890-1087.7-173.1-296.7 247.2-791.1 469.7-815.9"/>
   <path transform="matrix(.13333 0 0 -.13333 0 2666.7)" d="m16817 12800c-263.8-70.4-494.4-593.4-568.6-865.3s519.2-890 667.5-939.4c148.3-49.5 964.2 321.3 1087.8 445 123.6 123.6 74.1 964.1-49.5 1112.4-123.6 148.4-766.4 346.2-1137.2 247.3"/>
   <path transform="matrix(.13333 0 0 -.13333 0 2666.7)" d="m12565 14333c-156.6-130.5-642.7-988.9-741.6-1236.1s321.4-1285.5 469.7-1458.6c148.3-173 791.1 469.8 964.2 741.7 173 271.9 296.6 914.7 173 1186.6-123.6 272-716.9 890-865.3 766.4"/>
   <path transform="matrix(.13333 0 0 -.13333 0 2666.7)" d="m14246 18708c0 74.2-100.7 152.4-186.3 138-169.7-28.5-135-236.9-85.6-335.8s271.9 123.6 271.9 197.8"/>
   <path transform="matrix(.13333 0 0 -.13333 0 2666.7)" d="m6112.2 11663c346.11 98.8 618.05 469.7 618.05 667.5 0 197.7-44.98 399.5-393.32 533.5-348.34 133.9-1386.7 529.5-1905.8 430.6-292.43-55.7-123.61-1063 49.45-1310.3 173.05-247.2 1285.5-420.2 1631.6-321.3"/>
   <path transform="matrix(.13333 0 0 -.13333 0 2666.7)" d="m401.5 12108c389.61-272 1285.5-717 1483.3-395.6 197.78 321.4 815.82 1335 667.49 1532.8-283.38 377.8-2324.2 921.9-2552.3 716.9v-1147.2c97.148-314.2 243.11-596.4 401.5-706.9"/>
   <path transform="matrix(.13333 0 0 -.13333 0 2666.7)" d="m2750.1 11366c-543.88-321.4-1013.6-1285.5-964.15-1409.1 49.44-123.7 173.05-692.2 420.27-593.4 247.22 98.9 1335 741.7 1236.1 988.9-98.88 247.2-495.98 1129.6-692.21 1013.6"/>
   <path transform="matrix(.13333 0 0 -.13333 0 2666.7)" d="m1069 9141.1c-24.72 123.6-100.67 369-198.6 464-223.32 216.8-716.11 253-870.39 178.8v-621.5c377.99-99.4 1088.3-117.7 1069-21.3"/>
   <path transform="matrix(.13333 0 0 -.13333 0 2666.7)" d="m3986.2 7039.8c321.38 98.9 1409.2 791.1 1335 914.7-74.17 123.6-653.44 1057.6-939.44 1013.6-642.76-98.9-1260.8-618.1-1458.6-840.6-197.77-222.5-74.16-667.4 49.45-766.3s692.21-420.3 1013.6-321.4"/>
   <path transform="matrix(.13333 0 0 -.13333 0 2666.7)" d="m7323.6 9512c296.66 148.3 1335 815.8 1236.1 1087.7-98.89 272-345.45 820.2-633.3 770.5-262.48-45.5-1492.8-473.8-1715.3-671.6-222.49-197.7-358.58-788.9-271.94-890 148.33-173 1087.8-445 1384.4-296.6"/>
   <path transform="matrix(.13333 0 0 -.13333 0 2666.7)" d="m8114.7 13369c-173.06 24.7-524.23-85-692.22-123.6-167.98-38.6-173.05-395.6-49.44-519.2s1236.1-173 1161.9-24.7-201.37 636.2-420.27 667.5"/>
   <path transform="matrix(.13333 0 0 -.13333 0 2666.7)" d="m10612 11391c-123.6 123.6-821.01 604.5-1275.8 636-211.34 14.6-34.47-512.4 113.87-685.4 148.33-173.1 865.29-346.1 1038.3-346.1 173.1 0 247.3 271.9 123.6 395.5"/>
   <path transform="matrix(.13333 0 0 -.13333 0 2666.7)" d="m11897 7979.2c296.6 74.2 469.7 914.7 445 1186.7-24.7 271.9-494.5 1038.3-642.8 1161.9-216.5 180.4-1656.4-420.3-2101.4-692.2-444.99-272 74.17-1260.8 271.94-1483.3 197.82-222.5 1730.5-247.2 2027.2-173.1"/>
   <path transform="matrix(.13333 0 0 -.13333 0 2666.7)" d="m13108 10130c123.7 24.7 271.9 247.3 296.7 321.4 20.6 61.8-78.9 59.2-207.3 31.6-180-38.6-416.9-126.4-460.2-155.2-74.1-49.4 247.2-222.5 370.8-197.8"/>
   <path transform="matrix(.13333 0 0 -.13333 0 2666.7)" d="m13628 9388.4c98.9-222.5 840.6-1038.4 1211.4-1137.2 370.8-98.9 568.6 370.8 642.7 519.1 74.2 148.4 49.5 964.2-49.4 1112.5-124.3 186.5-1036.4 363-1360.3 315.6-29.8-4.3-54.8-10.6-73.6-18.9-222.5-98.9-469.7-568.7-370.8-791.1"/>
   <path transform="matrix(.13333 0 0 -.13333 0 2666.7)" d="m17015 8597.3c222.5-197.8 1112.5-222.5 1359.7-148.4 247.2 74.2 543.9 1162 346.1 1433.9-145.4 199.9-1903.6-49.4-2175.5-148.3-272-98.9 247.2-939.5 469.7-1137.2"/>
   <path transform="matrix(.13333 0 0 -.13333 0 2666.7)" d="m14888 6397c98.9-173 741.7-1038.3 1038.3-1112.5 296.7-74.1 1631.7 222.5 1631.7 395.6 0 173 49.4 791.1-98.9 939.4s-1263.4 588.8-1532.8 543.9c-296.6-49.4-1137.2-593.3-1038.3-766.4"/>
   <path transform="matrix(.13333 0 0 -.13333 0 2666.7)" d="m13207 5259.8c222.5-123.6 1211.4-370.8 1384.5-346.1 173 24.7-445 815.8-593.4 988.9-148.3 173-964.1 494.4-1211.3 469.7-147.6-14.8 197.7-988.9 420.2-1112.5"/>
   <path transform="matrix(.13333 0 0 -.13333 0 2666.7)" d="m10785 4394.5c222.5 49.5 1112.5 519.2 1087.8 741.7-24.8 222.5-139.8 1036.2-346.2 1087.8-197.7 49.4-914.7-49.5-1112.4-123.6-197.8-74.2-420.31-692.3-346.1-815.9 74.1-123.6 494.4-939.4 716.9-890"/>
   <path transform="matrix(.13333 0 0 -.13333 0 2666.7)" d="m7224.7 6743.1c-24.72-148.3 222.5-593.3 568.6-815.8 346.11-222.5 1483.3-296.7 1557.5-148.3 74.17 148.3 206.64 800.4 24.72 964.1-247.22 222.5-1409.1 642.8-1570.9 680.1-46.55 10.8-112.3-28.7-182.91-94-174.75-161.4-379.36-480.4-396.97-586.1"/>
   <path transform="matrix(.13333 0 0 -.13333 0 2666.7)" d="m6186.4 5284.5c-469.72 98.9-2571.1-321.4-2793.6-395.5-222.5-74.2-543.88-247.2-420.27-420.3 123.61-173 1829.4-692.2 2200.2-667.5 370.83 24.7 1903.6 692.2 1780 815.8-123.62 123.7-429.43 596.6-766.38 667.5"/>
   <path transform="matrix(.13333 0 0 -.13333 0 2666.7)" d="m1242 5062c247.21 197.8 865.26 1038.4 815.82 1310.3-49.45 271.9-378.68 1261.8-593.33 1384.4-328.19 187.6-972.47 187.4-1464.5 118.1v-2140.4c502.48-403.3 1097.2-788.3 1242-672.4"/>
   <path transform="matrix(.13333 0 0 -.13333 0 2666.7)" d="m1860.1 2861.8c-90.74 158.8-1118.4 380-1860.1 396.3v-92.6c395.53-149.2 1258.1-427.3 1439.8-427.3 247.22 0 519.16-49.5 420.27 123.6"/>
   <path transform="matrix(.13333 0 0 -.13333 0 2666.7)" d="m4085.1 1329c-49.44 197.8-741.65 1211.4-1112.5 1162-232.48-31-321.39-519.2-370.83-667.5-49.45-148.4 914.71-1013.6 1137.2-1087.8 222.49-74.199 395.55 395.6 346.1 593.3"/>
   <path transform="matrix(.13333 0 0 -.13333 0 2666.7)" d="m549.84 636.8c296.66 24.699 1038.3 840.6 889.98 1063.1s-798.21 372.6-1313.8 371.7c-42.047-0.1-84.102-0.1-126.01-0.3v-1378.2c229.62-40.801 440.3-65.403 549.84-56.301"/>
   <path transform="matrix(.13333 0 0 -.13333 0 2666.7)" d="m19858 15841c33.7-25.9 82.4-56.5 142.4-90.2v905.8c-254.3-2.3-493.4-25.7-587.4-49.2-197.8-49.5 123.6-519.2 445-766.4"/>
   <path transform="matrix(.13333 0 0 -.13333 0 2666.7)" d="m2107.3 315.4c-114-25.3-307.91-146.4-533.28-315.4h1020.2c-169.42 183.9-364.37 342.6-486.89 315.4"/>
   <path transform="matrix(.13333 0 0 -.13333 0 2666.7)" d="m5296.4 216.5c-167.57-11.098-420.96-103.1-646.11-216.5h1289.9c-255.85 153.4-483.85 227.2-643.81 216.5"/>
   <path transform="matrix(.13333 0 0 -.13333 0 2666.7)" d="m10340 2342.6c-346.12 197.8-1038.3 197.8-1285.6 49.5-247.22-148.4-1335-1780-1211.4-2002.5 45.81-82.5 220.72-236.3 441.55-389.6h1614.2c296.36 344.4 573.96 800 589.46 1032.3 24.7 370.9 35.1 1205.5-148.3 1310.3"/>
   <path transform="matrix(.13333 0 0 -.13333 0 2666.7)" d="m12466 2416.8c-142.1 42.6-519.2-494.5-642.8-766.4s543.9-1137.2 766.4-1310.3c222.5-173 939.4 0 1063 74.199s94.7 644.8-39.2 804.5c-133.8 159.7-900.2 1123.8-1147.4 1198"/>
   <path transform="matrix(.13333 0 0 -.13333 0 2666.7)" d="m14868 0h1429.2c-374.9 146.2-1350.4 174.6-1429.2 0"/>
   <path transform="matrix(.13333 0 0 -.13333 0 2666.7)" d="m2e4 12815v1147.2c-179.6-161.4-141.8-688.5 0-1147.2"/>
   <path transform="matrix(.13333 0 0 -.13333 0 2666.7)" d="m19784 9264.8c30-40.1 110.1-74.5 216.5-102.4v621.5c-154.3-74.1-290.7-420.3-216.5-519.1"/>
   <path transform="matrix(.13333 0 0 -.13333 0 2666.7)" d="m19264 6446.5c71.6-133.1 380.7-427.2 735.7-712.1v2140.4c-286.3-40.2-521.2-103.9-612.1-167.5-247.2-173.1-296.7-939.5-123.6-1260.8"/>
   <path transform="matrix(.13333 0 0 -.13333 0 2666.7)" d="m19808 3257.3c-32.8-1.1 49.1-38.1 191.8-91.8v92.6c-66.5 1.4-130.8 1.3-191.8-0.8"/>
   <path transform="matrix(.13333 0 0 -.13333 0 2666.7)" d="m19066 958.2c93.6-78 541.2-195.3 933.5-265.1v1378.2c-472-1.8-922.9-14.7-1081.8-173.7-106.3-106.3 0-815.8 148.3-939.4"/>
   <path transform="matrix(.13333 0 0 -.13333 0 2666.7)" d="m8980 3282.1c24.72 24.7-654.45 440.7-994.72 442.8-173.78 1.1-93.05-343.9 5.84-442.8s789.54-199.3 988.88 0"/>
   <path transform="matrix(.13333 0 0 -.13333 0 2666.7)" d="m6829.9 2736c-221.76-2.2-1088.5-343.9-1187.4-442.8-98.88-98.9-197.77-543.9-24.72-692.2 173.05-148.4 1186.6-494.5 1310.3-346.1 123.61 148.3 593.33 766.3 494.44 890-98.89 123.6-317.31 593.8-592.58 591.1"/>
   <path transform="matrix(.13333 0 0 -.13333 0 2666.7)" d="m11254 3232.6c-145.1-103.6 247.2-519.2 395.5-543.9 148.4-24.7 346.1 173.1 321.4 321.4s-543.9 346.1-716.9 222.5"/>
   <path transform="matrix(.13333 0 0 -.13333 0 2666.7)" d="m13628 3628.2c-190.5-58.7 346.1-618.1 568.6-717s1359.7-370.8 1458.6-370.8-370.9 1038.3-618.1 1112.5c-247.2 74.1-1087.7 74.1-1409.1-24.7"/>
   <path transform="matrix(.13333 0 0 -.13333 0 2666.7)" d="m17089 2960.7c247.3-148.3 1186.7-49.5 1285.6-49.5s222.5 346.2 123.6 519.2-1606.9 642.8-2175.5 469.7c-195.1-59.3 519.1-791.1 766.3-939.4"/>
   <path transform="matrix(.13333 0 0 -.13333 0 2666.7)" d="m17410 1403.2c-197.8 74.2-741.6-49.5-840.5-123.6-170.2-127.6 741.6-543.9 890-543.9 148.3 0 148.3 593.3-49.5 667.5"/>
   <path transform="matrix(.13333 0 0 -.13333 0 2666.7)" d="m14147 1897.6c-129.1-32.2 494.5-618 692.3-716.9 197.7-98.9 667.4-24.7 667.4-24.7s-1161.9 791.1-1359.7 741.6"/>
   <path transform="matrix(.13333 0 0 -.13333 0 2666.7)" d="m4455.9 2367.4c148.33 74.1 222.49 173 49.44 222.5-173.05 49.4-271.94 49.4-370.83-24.8 0 0 173.06-271.9 321.39-197.7"/>
   <path transform="matrix(.13333 0 0 -.13333 0 2666.7)" d="m10063 13657c308.3-205.6 1089.4-82.2 1253.8 20.5 164.5 102.8 657.8 1644.4 555 1850-102.8 205.5-616.6 657.7-1171.6 616.6-308.2-22.8-1171.6-328.9-1315.5-452.2s369.98-1829.4 678.34-2034.9"/>
  </g>
 </g>
</svg>
