<?xml version="1.0" encoding="UTF-8"?>
<svg version="1.1" xmlns="http://www.w3.org/2000/svg" viewBox="0 0 95.61 148.99">
	<g transform="translate(-185.23 -59.818)" fill="#d54">
		<circle cx="233.04" cy="77.391" r="17.573"/>
		<path d="m186.47 139.91 28.043-36.702c0.968-1.267 2.472-2.011 4.067-2.011h28.624c1.579 0 3.07 0.729 4.039 1.975l28.33 36.41c2.051 2.636 1.565 6.439-1.084 8.474-2.343 1.8-5.646 1.634-7.798-0.391l-20.013-23.058 8.961 38.907h-12.499l1.258 39.078c0.105 3.345-2.569 6.118-5.915 6.136h-5e-3c-3.075 0.016-5.655-2.314-5.952-5.374l-3.384-35.881-3.27 35.939c-0.285 3.046-2.833 5.378-5.892 5.394-3.363 0.017-6.072-2.754-5.978-6.115l1.119-39.053-12.457 6e-3 8.644-38.885-19.889 23.169c-2.133 2.036-5.428 2.228-7.783 0.453l-6e-3 -4e-3c-2.668-2.012-3.189-5.812-1.16-8.467z"/>
	</g>
</svg>
